<svg width="138" height="91" viewBox="0 0 138 91" fill="none" xmlns="http://www.w3.org/2000/svg">
<rect x="10.5791" y="32.3047" width="108.119" height="57.9206" rx="5" fill="#120F01"/>
<path d="M23.785 5.97279L31.7503 15.1987L41.971 8.55788L41.0796 20.7139L53.0025 23.2453L43.7766 31.2105L50.4174 41.4312L38.2614 40.5399L35.7301 52.4628L27.7648 43.2368L17.5441 49.8777L18.4355 37.7217L6.51256 35.1903L15.7385 27.225L9.09765 17.0043L21.2537 17.8957L23.785 5.97279Z" fill="#FFCE00"/>
<path d="M26.0244 62.2256C26.0244 34.6113 48.4102 12.2256 76.0244 12.2256H137.232V27.0967C137.232 54.7109 114.846 77.0967 87.232 77.0967H26.0244V62.2256Z" fill="#FCE47E"/>
<path d="M55.1319 38.5651H64.7959V39.5731H55.1319V38.5651ZM54.6839 47.9091H65.0039V48.9331H54.6839V47.9091ZM59.3399 37.2211H60.5079V41.2051H59.3399V37.2211ZM57.4999 43.3171V44.3411H62.4119V43.3171H57.4999ZM57.4999 45.1411V46.1651H62.4119V45.1411H57.4999ZM57.4999 41.5411V42.5331H62.4119V41.5411H57.4999ZM56.3959 40.7091H63.5639V46.9971H56.3959V40.7091ZM60.7959 49.7491L61.6279 49.1411C62.8919 49.8291 64.2839 50.6931 65.1159 51.3491L64.0119 51.9571C63.2759 51.3171 61.9959 50.4371 60.7959 49.7491ZM57.8519 49.1891L58.9719 49.5731C57.9799 50.5171 56.4279 51.4131 55.1159 51.9731C54.9239 51.7491 54.4759 51.3171 54.2199 51.1251C55.5479 50.6611 56.9879 49.9411 57.8519 49.1891ZM50.4599 41.1411H55.1799V42.2771H50.4599V41.1411ZM52.3319 37.4291H53.4679V47.8611H52.3319V37.4291ZM50.1559 48.1971C51.4519 47.7171 53.4039 46.8851 55.2919 46.0851L55.5639 47.2051C53.8679 47.9891 52.0279 48.7891 50.6199 49.3971L50.1559 48.1971ZM73.0039 37.2371H74.2039V39.2051H73.0039V37.2371ZM66.8279 38.5171H80.4279V41.3651H79.2919V39.5731H67.9319V41.3651H66.8279V38.5171ZM72.4599 40.0851L73.2279 40.8691C72.1719 41.3011 70.7319 41.6691 69.5159 41.8931C69.4679 41.6851 69.3239 41.3491 69.2119 41.1411C70.3479 40.8531 71.6919 40.4531 72.4599 40.0851ZM68.7799 40.9011L69.8679 41.1411V45.3651H68.7799V40.9011ZM68.7799 44.8051H77.4359V41.7811H74.0919V40.9011H78.5399V45.7011H68.7799V44.8051ZM69.1639 42.8531H72.9399V43.7171H69.1639V42.8531ZM74.3319 42.8531H77.9959V43.7171H74.3319V42.8531ZM70.9879 45.2211L72.0599 45.5411C70.9559 47.2851 68.9719 48.7091 67.0359 49.5891C66.8919 49.3491 66.5399 48.8531 66.3159 48.6291C68.1719 47.9091 70.0279 46.6931 70.9879 45.2211ZM70.2999 46.7411H79.1799V47.7171H69.3079L70.2999 46.7411ZM78.7959 46.7411H79.9799C79.9799 46.7411 79.9639 47.0611 79.9479 47.2211C79.7719 49.9891 79.5799 51.0771 79.1959 51.4931C78.9079 51.7811 78.6199 51.8771 78.1719 51.9091C77.7719 51.9411 77.0039 51.9251 76.2039 51.8931C76.1879 51.5731 76.0599 51.1251 75.8679 50.8371C76.6519 50.9011 77.3879 50.9171 77.6439 50.9011C77.9319 50.9171 78.0759 50.9011 78.2039 50.7731C78.4759 50.4851 78.6359 49.4931 78.7959 46.9011V46.7411ZM68.9879 48.3571L69.9479 48.6611C69.7079 49.7971 69.2599 51.0291 68.3799 51.7491L67.4999 51.2051C68.2839 50.5651 68.7479 49.4131 68.9879 48.3571ZM70.8919 48.6291L71.8359 48.5171C72.1719 49.4131 72.4279 50.5651 72.4279 51.3011L71.4359 51.4451C71.4519 50.7091 71.2279 49.5411 70.8919 48.6291ZM73.1479 48.5491L74.0279 48.3091C74.5239 49.0611 74.9719 50.0851 75.0999 50.7411L74.1879 51.0291C74.0599 50.3571 73.6279 49.3331 73.1479 48.5491ZM75.3719 48.4691L76.1719 48.0851C76.7319 48.5971 77.3239 49.3171 77.5799 49.8451L76.7319 50.2611C76.5079 49.7491 75.9159 48.9811 75.3719 48.4691ZM91.7879 37.2211H92.9239V48.3731H91.7879V37.2211ZM86.7479 43.8291L95.3719 40.1971L95.8199 41.2211L87.2119 44.8851L86.7479 43.8291ZM88.4759 38.7251H89.6279V49.4291C89.6279 50.3091 89.8199 50.5011 90.8919 50.5011C91.4199 50.5011 94.1079 50.5011 94.7479 50.5011C95.6919 50.5011 95.8519 50.0691 95.9639 48.2291C96.2519 48.4211 96.7159 48.6131 97.0519 48.6771C96.8599 50.8851 96.4759 51.5891 94.7959 51.5891C94.3639 51.5891 91.2599 51.5891 90.8599 51.5891C89.0199 51.5891 88.4759 51.1571 88.4759 49.4131V38.7251ZM95.1639 40.3571H95.0199L95.3079 40.1171L95.5159 39.9411L96.3639 40.2611L96.3159 40.4851C96.3159 43.4931 96.2679 45.8931 96.1559 46.5171C96.0599 47.1571 95.7559 47.4611 95.2919 47.5731C94.8599 47.6851 94.2199 47.6851 93.7879 47.6851C93.7399 47.3651 93.6439 46.9171 93.4999 46.6451C93.8679 46.6611 94.3959 46.6611 94.5719 46.6611C94.8119 46.6611 94.9719 46.5971 95.0519 46.2291C95.1479 45.8131 95.1639 43.5411 95.1639 40.3571ZM82.2839 41.0771H87.3719V42.2131H82.2839V41.0771ZM84.3479 37.4131H85.4839V47.7971H84.3479V37.4131ZM82.1399 48.2131C83.4359 47.7331 85.4039 46.9011 87.3079 46.0851L87.5639 47.1571C85.8519 47.9731 84.0439 48.7891 82.6199 49.3971L82.1399 48.2131ZM108.524 42.7731H112.78V43.9251H108.524V42.7731ZM102.604 50.2291H113.02V51.3651H102.604V50.2291ZM108.108 37.3331H109.324V50.8051H108.108V37.3331ZM104.572 40.7251H105.74V50.7411H104.572V40.7251ZM98.3319 41.0771H103.756V42.2131H98.3319V41.0771ZM100.524 37.4291H101.66V47.6691H100.524V37.4291ZM98.1719 48.0691C99.5639 47.5891 101.676 46.7411 103.692 45.9571L103.916 47.0131C102.092 47.8131 100.108 48.6451 98.6199 49.2531L98.1719 48.0691Z" fill="#031A14"/>
<rect x="94.54" y="64.2256" width="34" height="20" rx="10" fill="white"/>
<path d="M107.356 80.0656V78.7376C110.108 76.3216 113.004 74.2096 113.004 71.9216C113.004 70.7056 112.476 69.8736 111.116 69.8736C109.836 69.8736 109.148 70.7696 109.1 72.0816H107.34C107.404 69.5536 109.036 68.3216 111.1 68.3216C113.468 68.3216 114.812 69.7456 114.812 71.8416C114.812 74.6736 111.932 76.8336 110.06 78.5456H115.132V80.0656H107.356Z" fill="black"/>
</svg>
