<svg width="136" height="91" viewBox="0 0 136 91" fill="none" xmlns="http://www.w3.org/2000/svg">
<rect x="8.88672" y="32.3174" width="108.119" height="57.9206" rx="5" fill="#120F01"/>
<path d="M23.245 5.97279L31.2103 15.1987L41.431 8.55788L40.5396 20.7139L52.4625 23.2453L43.2366 31.2105L49.8774 41.4312L37.7214 40.5399L35.19 52.4628L27.2247 43.2368L17.004 49.8777L17.8954 37.7217L5.97252 35.1903L15.1984 27.225L8.55761 17.0043L20.7136 17.8957L23.245 5.97279Z" fill="#0052CC"/>
<path d="M24.332 62.2383C24.332 34.624 46.7178 12.2383 74.332 12.2383H135.54V27.1094C135.54 54.7236 113.154 77.1094 85.5396 77.1094H24.332V62.2383Z" fill="#B9E7FC"/>
<path d="M61.5515 39.7378H59.2315V40.8098H61.5515V39.7378ZM61.7435 43.6418H59.5995C58.5115 43.6418 58.2395 43.2418 58.2395 42.1698V38.9378H62.5915V41.6258H59.2315V42.2018C59.2315 42.6338 59.2955 42.7778 59.6475 42.7778H61.7115C62.0155 42.7778 62.4795 42.7618 62.7195 42.7138C62.7355 42.9698 62.7835 43.3378 62.8155 43.5618C62.6075 43.6258 62.1595 43.6418 61.7435 43.6418ZM56.4315 39.7218H54.1435V40.7938H56.4315V39.7218ZM54.1435 42.8258L57.2795 42.3618C57.1995 42.6338 57.1035 43.0178 57.0555 43.2258C53.8875 43.7858 53.4555 43.8818 53.1835 44.0418C53.1195 43.7698 52.8955 43.3218 52.7675 43.0978C52.9435 42.9858 53.1835 42.7938 53.1835 42.1858V38.9218H57.4555V41.6098H54.1435V42.8258ZM56.4955 45.9938V47.4658H59.0875V45.9938H56.4955ZM63.0555 47.4658V48.4098H52.6235V47.4658H55.3915V45.9938H53.2315V45.0658H55.3915V43.9138H56.4955V45.0658H59.0875V43.9138H60.1915V45.0658H62.4155V45.9938H60.1915V47.4658H63.0555ZM62.7195 50.3938L61.6795 50.9538C60.9915 50.3458 59.7595 49.5938 58.5915 49.0018L59.3595 48.4418C60.5915 49.0178 61.9355 49.7858 62.7195 50.3938ZM56.0475 48.4738L57.1035 48.8258C56.2395 49.6418 54.9275 50.4578 53.8235 51.0018C53.6155 50.7938 53.1995 50.4098 52.9275 50.2658C54.0795 49.8018 55.2955 49.1458 56.0475 48.4738ZM51.7595 41.0178L50.6555 41.3858C50.4155 40.6818 49.9835 39.5458 49.6475 38.6978L50.7035 38.4098C51.0555 39.2418 51.5195 40.3298 51.7595 41.0178ZM51.7755 45.7058L52.4635 46.0098C52.2075 47.4178 51.7595 48.8738 51.1515 50.0098C51.4715 50.1858 51.8555 50.5058 52.4955 50.8898C53.6315 51.5778 55.0715 51.6898 56.9595 51.6898C59.0235 51.6898 61.6155 51.5298 63.3915 51.3538C63.2475 51.6738 63.0715 52.2338 63.0555 52.5858C61.8555 52.6658 58.8155 52.7618 56.9275 52.7618C54.8315 52.7618 53.4235 52.5858 52.2395 51.8818C51.5995 51.4978 51.0235 50.9538 50.6555 50.9538C50.3035 50.9538 49.7595 51.9618 49.2955 52.9698L48.4795 51.8978C48.9115 51.2738 49.3595 50.7138 49.7595 50.3618L49.7275 50.3458C50.4155 49.4338 50.9115 48.0578 51.2155 46.7938H49.1355C49.5835 45.8498 50.1115 44.4898 50.5275 43.2258H48.7355V42.1538H52.0635C51.6635 43.3058 51.1515 44.6498 50.7035 45.7538H51.5835L51.7755 45.7058ZM69.2155 45.0338L69.3755 46.1218C68.8315 46.3138 68.3035 46.5058 67.7755 46.6658V51.4338C67.7755 52.0898 67.6155 52.4098 67.2155 52.6018C66.8475 52.7938 66.2395 52.8258 65.2315 52.8258C65.1835 52.5218 65.0395 52.0418 64.8795 51.7058C65.5675 51.7378 66.2075 51.7378 66.3835 51.7218C66.5755 51.7218 66.6555 51.6578 66.6555 51.4498V47.0498C66.0315 47.2738 65.4235 47.4658 64.8635 47.6418L64.5755 46.5058C65.1515 46.3458 65.8715 46.1218 66.6555 45.8658V42.6018H64.7355V41.4978H66.6555V38.3138H67.7755V41.4978H69.3915V42.6018H67.7755V45.5138L69.2155 45.0338ZM76.1915 46.1858H72.4795C72.7195 46.6498 73.0235 47.2578 73.1035 47.6578L72.9435 47.7058H75.5195C75.7435 47.2418 76.0315 46.6338 76.1915 46.1858ZM73.5515 39.7538V41.4178H75.1515V39.7538H73.5515ZM72.6075 41.4178V39.7538H71.0875V41.4178H72.6075ZM76.0955 39.7538V41.4178H77.7115V39.7538H76.0955ZM79.1195 49.7858V50.7138H74.8475V52.9058H73.7115V50.7138H69.3755V49.7858H73.7115V48.6338H69.9195V47.7058H72.0315C71.9035 47.3218 71.6955 46.8098 71.4875 46.4098L72.3995 46.1858H69.5995V45.2418H73.7115V44.1218H70.2875V43.2098H73.7115V42.2658H70.1115V38.8898H78.7195V42.2658H74.8475V43.2098H78.3835V44.1218H74.8475V45.2418H78.9115V46.1858H76.3675L77.3115 46.4418C77.0715 46.8738 76.8155 47.3218 76.5915 47.7058H78.5595V48.6338H74.8475V49.7858H79.1195ZM84.6235 40.4258H82.3035V43.9618H84.6235V40.4258ZM82.3035 48.6978H84.6235V45.0178H82.3035V48.6978ZM85.7435 39.3378V49.7858H82.3035V51.0658H81.1995V39.3378H85.7435ZM87.0555 48.3138L88.0475 47.7538C88.7995 48.5698 89.6955 49.7378 90.1115 50.4738L89.0715 51.1138C88.6875 50.3458 87.8235 49.1778 87.0555 48.3138ZM95.1835 41.2738H91.1835V43.3378H94.6715V44.3938H93.2795V46.1378H95.1355V47.1938H93.2795V51.4818C93.2795 52.1698 93.1035 52.5058 92.6235 52.6818C92.1115 52.8738 91.3275 52.8898 90.0315 52.8898C89.9835 52.5538 89.8075 52.0898 89.6475 51.7698C90.6235 51.8018 91.5195 51.8018 91.7755 51.7858C92.0315 51.7698 92.1115 51.7058 92.1115 51.4658V47.1938H86.0955V46.1378H92.1115V44.3938H86.7355V43.3378H90.0155V41.2738H86.0315V40.2018H90.0155V38.2818H91.1835V40.2018H95.1835V41.2738ZM102.064 39.8978H98.6075V41.2258H102.064V39.8978ZM98.6075 43.5138H102.064V42.1058H98.6075V43.5138ZM103.2 44.4258H98.6075V52.9058H97.4235V38.9698H103.2V44.4258ZM105.776 46.5378H102.016V48.0258H105.776V46.5378ZM102.016 50.4738H105.776V48.9218H102.016V50.4738ZM106.88 51.4178H102.016V52.2178H100.944V45.6258H106.88V51.4178ZM105.76 43.5298H109.344V42.1058H105.76V43.5298ZM109.344 39.8978H105.76V41.2258H109.344V39.8978ZM110.544 38.9698V51.3218C110.544 52.0738 110.368 52.4738 109.84 52.6818C109.328 52.8738 108.48 52.8898 107.152 52.8898C107.104 52.5538 106.912 51.9938 106.736 51.6738C107.712 51.7218 108.688 51.7058 108.976 51.6898C109.248 51.6898 109.344 51.5938 109.344 51.3058V44.4418H104.624V38.9698H110.544Z" fill="#031A14"/>
<rect x="96.8867" y="64.2383" width="30" height="20" rx="10" fill="white"/>
<path d="M111.095 80.2383V70.2383H109.607V68.5743H112.935V80.2383H111.095Z" fill="black"/>
</svg>
