<svg width="144" height="48" viewBox="0 0 144 48" fill="none" xmlns="http://www.w3.org/2000/svg">
<g clip-path="url(#clip0_820_13199)">
<mask id="mask0_820_13199" style="mask-type:luminance" maskUnits="userSpaceOnUse" x="0" y="0" width="144" height="48">
<path d="M0 0H144V48H0V0Z" fill="white"/>
</mask>
<g mask="url(#mask0_820_13199)">
<path d="M132.533 0H11.4732C11.0328 0 10.5972 0 10.1568 0.0024C9.7884 0.0048 9.4224 0.012 9.0504 0.018C8.2428 0.0276 7.4364 0.0984 6.6384 0.2304C5.84254 0.364918 5.07149 0.618564 4.3512 0.9828C2.90506 1.72232 1.72798 2.89772 0.9864 4.3428C0.620637 5.06119 0.366903 5.83129 0.234 6.6264C0.0999039 7.4204 0.0276867 8.22361 0.018 9.0288C0.006 9.396 0.006 9.7656 0 10.1328V37.872C0.006 38.244 0.0072 38.6052 0.018 38.9784C0.0276 39.7824 0.0996 40.5864 0.234 41.3808C0.366 42.1764 0.6204 42.9468 0.9864 43.6656C1.35124 44.3827 1.82984 45.036 2.4036 45.6C2.97295 46.1727 3.6305 46.6504 4.3512 47.0148C5.0712 47.3796 5.8428 47.6352 6.6396 47.7708C7.4364 47.9028 8.2428 47.9736 9.0516 47.9832C9.4236 47.9916 9.7884 47.9964 10.1556 47.9964C10.596 47.9988 11.0316 47.9988 11.4732 47.9988H132.533C132.965 47.9988 133.405 47.9988 133.837 47.9964C134.204 47.9964 134.58 47.9916 134.946 47.9844C135.753 47.9744 136.557 47.9034 137.353 47.772C138.152 47.6345 138.926 47.3793 139.65 47.0148C140.37 46.6501 141.027 46.1724 141.595 45.6C142.168 45.0335 142.648 44.3798 143.017 43.6632C143.381 42.9432 143.632 42.1728 143.762 41.3784C143.897 40.584 143.971 39.7812 143.986 38.976C143.99 38.6028 143.99 38.2416 143.99 37.8696C144 37.4328 144 36.9996 144 36.5568V11.4432C144 11.004 144 10.5672 143.99 10.1328C143.99 9.7656 143.99 9.396 143.986 9.0288C143.971 8.22355 143.897 7.4205 143.762 6.6264C143.632 5.83128 143.381 5.06079 143.017 4.3416C142.274 2.89707 141.096 1.72197 139.65 0.9816C138.926 0.618148 138.152 0.364565 137.353 0.2292C136.558 0.0972 135.754 0.0264 134.946 0.018C134.58 0.012 134.204 0.0048 133.837 0.0024C133.405 0 132.965 0 132.533 0Z" fill="#9B9B9B"/>
<path d="M10.1626 46.9498C9.7954 46.9498 9.43781 46.945 9.0742 46.9378C8.32038 46.9278 7.56833 46.862 6.8242 46.741C6.13092 46.6223 5.45917 46.4011 4.831 46.0846C4.20881 45.7705 3.64117 45.3585 3.1498 44.8642C2.6518 44.3762 2.23711 43.8099 1.9222 43.1878C1.60366 42.5624 1.38308 41.8918 1.2682 41.1994C1.14439 40.4556 1.07739 39.7034 1.0678 38.9494C1.05997 38.5842 1.05397 38.219 1.0498 37.8538V10.1338C1.0498 10.1338 1.0618 9.3034 1.0678 9.0598C1.0774 8.3074 1.1434 7.5562 1.267 6.8134C1.3822 6.1186 1.603 5.4466 1.921 4.819C2.56218 3.56999 3.57974 2.55412 4.8298 1.915C5.45665 1.59918 6.1273 1.37913 6.81941 1.2622C7.5658 1.1398 8.32061 1.0738 9.0766 1.0642L10.1638 1.0498H133.832L134.931 1.0654C135.68 1.0738 136.428 1.1398 137.167 1.261C137.866 1.37898 138.544 1.60019 139.178 1.9174C140.426 2.55824 141.443 3.57372 142.085 4.8214C142.398 5.4454 142.615 6.1126 142.728 6.8014C142.854 7.549 142.923 8.3062 142.938 9.0646C142.941 9.4054 142.941 9.7702 142.941 10.1326C142.951 10.5838 142.951 11.0122 142.951 11.443V36.5578C142.951 36.9934 142.951 37.4194 142.941 37.8478C142.941 38.2378 142.941 38.5954 142.937 38.9638C142.922 39.709 142.854 40.4518 142.73 41.1874C142.618 41.8848 142.399 42.5608 142.081 43.1914C141.764 43.8069 141.351 44.3683 140.858 44.8546C140.367 45.3518 139.798 45.7663 139.175 46.0822C138.542 46.4015 137.865 46.624 137.167 46.7422C136.424 46.8622 135.672 46.9282 134.918 46.9378C134.565 46.945 134.197 46.9498 133.838 46.9498L132.534 46.9522L10.1638 46.9498H10.1626Z" fill="#4A4A4A"/>
<path fill-rule="evenodd" clip-rule="evenodd" d="M115.906 34.7474H113.92V21.3122H115.904V34.7462L115.906 34.7474ZM129.53 31.9754L131.807 26.1518H134.015L128.555 38.8202H126.484L128.503 34.2926L124.96 26.1518H127.099L129.462 31.9766L129.53 31.9754ZM118.986 32.0798C118.986 32.8922 119.893 33.221 120.545 33.221C121.691 33.221 122.752 32.339 122.906 31.0958C122.375 30.8354 121.966 30.6458 121.091 30.6458C120.116 30.6458 118.986 31.043 118.986 32.0798ZM117.241 27.9158C117.857 26.4974 119.346 25.8578 120.784 25.8578C123.06 25.8578 124.823 27.1898 124.823 29.5742V34.7246H122.906V33.6878H122.838C122.375 34.3958 121.639 35.0018 120.304 35.0018C118.559 35.0018 117 33.8426 117 32.045C117 30.0746 118.934 29.021 120.835 29.021C121.777 29.021 122.546 29.333 122.906 29.5394V29.4014C122.888 28.295 121.844 27.6734 120.817 27.6734C120.082 27.6734 119.38 27.9146 119.003 28.6574L117.241 27.9146V27.9158ZM105.685 27.7874H108.51C109.994 27.7874 110.838 26.5262 110.838 25.4846C110.838 24.4238 109.994 23.183 108.51 23.183H105.685V27.7874ZM103.7 21.3122H108.46C110.66 21.3122 112.824 22.9214 112.824 25.4846C112.824 28.0478 110.66 29.657 108.46 29.657H105.684V34.7474H103.699L103.7 21.3122ZM79.9897 30.4706C79.9897 32.0642 81.1381 33.2234 82.5097 33.2234C83.8657 33.2234 84.9277 32.0642 84.9277 30.4706C84.9277 28.8614 83.8645 27.683 82.5109 27.683C81.1381 27.683 79.9897 28.8614 79.9897 30.4706ZM84.7225 26.9042H84.7909V26.1602H86.6773V34.3658C86.6773 37.7414 84.7057 39.1274 82.3729 39.1274C80.1781 39.1274 78.8581 37.6382 78.3613 36.4274L80.0929 35.699C80.4013 36.443 81.1561 37.3274 82.3729 37.3274C83.8645 37.3274 84.7909 36.3914 84.7909 34.643V33.9854H84.7225C84.2761 34.5386 83.4193 35.0234 82.3393 35.0234C80.0761 35.0234 78.0013 33.0326 78.0013 30.4706C78.0013 27.8906 80.0749 25.883 82.3393 25.883C83.4193 25.883 84.2761 26.3678 84.7225 26.9042ZM90.0385 34.7462H88.0489V21.3122H90.0373L90.0385 34.7462ZM95.3353 27.6494C94.3237 27.6494 92.9185 28.5494 92.9701 30.3146L97.0153 28.619C96.7933 28.0466 96.1249 27.6494 95.3353 27.6494ZM95.2669 25.883C97.6165 25.883 98.7661 27.7694 99.1429 28.7918L99.3469 29.3102L93.2953 31.8386C93.7585 32.7554 94.4785 33.2234 95.4901 33.2234C96.5017 33.2234 97.2061 32.7218 97.7197 31.9598L99.2629 32.999C98.7661 33.743 97.5649 35.0234 95.4901 35.0234C92.9185 35.0234 90.9985 33.0158 90.9985 30.4538C90.9985 27.7358 92.9353 25.883 95.2669 25.883ZM50.9209 29.2238V27.2846H57.3853C57.4579 27.6844 57.4921 28.0903 57.4873 28.4966C57.4873 29.951 57.0937 31.7522 55.8241 33.0326C54.5905 34.3322 53.0125 35.0246 50.9209 35.0246C47.0449 35.0246 43.7881 31.8386 43.7881 27.9254C43.7881 24.0134 47.0461 20.8274 50.9209 20.8274C53.0641 20.8274 54.5905 21.6758 55.7389 22.7834L54.3841 24.1514C53.5609 23.3714 52.4473 22.7666 50.9209 22.7666C48.0913 22.7666 45.8809 25.0694 45.8809 27.9266C45.8809 30.7826 48.0913 33.0854 50.9209 33.0854C52.7557 33.0854 53.8009 32.3414 54.4705 31.6646C55.0189 31.1114 55.3789 30.3146 55.5157 29.2238H50.9209ZM60.1573 30.4538C60.1573 32.081 61.3405 33.2234 62.7121 33.2234C64.0837 33.2234 65.2669 32.081 65.2669 30.4538C65.2669 28.8086 64.0837 27.683 62.7109 27.683C61.3405 27.683 60.1573 28.8086 60.1573 30.4538ZM58.1677 30.4538C58.1677 27.8042 60.2077 25.8818 62.7121 25.8818C65.2153 25.8818 67.2553 27.8042 67.2553 30.4538C67.2553 33.0854 65.2153 35.0234 62.7121 35.0234C60.2089 35.0234 58.1677 33.0854 58.1677 30.4538ZM70.0693 30.4538C70.0693 32.081 71.2525 33.2234 72.6241 33.2234C73.9957 33.2234 75.1789 32.081 75.1789 30.4538C75.1789 28.8086 73.9957 27.683 72.6241 27.683C71.2525 27.683 70.0693 28.8086 70.0693 30.4538ZM68.0809 30.4538C68.0809 27.8042 70.1209 25.8818 72.6241 25.8818C75.1273 25.8818 77.1673 27.8042 77.1673 30.4538C77.1673 33.0854 75.1273 35.0234 72.6241 35.0234C70.1209 35.0234 68.0809 33.0854 68.0809 30.4538ZM49.1437 15.0338C49.4089 14.7638 49.5757 14.3942 49.6357 13.9106H47.3281V12.9218H50.6185L50.6341 13.0094C50.6653 13.1846 50.6809 13.3526 50.6809 13.5158C50.6809 14.435 50.4085 15.1862 49.8577 15.7418C49.2373 16.3994 48.4201 16.7306 47.4349 16.7294C46.9841 16.7371 46.5365 16.6526 46.1197 16.4809C45.7028 16.3092 45.3255 16.054 45.0109 15.731C44.3449 15.0674 44.0101 14.2334 44.0113 13.2542C44.0113 12.275 44.3449 11.4422 45.0097 10.7774C45.3243 10.4542 45.7018 10.1987 46.1189 10.0268C46.536 9.85489 46.9838 9.77016 47.4349 9.77782C47.9065 9.77782 48.3589 9.87142 48.7873 10.0574C49.2157 10.2434 49.5649 10.493 49.8265 10.8074L49.8889 10.883L49.8193 10.9526L49.1761 11.603L49.1017 11.513C48.6985 11.0282 48.1537 10.7882 47.4349 10.7858C46.7869 10.787 46.2385 11.0126 45.7645 11.4722C45.2965 11.9294 45.0625 12.5138 45.0613 13.2542C45.0625 13.9934 45.2965 14.579 45.7645 15.0362C46.2385 15.4958 46.7881 15.7202 47.4349 15.7226C48.1249 15.7202 48.6865 15.4946 49.1437 15.0338ZM55.5865 10.8218V9.92182H51.6457V16.5854H55.5865V15.5786H52.6777V13.7486H55.3009V12.7586H52.6777V10.931H55.5865V10.823V10.8218ZM59.0461 16.4786V10.9298H60.8305V9.92182H56.2285V10.9298H58.0129V16.5854H59.0461V16.4774V16.4786ZM63.8989 16.5866H64.8265V9.92182H63.7921V16.5842H63.8989V16.5866ZM68.4649 16.4786V10.9298H70.2493V9.92182H65.6485V10.9298H67.4317V16.5854H68.4649V16.4774V16.4786ZM74.4481 15.029C73.9969 14.5658 73.7713 13.9826 73.7701 13.253C73.7701 12.5258 73.9969 11.9426 74.4481 11.4794C74.9041 11.015 75.4477 10.787 76.1077 10.7858C76.7665 10.787 77.3125 11.015 77.7661 11.4794C78.2185 11.9426 78.4441 12.5258 78.4453 13.2542C78.4453 13.9826 78.2185 14.5658 77.7661 15.0302C77.5529 15.2544 77.2953 15.4317 77.0098 15.5507C76.7242 15.6697 76.417 15.7278 76.1077 15.7214C75.7981 15.7277 75.4906 15.6694 75.2049 15.5502C74.9191 15.4309 74.6614 15.2535 74.4481 15.029ZM78.5257 15.719C79.1701 15.0506 79.4977 14.2202 79.4965 13.2542C79.4965 12.2942 79.1701 11.4662 78.5209 10.793C77.8729 10.1186 77.0605 9.77662 76.1077 9.77782C75.1501 9.77782 74.3353 10.1162 73.6909 10.7894C73.0429 11.4578 72.7189 12.2882 72.7189 13.2542C72.7189 14.2202 73.0429 15.0506 73.6909 15.7202L73.6933 15.7226L73.6909 15.719C74.3353 16.391 75.1501 16.7306 76.1077 16.7294C77.0653 16.7294 77.8801 16.391 78.5257 15.719ZM81.5989 9.92302L84.5629 14.7134L84.5377 13.805V9.92302H85.5709V16.5854H84.5497L81.4417 11.5526L81.4681 12.4598V16.5854H80.4349V9.92422H81.6001L81.5989 9.92302Z" fill="white"/>
<path d="M11.2917 37.3143L11.2137 37.2375C10.9029 36.9075 10.7217 36.3939 10.7217 35.7279V35.8839V12.1179V12.1131V12.2751C10.7217 11.5551 10.9341 11.0127 11.2905 10.6875L24.4797 24.0003L11.2917 37.3143Z" fill="url(#paint0_linear_820_13199)"/>
<path d="M28.9727 28.5413L34.1807 25.5533C34.6763 25.2689 35.0075 24.9233 35.1719 24.5573C35.0075 24.9233 34.6787 25.2689 34.1807 25.5533L28.9727 28.5413ZM28.8731 28.4417L24.4775 24.0005L28.8731 19.5605L34.1795 22.6061C34.8539 22.9925 35.2319 23.4905 35.2955 24.0005C35.2319 24.5093 34.8539 25.0097 34.1795 25.3949L28.8731 28.4417Z" fill="url(#paint1_linear_820_13199)"/>
<path d="M12.2325 37.8204C11.8641 37.8204 11.5425 37.7004 11.2917 37.4724C11.5497 37.7038 11.8861 37.8282 12.2325 37.8204ZM12.2325 37.6644C11.8641 37.6644 11.5425 37.542 11.2917 37.314L24.4773 24L28.8729 28.44L13.4253 37.302C12.9969 37.5468 12.5925 37.662 12.2325 37.662V37.6644ZM11.2881 37.4688C11.2646 37.4472 11.2418 37.4247 11.2197 37.4016L11.2881 37.4688Z" fill="url(#paint2_linear_820_13199)"/>
<path d="M24.4778 24.0008L11.291 10.6868C11.5418 10.4588 11.8634 10.3388 12.2306 10.3388C12.5906 10.3388 12.9974 10.454 13.4246 10.6988L28.8734 19.562L24.4778 24.002V24.0008ZM28.973 19.4624L13.4258 10.5428C12.9974 10.2968 12.5918 10.1816 12.2306 10.1816H12.2258H12.233C12.593 10.1816 12.9974 10.2968 13.4246 10.5416L28.973 19.4624Z" fill="url(#paint3_linear_820_13199)"/>
<path d="M12.3301 37.8187C12.6661 37.7995 13.0357 37.6831 13.4245 37.4611C13.0357 37.6843 12.6649 37.7983 12.3301 37.8187Z" fill="black"/>
<path d="M12.2329 37.8208C11.8645 37.8208 11.5429 37.7008 11.2921 37.4728L11.2885 37.4692L11.2201 37.402L11.2129 37.3948L11.2921 37.3144C11.5429 37.5424 11.8645 37.6648 12.2329 37.6636C12.5929 37.6636 12.9973 37.5484 13.4245 37.3036L28.8733 28.4404L28.9729 28.5412L28.8721 28.5976L13.4245 37.4608C13.0357 37.6828 12.6649 37.7992 12.3301 37.8184C12.2981 37.82 12.2649 37.8208 12.2329 37.8208Z" fill="url(#paint4_linear_820_13199)"/>
<path d="M11.2137 37.3951C10.9029 37.0651 10.7217 36.5515 10.7217 35.8855V35.7295C10.7217 36.3943 10.9029 36.9079 11.2137 37.2391L11.2917 37.3147L11.2137 37.3951Z" fill="url(#paint5_linear_820_13199)"/>
<path d="M35.1719 24.5585C35.2547 24.3761 35.2955 24.1901 35.2955 24.0041C35.2955 24.1913 35.2547 24.3761 35.1731 24.5585H35.1719Z" fill="black"/>
<path d="M28.9714 28.5413L28.873 28.4405L34.1794 25.3961C34.8538 25.0097 35.2318 24.5105 35.2954 24.0029C35.2954 24.1889 35.2534 24.3749 35.1718 24.5573C35.0074 24.9233 34.6762 25.2677 34.1794 25.5533L28.9714 28.5413Z" fill="url(#paint6_linear_820_13199)"/>
<path d="M35.2957 24.0015C35.2957 23.4387 34.9237 22.8771 34.1797 22.4499C34.9237 22.8771 35.2957 23.4399 35.2957 24.0015Z" fill="#404040"/>
<path d="M35.2954 24.0001C35.2318 23.4925 34.8538 22.9933 34.1794 22.6081L28.873 19.5625L28.9714 19.4629L34.1794 22.4509C34.9234 22.8769 35.2954 23.4373 35.2954 24.0001Z" fill="url(#paint7_linear_820_13199)"/>
<path d="M10.7255 11.928C10.7879 10.824 11.3819 10.1844 12.2231 10.1808C11.8798 10.1757 11.5472 10.3004 11.2919 10.53L11.2895 10.5336C11.2631 10.5576 11.2379 10.5816 11.2139 10.608C10.9343 10.9068 10.7579 11.3544 10.7255 11.928Z" fill="#404040"/>
<path d="M10.7207 12.2763V12.1191V12.1131C10.7207 12.0531 10.7219 11.9943 10.7255 11.9391V11.9355V11.9331V11.9283C10.7579 11.3547 10.9343 10.9083 11.2139 10.6083L11.2907 10.6875C10.9343 11.0127 10.7207 11.5551 10.7207 12.2763Z" fill="url(#paint8_linear_820_13199)"/>
<path d="M28.8719 19.5623L13.4255 10.6991C12.9983 10.4543 12.5927 10.3391 12.2315 10.3391C11.8631 10.3391 11.5427 10.4591 11.2919 10.6871L11.2139 10.6079C11.2379 10.5827 11.2631 10.5575 11.2895 10.5335L11.2931 10.5311C11.5415 10.3043 11.8595 10.1831 12.2231 10.1807H12.2315C12.5915 10.1807 12.9983 10.2971 13.4255 10.5431L28.9739 19.4627L28.8743 19.5623H28.8719Z" fill="url(#paint9_linear_820_13199)"/>
</g>
</g>
<defs>
<linearGradient id="paint0_linear_820_13199" x1="23.3085" y1="11.8671" x2="5.27368" y2="29.7279" gradientUnits="userSpaceOnUse">
<stop stop-color="#00A0FF"/>
<stop offset="0.007" stop-color="#00A1FF"/>
<stop offset="0.26" stop-color="#00BEFF"/>
<stop offset="0.512" stop-color="#00D2FF"/>
<stop offset="0.76" stop-color="#00DFFF"/>
<stop offset="1" stop-color="#00E3FF"/>
</linearGradient>
<linearGradient id="paint1_linear_820_13199" x1="36.1163" y1="24.0017" x2="10.3643" y2="24.0017" gradientUnits="userSpaceOnUse">
<stop stop-color="#FFE000"/>
<stop offset="0.409" stop-color="#FFBD00"/>
<stop offset="0.775" stop-color="#FFA500"/>
<stop offset="1" stop-color="#FF9C00"/>
</linearGradient>
<linearGradient id="paint2_linear_820_13199" x1="26.5305" y1="26.4672" x2="2.07453" y2="50.688" gradientUnits="userSpaceOnUse">
<stop stop-color="#FF3A44"/>
<stop offset="1" stop-color="#C31162"/>
</linearGradient>
<linearGradient id="paint3_linear_820_13199" x1="7.87342" y1="2.69724" x2="18.7934" y2="13.5128" gradientUnits="userSpaceOnUse">
<stop stop-color="#32A071"/>
<stop offset="0.069" stop-color="#2DA771"/>
<stop offset="0.476" stop-color="#15CF74"/>
<stop offset="0.801" stop-color="#06E775"/>
<stop offset="1" stop-color="#00F076"/>
</linearGradient>
<linearGradient id="paint4_linear_820_13199" x1="26.5297" y1="26.4676" x2="2.07489" y2="50.6884" gradientUnits="userSpaceOnUse">
<stop stop-color="#CC2E36"/>
<stop offset="1" stop-color="#9C0E4E"/>
</linearGradient>
<linearGradient id="paint5_linear_820_13199" x1="23.3085" y1="11.8687" x2="5.27366" y2="29.7295" gradientUnits="userSpaceOnUse">
<stop stop-color="#008DE0"/>
<stop offset="0.007" stop-color="#008DE0"/>
<stop offset="0.26" stop-color="#00A7E0"/>
<stop offset="0.512" stop-color="#00B8E0"/>
<stop offset="0.76" stop-color="#00C4E0"/>
<stop offset="1" stop-color="#00C7E0"/>
</linearGradient>
<linearGradient id="paint6_linear_820_13199" x1="36.1162" y1="24.0017" x2="10.3631" y2="24.0017" gradientUnits="userSpaceOnUse">
<stop stop-color="#E0C500"/>
<stop offset="0.409" stop-color="#E0A600"/>
<stop offset="0.775" stop-color="#E09100"/>
<stop offset="1" stop-color="#E08900"/>
</linearGradient>
<linearGradient id="paint7_linear_820_13199" x1="36.1162" y1="24.0025" x2="10.3643" y2="24.0025" gradientUnits="userSpaceOnUse">
<stop stop-color="#FFE840"/>
<stop offset="0.409" stop-color="#FFCE40"/>
<stop offset="0.775" stop-color="#FFBC40"/>
<stop offset="1" stop-color="#FFB540"/>
</linearGradient>
<linearGradient id="paint8_linear_820_13199" x1="23.3087" y1="11.8683" x2="5.2739" y2="29.7279" gradientUnits="userSpaceOnUse">
<stop stop-color="#40B8FF"/>
<stop offset="0.007" stop-color="#40B9FF"/>
<stop offset="0.26" stop-color="#40CEFF"/>
<stop offset="0.512" stop-color="#40DDFF"/>
<stop offset="0.76" stop-color="#40E7FF"/>
<stop offset="1" stop-color="#40EAFF"/>
</linearGradient>
<linearGradient id="paint9_linear_820_13199" x1="7.87307" y1="2.69746" x2="18.7931" y2="13.5131" gradientUnits="userSpaceOnUse">
<stop stop-color="#65B895"/>
<stop offset="0.069" stop-color="#62BD95"/>
<stop offset="0.476" stop-color="#50DB97"/>
<stop offset="0.801" stop-color="#44ED98"/>
<stop offset="1" stop-color="#40F498"/>
</linearGradient>
<clipPath id="clip0_820_13199">
<rect width="144" height="48" fill="white"/>
</clipPath>
</defs>
</svg>
