<svg width="350" height="184" viewBox="0 0 350 184" fill="none" xmlns="http://www.w3.org/2000/svg">
<path d="M149.799 155.868L146.737 163.349L166.662 147.575L163.608 144.427L149.799 155.868Z" fill="#6EB7FF"/>
<path d="M111.726 159.301L104.1 163.112H129.516L129.26 159.301H111.726Z" fill="#6EB7FF"/>
<path d="M73.5772 35.5145C73.4434 35.4805 73.3073 35.5614 73.2733 35.6952L72.719 37.8759C72.685 38.0097 72.7659 38.1458 72.8997 38.1798C73.0335 38.2138 73.1696 38.1329 73.2036 37.9991L73.6963 36.0607L75.6347 36.5535C75.7685 36.5875 75.9045 36.5066 75.9386 36.3728C75.9726 36.2389 75.8917 36.1029 75.7579 36.0689L73.5772 35.5145ZM73.3007 35.8846C80.3288 47.7038 88.8477 55.5381 98.3687 60.4679C107.888 65.3966 118.394 67.415 129.389 67.6244L129.399 67.1245C118.458 66.9161 108.032 64.9082 98.5986 60.0239C89.1676 55.1406 80.7151 47.375 73.7305 35.6291L73.3007 35.8846ZM169.511 62.623C175.466 61.3091 181.401 59.8551 187.244 58.4138C193.087 56.9723 198.839 55.5436 204.434 54.2791C215.626 51.7495 226.172 49.8811 235.538 49.8811V49.3811C226.114 49.3811 215.523 51.2603 204.324 53.7914C198.723 55.0573 192.966 56.4873 187.124 57.9284C181.281 59.3697 175.352 60.8223 169.404 62.1347L169.511 62.623ZM235.538 49.8811C249.049 49.8811 257.936 53.2568 263.45 58.1264L263.781 57.7516C258.148 52.7769 249.128 49.3811 235.538 49.3811V49.8811ZM271.094 73.6456C271.57 79.8351 269.742 85.8902 266.865 89.9222C265.427 91.938 263.736 93.4344 261.955 94.1984C260.182 94.9593 258.313 94.9975 256.485 94.0913L256.263 94.5393C258.234 95.5163 260.257 95.4713 262.153 94.6579C264.041 93.8476 265.798 92.2785 267.272 90.2126C270.22 86.0814 272.077 79.909 271.593 73.6073L271.094 73.6456ZM256.485 94.0913C254.46 93.088 253.737 92.0254 253.836 91.044C253.886 90.5406 254.153 90.011 254.65 89.4681C255.147 88.9257 255.861 88.3834 256.777 87.858C260.446 85.7519 267.19 84.0051 275.368 83.5112L275.338 83.0121C267.124 83.5081 260.293 85.2634 256.528 87.4243C255.585 87.9656 254.824 88.5379 254.282 89.1305C253.74 89.7227 253.403 90.3487 253.338 90.994C253.206 92.3101 254.202 93.5179 256.263 94.5393L256.485 94.0913ZM292.449 84.3472C301.444 85.7795 310.746 88.9094 318.858 94.5209L319.142 94.1097C310.956 88.4464 301.578 85.2947 292.528 83.8534L292.449 84.3472Z" fill="#6EB7FF"/>
<path d="M278.156 91.5706C278.179 91.8231 278.223 92.1111 278.085 92.3084C275.189 96.4471 275.445 97.3072 274.834 98.4948C274.522 99.1024 275.181 99.7376 275.78 99.4101C276.585 98.9722 277.236 98.2344 277.509 97.3546C277.757 96.6838 277.197 98.1752 276.317 100.7C275.871 101.971 276.83 102.673 277.662 101.691C278.227 101.024 279.615 98.7867 279.97 97.9937C279.923 98.0095 279.312 100.069 279.166 101.343C279.012 102.681 279.939 102.63 280.341 102.002C281.225 100.629 281.813 98.3133 281.813 98.3133C281.821 99.1497 281.667 100.487 281.339 101.493C281.083 102.29 281.848 102.491 282.346 101.817C283.008 100.913 283.49 99.1339 283.482 98.2975C283.482 98.2975 283.829 99.7967 283.837 100.633C283.845 101.47 285.013 101.292 285.005 100.456C284.997 99.3983 284.764 99.4417 284.527 96.6444C283.703 86.7888 278.333 67.1487 270.699 62.2249C262.69 57.0603 276.313 73.2049 278.152 91.5746L278.156 91.5706Z" fill="white"/>
<path d="M281.646 98.8858C281.646 98.8858 281.41 100.401 281.339 101.486C281.283 102.318 281.848 102.484 282.345 101.809C283.008 100.906 283.489 99.1265 283.481 98.29" stroke="#0B539B" stroke-width="0.75" stroke-linecap="round" stroke-linejoin="round"/>
<path d="M281.813 98.3057C281.813 98.3057 281.225 100.626 280.341 101.995C279.935 102.622 279.012 102.677 279.166 101.336C279.221 100.854 279.623 98.6568 279.623 98.6568" stroke="#0B539B" stroke-width="0.75" stroke-linecap="round" stroke-linejoin="round"/>
<path d="M279.97 97.9889C279.615 98.7858 278.227 101.023 277.662 101.686C276.83 102.668 275.871 101.966 276.317 100.695C277.201 98.1703 277.757 96.679 277.508 97.3497C277.236 98.2295 276.585 98.9673 275.78 99.4053C275.181 99.7327 274.522 99.1015 274.833 98.4899C275.445 97.3024 275.189 96.4423 278.084 92.3036C278.223 92.1063 278.179 91.8183 278.156 91.5658C276.317 73.1961 262.693 57.0516 270.703 62.2161C278.337 67.1399 283.707 86.78 284.531 96.6356C284.764 99.4329 284.997 99.3895 285.009 100.447C285.017 101.283 283.849 101.461 283.841 100.624C283.841 100.328 283.446 98.7898 283.446 98.7898" stroke="#0B539B" stroke-width="0.75" stroke-linecap="round" stroke-linejoin="round"/>
<path d="M266.09 60.7495C267.076 63.7637 267.806 65.1722 270.489 72.5935C270.536 72.7198 279.335 68.8296 279.283 68.6994C278.005 65.4169 273.835 59.8223 269.791 57.6602C267.719 56.5516 265.356 58.5203 266.09 60.7534V60.7495Z" fill="#6EB7FF"/>
<path d="M269.792 57.6563C267.72 56.5477 265.357 58.5164 266.091 60.7495C267.077 63.7638 268.971 67.9459 270.49 72.5935" stroke="#0B539B" stroke-width="0.71" stroke-miterlimit="10"/>
<path d="M279.273 68.68C279.202 68.5774 279.533 68.4078 279.663 68.4788Z" fill="#0B539B"/>
<path d="M279.667 68.4745C278.231 65.8153 276.542 63.4046 274.565 61.499C276.396 63.5348 277.951 66.0046 279.276 68.6757" fill="#0B539B"/>
<path d="M277.39 157.585L279.016 157.534L273.015 163.744L297.725 152.641L292.462 145.871L291.996 144.013L277.39 157.585Z" fill="#6EB7FF"/>
<path d="M242.8 159.12L243.38 160.15L235.896 163.63L262.677 163.894L261.722 159.945L261.868 158.548L242.8 159.12Z" fill="#6EB7FF"/>
<path d="M278.874 91.1768C281.924 97.2763 280.452 104.599 267.945 116.593C259.281 124.898 262.438 159.223 262.438 159.223L241.259 159.29C241.259 159.29 240.189 131.625 247.358 111.002C253.363 93.7294 256.519 91.3622 256.519 91.3622L278.874 91.1768Z" fill="white" stroke="#0B539B" stroke-width="0.75" stroke-miterlimit="10"/>
<path d="M267.964 116.612C267.964 116.612 264.019 120.163 261.651 123.714" stroke="#0B539B" stroke-miterlimit="10"/>
<path d="M255.339 91.1766C252.183 101.226 251.789 128.843 276.337 158.524C276.538 158.765 297.161 141.863 297.161 141.863C284.536 131.605 278.223 121.742 275.856 109.511C275.856 109.511 276.834 106.532 277.434 105.565C282.563 97.2801 279.004 91.3068 279.004 91.3068C279.004 91.3068 255.383 91.0425 255.339 91.1806V91.1766Z" fill="white" stroke="#0B539B" stroke-width="0.75" stroke-miterlimit="10"/>
<path d="M277.434 105.565C277.434 105.565 274.672 110.3 274.672 116.218" stroke="#0B539B" stroke-width="0.75" stroke-miterlimit="10"/>
<path d="M261.06 91.3184C261.06 91.3184 261.395 95.2046 265.4 96.5815" stroke="#0B539B" stroke-miterlimit="10"/>
<path d="M267.625 91.1846C263.932 105.688 262.78 126.247 283.134 153.261" stroke="#0B539B" stroke-width="0.75" stroke-miterlimit="10"/>
<path d="M266.441 91.1768C262.717 105.783 261.573 126.543 282.396 153.849" stroke="#0B539B" stroke-width="0.75" stroke-miterlimit="10"/>
<path d="M177.023 69.8603C176.088 70.1522 177.2 70.7204 178.206 71.4384C178.719 71.8054 181.098 73.419 181.453 74.0345C187.675 84.8527 195.55 81.3177 199.511 77.7511C204.242 73.494 209.351 57.9571 206.041 58.4305C202.731 58.904 198.091 69.5762 196.355 71.4384C192.966 75.0761 183.335 74.5948 183.343 70.2509C183.351 65.0272 179.323 64.3407 179.323 64.3407C179.323 64.3407 177.307 63.4924 177.902 65.2876C178.139 65.9978 179.544 65.4454 179.78 67.1025L174.119 64.8181L173.172 65.2915L174.119 67.1814L174.592 68.1283L175.539 68.6017L176.013 69.5486L177.023 69.8682V69.8603Z" fill="white"/>
<path d="M179.638 66.7855C177.421 65.9215 175.381 65.3258 174.833 65.0496C172.943 64.1027 172.943 66.4699 174.359 66.9394" stroke="#0B539B" stroke-width="0.75" stroke-miterlimit="10"/>
<path d="M177.22 69.6626C176.368 69.9309 176.656 70.5464 177.295 70.9252C177.611 71.1106 178.345 71.6274 178.798 72.0299C179.552 72.7006 181.213 73.5804 181.454 74.0341C186.654 83.9647 194.959 81.9091 198.92 78.3425C203.651 74.0854 209.352 57.9567 206.042 58.4301C202.731 58.9036 197.638 69.564 196.158 71.6353C194.545 73.8921 183.817 75.4505 183.344 70.2505C182.87 65.0505 179.323 64.3403 179.323 64.3403C179.323 64.3403 177.307 63.4921 177.903 65.2872C178.14 65.9974 179.556 65.5239 179.793 67.177C179.836 67.4927 179.603 67.8162 179.891 68.5777" stroke="#0B539B" stroke-width="0.75" stroke-miterlimit="10"/>
<path d="M175.775 68.8336C174.828 68.3602 173.862 67.4251 174.355 66.9438C174.702 66.6045 175.775 66.9438 176.718 67.8907" stroke="#0B539B" stroke-width="0.75" stroke-miterlimit="10"/>
<path d="M176.32 68.4184C175.728 68.2448 175.389 68.9234 175.78 69.3811C175.973 69.606 176.45 69.7559 176.877 69.8506" stroke="#0B539B" stroke-width="0.75" stroke-miterlimit="10"/>
<path d="M172.936 59.7492L171.713 60.5162C171.517 60.6388 171.458 60.8969 171.581 61.0926L178.751 72.5322C178.874 72.7279 179.132 72.7871 179.328 72.6645L180.551 71.8975C180.747 71.7749 180.806 71.5168 180.683 71.3211L173.513 59.8815C173.39 59.6858 173.132 59.6266 172.936 59.7492Z" fill="#0B539B"/>
<path d="M185.804 72.7721C185.804 72.7721 184.518 74.9894 181.362 76.5676C178.205 78.1457 190.831 86.8256 194.776 85.2474C198.721 83.6693 208.585 74.9894 209.374 64.3369C210.163 53.6843 192.409 73.3955 192.409 73.3955L185.804 72.7721Z" fill="#6EB7FF"/>
<mask id="mask0_1310_479" style="mask-type:luminance" maskUnits="userSpaceOnUse" x="180" y="61" width="30" height="25">
<path d="M185.943 72.7125C185.943 72.7125 184.657 74.9298 181.5 76.508C178.344 78.0862 190.969 86.766 194.915 85.1878C198.86 83.6097 208.724 74.9298 209.513 64.2773C210.302 53.6248 192.547 73.3359 192.547 73.3359L185.943 72.7125Z" fill="white"/>
</mask>
<g mask="url(#mask0_1310_479)">
<path d="M211.741 65.125L196.551 84.6547" stroke="#0B539B" stroke-width="0.5" stroke-miterlimit="10"/>
<path d="M213.713 56.8398L198.523 76.3695" stroke="#0B539B" stroke-width="0.5" stroke-miterlimit="10"/>
<path d="M208.387 56.6426L194.184 74.0023" stroke="#0B539B" stroke-width="0.5" stroke-miterlimit="10"/>
<path d="M177.613 68.874L194.579 82.6829" stroke="#0B539B" stroke-width="0.5" stroke-miterlimit="10"/>
<path d="M176.43 73.2129L193.395 87.0217" stroke="#0B539B" stroke-width="0.5" stroke-miterlimit="10"/>
<path d="M182.742 68.4785L194.184 76.3693" stroke="#0B539B" stroke-width="0.5" stroke-miterlimit="10"/>
</g>
<path d="M206.317 53.8799H206.12C205.412 53.8799 204.838 54.454 204.838 55.1621V57.5294C204.838 58.2375 205.412 58.8116 206.12 58.8116H206.317C207.026 58.8116 207.6 58.2375 207.6 57.5294V55.1621C207.6 54.454 207.026 53.8799 206.317 53.8799Z" fill="white"/>
<path d="M192.409 91.1637C192.409 91.1637 197.124 63.9603 201.484 59.6006C205.824 55.2607 209.374 56.4443 209.374 56.4443C209.374 56.4443 222 67.8859 216.476 90.3746L192.409 91.1637Z" fill="#0B539B"/>
<path d="M111.923 69.8603C110.988 70.1522 112.101 70.7204 113.107 71.4384C113.62 71.8054 115.999 73.419 116.354 74.0345C122.576 84.8527 130.451 81.3177 134.412 77.7511C139.142 73.494 144.252 57.9571 140.942 58.4305C137.631 58.904 132.992 69.5762 131.256 71.4384C127.866 75.0761 118.236 74.5948 118.244 70.2509C118.251 65.0272 114.223 64.3407 114.223 64.3407C114.223 64.3407 112.207 63.4924 112.803 65.2876C113.04 65.9978 114.444 65.4454 114.681 67.1025L109.019 64.8181L108.072 65.2915L109.019 67.1814L109.493 68.1283L110.44 68.6017L110.913 69.5486L111.923 69.8682V69.8603Z" fill="white"/>
<path d="M114.539 66.7855C112.322 65.9215 110.282 65.3258 109.734 65.0496C107.844 64.1027 107.844 66.4699 109.26 66.9394" stroke="#0B539B" stroke-width="0.75" stroke-miterlimit="10"/>
<path d="M112.121 69.6626C111.269 69.9309 111.557 70.5464 112.196 70.9252C112.511 71.1106 113.245 71.6274 113.699 72.0299C114.452 72.7006 116.113 73.5804 116.354 74.0341C121.554 83.9647 129.859 81.9091 133.821 78.3425C138.551 74.0854 144.252 57.9567 140.942 58.4301C137.632 58.9036 132.538 69.564 131.059 71.6353C129.445 73.8921 118.717 75.4505 118.244 70.2505C117.771 65.0505 114.224 64.3403 114.224 64.3403C114.224 64.3403 112.208 63.4921 112.803 65.2872C113.04 65.9974 114.456 65.5239 114.693 67.177C114.737 67.4927 114.504 67.8162 114.792 68.5777" stroke="#0B539B" stroke-width="0.75" stroke-miterlimit="10"/>
<path d="M110.677 68.8336C109.73 68.3602 108.763 67.4251 109.256 66.9438C109.603 66.6045 110.677 66.9438 111.62 67.8907" stroke="#0B539B" stroke-width="0.75" stroke-miterlimit="10"/>
<path d="M111.221 68.4184C110.629 68.2448 110.289 68.9234 110.68 69.3811C110.873 69.606 111.351 69.7559 111.777 69.8506" stroke="#0B539B" stroke-width="0.75" stroke-miterlimit="10"/>
<path d="M107.84 59.7541L106.616 60.521C106.42 60.6437 106.361 60.9018 106.484 61.0975L113.654 72.5371C113.777 72.7328 114.035 72.792 114.231 72.6693L115.454 71.9024C115.65 71.7798 115.709 71.5217 115.587 71.326L108.416 59.8864C108.293 59.6907 108.035 59.6315 107.84 59.7541Z" fill="#0B539B"/>
<path d="M125.732 91.5587L150.983 91.1642L149.799 83.2734L127.311 85.2461L125.732 91.5587Z" fill="#0B539B"/>
<path d="M254.747 91.9533L279.998 91.5587L278.814 83.668L256.325 85.6407L254.747 91.9533Z" fill="#0B539B"/>
<path d="M108.175 90.7706C109.591 90.7706 110.739 89.6224 110.739 88.2061C110.739 86.7898 109.591 85.6416 108.175 85.6416C106.759 85.6416 105.61 86.7898 105.61 88.2061C105.61 89.6224 106.759 90.7706 108.175 90.7706Z" fill="white"/>
<path d="M39 116.36C39 134.556 53.748 149.304 71.9442 149.304C90.1405 149.304 104.888 134.556 104.888 116.36C104.888 102.713 96.5913 91.0067 84.7668 86.0039L71.747 117.741L39 116.36Z" fill="#6EB7FF"/>
<path d="M71.7471 117.741L84.7669 86.0042C80.8255 84.3392 76.4934 83.416 71.9443 83.416L71.7471 117.741Z" fill="white"/>
<path d="M90.2902 162.717C93.3408 162.717 95.8138 160.244 95.8138 157.193C95.8138 154.143 93.3408 151.67 90.2902 151.67C87.2396 151.67 84.7666 154.143 84.7666 157.193C84.7666 160.244 87.2396 162.717 90.2902 162.717Z" fill="#6EB7FF"/>
<path d="M50.047 162.717C53.0976 162.717 55.5706 160.244 55.5706 157.193C55.5706 154.143 53.0976 151.67 50.047 151.67C46.9964 151.67 44.5234 154.143 44.5234 157.193C44.5234 160.244 46.9964 162.717 50.047 162.717Z" fill="#6EB7FF"/>
<path d="M49.8499 156.997L39 129.971L76.2842 130.169L108.242 89.1367L90.4877 157.392" stroke="white" stroke-miterlimit="10"/>
<path d="M192.74 91.2334L192.74 91.2334C192.74 91.2339 192.74 91.2344 192.74 91.235C192.74 91.2344 192.74 91.2339 192.74 91.2334ZM218.121 152.647C209.891 144.276 188.353 121.094 192.697 91.5268C192.85 91.522 193.06 91.5182 193.322 91.5153C193.92 91.5088 194.775 91.5075 195.803 91.51C197.858 91.515 200.597 91.5353 203.336 91.5602C206.075 91.5851 208.814 91.6146 210.867 91.6378C211.894 91.6494 212.75 91.6595 213.349 91.6666L214.044 91.675L214.109 91.6758C214.166 91.751 214.245 91.8563 214.342 91.9896C214.557 92.2876 214.862 92.7257 215.212 93.282C215.914 94.3954 216.8 95.9784 217.536 97.857C219.01 101.621 219.865 106.519 217.518 111.213L217.518 111.213C212.817 120.616 215.136 130.933 218.577 138.841C220.301 142.802 222.314 146.179 223.896 148.565C224.687 149.759 225.371 150.706 225.858 151.355C226.072 151.639 226.247 151.866 226.377 152.032L218.779 156.987C218.853 156.787 218.922 156.57 218.979 156.339C219.249 155.251 219.266 153.81 218.121 152.647Z" fill="white" stroke="#0B539B" stroke-width="0.75" stroke-miterlimit="10"/>
<path d="M195.771 91.5518H213.894C217.377 103.236 215.327 109.958 211.309 114.109C207.319 118.232 201.32 119.909 196.427 121.277C196.303 121.312 196.18 121.346 196.057 121.381C194.925 121.698 194.041 122.588 193.352 123.81C192.66 125.034 192.138 126.636 191.743 128.463C190.954 132.119 190.661 136.764 190.617 141.318C190.574 145.875 190.781 150.361 190.999 153.705C191.108 155.378 191.219 156.766 191.304 157.737C191.346 158.222 191.381 158.602 191.406 158.862L182.367 159.185C182.545 159.07 182.727 158.942 182.905 158.804C183.37 158.444 183.832 157.991 184.11 157.459C184.395 156.913 184.487 156.278 184.187 155.609L183.846 155.762L184.187 155.609C182.258 151.309 179.187 143.502 177.987 135.113C176.786 126.716 177.469 117.813 182.949 111.238L182.949 111.238C189.946 102.844 193.144 97.8625 194.593 94.9659C195.317 93.5171 195.611 92.5768 195.718 91.9822C195.749 91.8134 195.765 91.671 195.771 91.5518Z" fill="white" stroke="#0B539B" stroke-width="0.75" stroke-miterlimit="10"/>
<path d="M182.547 157.052L171.566 164.295H185.77L189.648 162.575L188.926 164.295H192.643L192.41 157.446L183.336 159.024L182.547 157.052Z" fill="#6EB7FF"/>
<path d="M217.636 154.224L210.838 165.48L223.66 159.385L226.422 156.165L226.513 158.027L229.867 156.433L226.714 150.346L219.198 155.668L217.636 154.224Z" fill="#6EB7FF"/>
<path d="M175.874 125.106H215.249C214.93 120.628 215.577 115.941 217.853 111.384C222.682 101.726 214.295 91.3062 214.295 91.3062C214.295 91.3062 214.271 91.3062 214.227 91.3062C214.208 91.2628 214.188 91.2194 214.168 91.1799H202.095C197.065 91.1365 192.39 91.1168 192.37 91.1799C191.604 94.1192 191.47 96.7074 191.731 99.0707C189.837 101.947 186.972 105.817 182.656 111.002C179.259 115.077 177.141 119.997 175.874 125.106Z" fill="#6EB7FF"/>
<path d="M285.127 88.7969C284.795 77.4894 279.603 54.472 267.542 57.6284C257.899 60.1534 252.482 76.9292 251.366 89.586C251.235 91.0734 285.178 90.596 285.127 88.7969Z" fill="#6EB7FF"/>
<path d="M42.1562 129.972L76.2841 130.169" stroke="white" stroke-miterlimit="10"/>
<path d="M76.2842 130.169L100.217 99.4424" stroke="white" stroke-miterlimit="10"/>
<path d="M94.433 150.29L44.918 150.685" stroke="white" stroke-miterlimit="10"/>
<path d="M126.482 91.1762C122.485 106.551 121.191 128.843 145.739 158.524C145.94 158.765 166.563 141.863 166.563 141.863C153.938 131.605 147.625 121.741 145.258 109.51C145.258 109.51 146.236 106.532 146.836 105.565C151.965 97.2797 148.406 91.3064 148.406 91.3064C148.406 91.3064 126.517 91.0381 126.482 91.1802V91.1762Z" fill="white" stroke="#0B539B" stroke-width="0.75" stroke-miterlimit="10"/>
<path d="M148.28 91.1768C151.33 97.2763 149.859 104.599 137.352 116.593C128.688 124.898 131.844 159.223 131.844 159.223L110.665 159.29C110.665 159.29 109.596 131.625 116.764 111.002C122.769 93.7294 125.926 91.3622 125.926 91.3622L148.28 91.1768Z" fill="white" stroke="#0B539B" stroke-width="0.75" stroke-miterlimit="10"/>
<path d="M137.371 116.612C137.371 116.612 133.426 120.163 131.059 123.714" stroke="#0B539B" stroke-width="0.75" stroke-miterlimit="10"/>
<path d="M146.84 105.565C146.84 105.565 144.078 110.3 144.078 116.218" stroke="#0B539B" stroke-width="0.75" stroke-miterlimit="10"/>
<path d="M136.187 91.3623C136.187 91.3623 138.014 98.2865 127.113 114.64C117.644 128.843 120.252 150.046 120.406 159.223" stroke="#0B539B" stroke-width="0.75" stroke-miterlimit="10"/>
<path d="M135.398 91.3623C135.398 91.3623 136.83 98.2865 125.929 114.64C116.46 128.843 119.068 150.046 119.222 159.223" stroke="#0B539B" stroke-width="0.75" stroke-miterlimit="10"/>
<path d="M130.467 91.3184C130.467 91.3184 130.802 95.2046 134.807 96.5815" stroke="#0B539B" stroke-miterlimit="10"/>
<path d="M122.576 90.3753L155.788 88.7971C158.155 77.8802 147.306 52.5469 138.752 57.6286C131.015 62.2249 121.787 78.3655 122.576 90.3753Z" fill="#6EB7FF"/>
<path d="M140.823 53.8799H140.626C139.918 53.8799 139.344 54.454 139.344 55.1621V57.5294C139.344 58.2375 139.918 58.8116 140.626 58.8116H140.823C141.531 58.8116 142.106 58.2375 142.106 57.5294V55.1621C142.106 54.454 141.531 53.8799 140.823 53.8799Z" fill="white"/>
<path d="M143.069 57.3842C143.483 57.6327 137.963 61.5742 136.101 59.5975C136.046 59.5384 137.667 58.1417 139.541 57.2343C140.528 56.7569 141.514 56.4452 143.069 57.3842Z" fill="white"/>
<path fill-rule="evenodd" clip-rule="evenodd" d="M268.184 53.8799H268.381C269.089 53.8799 269.663 54.454 269.663 55.1621V56.9296C269.96 57.0266 270.279 57.1739 270.626 57.3836C271.04 57.6322 265.521 61.5736 263.659 59.597C263.605 59.5399 265.113 58.2381 266.902 57.3315V55.1621C266.902 54.454 267.476 53.8799 268.184 53.8799Z" fill="white"/>
<mask id="path-71-inside-1_1310_479" fill="white">
<path fill-rule="evenodd" clip-rule="evenodd" d="M134.432 41.746C137.991 39.4616 146.123 39.7141 147.393 47.0841H147.397C148.837 55.4444 137.991 59.5357 132.401 53.1837C132.03 52.7624 131.731 52.3131 131.496 51.8448C131.444 51.8878 131.382 51.9236 131.308 51.9509C130.29 52.3236 129.926 51.5091 130.465 50.81C130.68 50.5302 130.823 50.282 130.917 50.085C130.337 46.8263 132.137 43.2222 134.432 41.746Z"/>
</mask>
<path fill-rule="evenodd" clip-rule="evenodd" d="M134.432 41.746C137.991 39.4616 146.123 39.7141 147.393 47.0841H147.397C148.837 55.4444 137.991 59.5357 132.401 53.1837C132.03 52.7624 131.731 52.3131 131.496 51.8448C131.444 51.8878 131.382 51.9236 131.308 51.9509C130.29 52.3236 129.926 51.5091 130.465 50.81C130.68 50.5302 130.823 50.282 130.917 50.085C130.337 46.8263 132.137 43.2222 134.432 41.746Z" fill="white"/>
<path d="M147.393 47.0841L146.654 47.2115L146.761 47.8341H147.393V47.0841ZM134.432 41.746L134.027 41.1148L134.027 41.1152L134.432 41.746ZM147.397 47.0841L148.136 46.9568L148.029 46.3341H147.397V47.0841ZM132.401 53.1837L131.837 53.679L131.838 53.6792L132.401 53.1837ZM131.496 51.8448L132.167 51.5088L131.743 50.664L131.017 51.2681L131.496 51.8448ZM131.308 51.9509L131.05 51.2467L131.05 51.2467L131.308 51.9509ZM130.465 50.81L129.87 50.3525L129.87 50.3525L130.465 50.81ZM130.917 50.085L131.594 50.4077L131.697 50.1905L131.655 49.9536L130.917 50.085ZM148.132 46.9567C147.441 42.9479 144.847 40.8342 141.963 40.0697C139.139 39.3211 135.997 39.8505 134.027 41.1148L134.838 42.3771C136.427 41.3571 139.13 40.8706 141.579 41.5196C143.968 42.1528 146.075 43.8503 146.654 47.2115L148.132 46.9567ZM147.397 46.3341H147.393V47.8341H147.397V46.3341ZM131.838 53.6792C134.863 57.1167 139.317 57.7262 142.81 56.3487C146.321 54.9643 148.925 51.5378 148.136 46.9568L146.658 47.2114C147.309 50.9906 145.21 53.7899 142.26 54.9533C139.293 56.1235 135.529 55.6026 132.964 52.6881L131.838 53.6792ZM130.826 52.1809C131.089 52.7061 131.424 53.209 131.837 53.679L132.964 52.6883C132.636 52.3157 132.373 51.9201 132.167 51.5088L130.826 52.1809ZM131.566 52.6551C131.713 52.6011 131.852 52.5242 131.976 52.4215L131.017 51.2681C131.037 51.2513 131.051 51.2462 131.05 51.2467L131.566 52.6551ZM129.87 50.3525C129.49 50.8468 129.291 51.5714 129.665 52.1763C130.083 52.8545 130.891 52.9021 131.566 52.6551L131.05 51.2467C130.97 51.2759 130.911 51.288 130.873 51.2923C130.834 51.2967 130.819 51.293 130.823 51.2937C130.825 51.2941 130.831 51.2955 130.84 51.2993C130.849 51.3032 130.861 51.3091 130.874 51.3177C130.886 51.3264 130.899 51.337 130.911 51.3495C130.923 51.3619 130.933 51.3752 130.941 51.3884C130.958 51.4154 130.964 51.4379 130.966 51.4496C130.968 51.4608 130.966 51.4609 130.968 51.4483C130.97 51.4358 130.975 51.413 130.989 51.3812C131.003 51.3497 131.025 51.3109 131.059 51.2675L129.87 50.3525ZM130.24 49.7623C130.168 49.9131 130.052 50.1159 129.87 50.3525L131.059 51.2675C131.308 50.9445 131.478 50.651 131.594 50.4077L130.24 49.7623ZM134.027 41.1152C132.732 41.9478 131.622 43.3444 130.911 44.9421C130.198 46.5441 129.857 48.4122 130.178 50.2164L131.655 49.9536C131.396 48.4991 131.666 46.9358 132.282 45.552C132.899 44.1639 133.837 43.0204 134.838 42.3768L134.027 41.1152Z" fill="#0B539B" mask="url(#path-71-inside-1_1310_479)"/>
<path d="M133.031 50.1328C133.358 50.1328 133.623 49.8679 133.623 49.541C133.623 49.2142 133.358 48.9492 133.031 48.9492C132.704 48.9492 132.439 49.2142 132.439 49.541C132.439 49.8679 132.704 50.1328 133.031 50.1328Z" fill="#0059C5"/>
<path d="M135.398 52.8936C136.161 52.8936 136.779 52.2754 136.779 51.5127C136.779 50.7501 136.161 50.1318 135.398 50.1318C134.636 50.1318 134.018 50.7501 134.018 51.5127C134.018 52.2754 134.636 52.8936 135.398 52.8936Z" fill="#FFE1E1"/>
<path d="M154.253 52.1683C151.05 38.0478 138.243 35.9015 134.432 41.7485L141.581 56.9856C141.423 56.954 154.273 52.263 154.253 52.1683Z" fill="#6EB7FF"/>
<path d="M139.766 52.6728C140.328 52.6728 140.784 51.991 140.784 51.1499C140.784 50.3088 140.328 49.627 139.766 49.627C139.204 49.627 138.748 50.3088 138.748 51.1499C138.748 51.991 139.204 52.6728 139.766 52.6728Z" fill="white"/>
<path d="M127.997 45.8715C129.362 47.8639 131.635 49.1896 134.235 49.2448C136.835 49.3 139.332 47.9704 140.761 45.907C139.695 43.5043 137.312 41.8077 134.511 41.7486C131.71 41.6894 129.11 43.3938 127.993 45.8715H127.997Z" fill="#6EB7FF"/>
<path d="M139.147 47.3711C139.147 47.3711 140.725 50.1329 138.357 52.5001L136.385 49.7383C136.385 49.7383 137.568 49.3438 137.174 46.9766L139.147 47.3711Z" fill="#6EB7FF"/>
<path d="M133.508 53.5336C133.796 53.3521 134.119 53.0049 134.119 53.0049" stroke="#0B539B" stroke-miterlimit="10" stroke-linecap="round"/>
<path d="M103.499 86.2403C103.274 86.406 103.227 86.769 103.337 87.0255C103.448 87.2819 103.775 87.3963 104.032 87.2859C107.382 85.8379 109.772 87.1044 110.877 87.2464C111.982 87.3884 113.694 87.4121 114.483 86.2285C114.483 86.2285 130.659 86.2285 138.156 74.3923C145.652 62.5562 141.312 57.8217 136.578 63.3453C131.843 68.8688 120.78 82.0622 112.7 81.1863C111.118 81.0166 109.441 81.1626 108.056 81.9517C108.056 81.9517 106.395 82.4804 106.001 83.2695C105.606 84.0585 103.239 84.8476 103.633 85.6367C103.633 85.6367 103.756 86.0431 103.499 86.2364V86.2403Z" fill="white"/>
<path d="M110.18 82.9071C108.554 82.7848 106.873 83.0531 105.461 83.8579C104.924 84.1617 102.904 85.5032 103.985 85.8346" stroke="#0B539B" stroke-width="0.75" stroke-miterlimit="10"/>
<path d="M108.463 84.4097C106.818 84.5912 105.003 85.1356 103.504 86.2403C103.275 86.406 103.232 86.769 103.342 87.0255C103.453 87.2819 103.78 87.3963 104.037 87.2859C107.386 85.8379 109.777 87.1044 110.882 87.2464C111.987 87.3884 113.699 87.4121 114.488 86.2285C114.488 86.2285 130.664 86.2285 138.161 74.3923C145.657 62.5562 141.317 57.8217 136.582 63.3453C131.848 68.8688 120.785 82.0622 112.705 81.1863C111.123 81.0166 109.446 81.1626 108.061 81.9517" stroke="#0B539B" stroke-width="0.75" stroke-miterlimit="10"/>
<path d="M111.126 81.98C109.548 81.763 107.583 81.3014 105.61 83.6687" stroke="#0B539B" stroke-width="0.75" stroke-miterlimit="10"/>
<path d="M137.126 78.0263C137.047 78.0974 134.041 74.3453 132.834 73.0157C132.735 72.9052 137.075 79.0206 137.174 78.9338C142.35 74.3177 143.956 68.2339 143.972 62.5052C143.972 62.3237 143.956 62.1501 143.928 61.9805C143.656 67.429 141.877 73.7929 137.126 78.0263Z" fill="#0B539B"/>
<path d="M138.63 58.5592C136.298 61.2184 133.619 65.1244 128.979 67.7638C128.845 67.8388 136.913 78.2112 137.123 78.0218C142.299 73.4057 143.952 66.2567 143.968 60.5241C143.976 57.7268 140.472 56.4485 138.63 58.5553V58.5592Z" fill="#6EB7FF"/>
<path d="M143.443 58.8123C142.398 57.317 140.035 56.9619 138.63 58.5637C136.298 61.2229 133.619 65.1288 128.979 67.7683" stroke="#0B539B" stroke-width="0.75" stroke-miterlimit="10"/>
<mask id="path-87-inside-2_1310_479" fill="white">
<path fill-rule="evenodd" clip-rule="evenodd" d="M200.32 41.746C203.879 39.4616 212.01 39.7141 213.281 47.0841H213.285C214.725 55.4444 203.879 59.5357 198.288 53.1837C197.915 52.7591 197.614 52.3062 197.378 51.8341C197.319 51.8872 197.245 51.9299 197.154 51.9594C196.124 52.2941 195.791 51.4666 196.354 50.788C196.564 50.5355 196.71 50.308 196.811 50.1218C196.211 46.8535 198.016 43.2277 200.32 41.746Z"/>
</mask>
<path fill-rule="evenodd" clip-rule="evenodd" d="M200.32 41.746C203.879 39.4616 212.01 39.7141 213.281 47.0841H213.285C214.725 55.4444 203.879 59.5357 198.288 53.1837C197.915 52.7591 197.614 52.3062 197.378 51.8341C197.319 51.8872 197.245 51.9299 197.154 51.9594C196.124 52.2941 195.791 51.4666 196.354 50.788C196.564 50.5355 196.71 50.308 196.811 50.1218C196.211 46.8535 198.016 43.2277 200.32 41.746Z" fill="white"/>
<path d="M213.281 47.0841L212.542 47.2115L212.649 47.8341H213.281V47.0841ZM200.32 41.746L199.915 41.1148L199.914 41.1152L200.32 41.746ZM213.285 47.0841L214.024 46.9568L213.916 46.3341H213.285V47.0841ZM198.288 53.1837L197.725 53.679L197.725 53.6792L198.288 53.1837ZM197.378 51.8341L198.049 51.4993L197.609 50.6172L196.877 51.2765L197.378 51.8341ZM197.154 51.9594L196.923 51.2461L196.923 51.2461L197.154 51.9594ZM196.354 50.788L196.931 51.2672L196.931 51.2672L196.354 50.788ZM196.811 50.1218L197.47 50.4789L197.596 50.2464L197.549 49.9863L196.811 50.1218ZM214.02 46.9567C213.329 42.9479 210.735 40.8342 207.851 40.0697C205.026 39.3211 201.884 39.8505 199.915 41.1148L200.725 42.3771C202.314 41.3571 205.018 40.8706 207.466 41.5196C209.855 42.1528 211.962 43.8503 212.542 47.2115L214.02 46.9567ZM213.285 46.3341H213.281V47.8341H213.285V46.3341ZM197.725 53.6792C200.751 57.1167 205.205 57.7262 208.698 56.3487C212.209 54.9643 214.813 51.5378 214.024 46.9568L212.545 47.2114C213.196 50.9906 211.098 53.7899 208.148 54.9533C205.18 56.1235 201.416 55.6026 198.851 52.6881L197.725 53.6792ZM196.707 52.1688C196.971 52.6984 197.308 53.2054 197.725 53.679L198.851 52.6883C198.521 52.3129 198.256 51.914 198.049 51.4993L196.707 52.1688ZM197.386 52.6728C197.567 52.6139 197.735 52.5216 197.88 52.3917L196.877 51.2765C196.889 51.2655 196.901 51.2576 196.91 51.2523C196.919 51.2472 196.924 51.2457 196.923 51.2461L197.386 52.6728ZM195.777 50.3088C195.379 50.7886 195.153 51.5053 195.504 52.1236C195.897 52.8169 196.703 52.8945 197.386 52.6728L196.923 51.2461C196.842 51.2723 196.783 51.2822 196.744 51.2852C196.706 51.2881 196.691 51.2838 196.694 51.2847C196.696 51.2851 196.702 51.2868 196.711 51.2909C196.72 51.2951 196.732 51.3014 196.744 51.3105C196.756 51.3197 196.769 51.3308 196.78 51.3437C196.792 51.3566 196.801 51.3702 196.809 51.3837C196.825 51.4113 196.83 51.434 196.831 51.4458C196.833 51.457 196.831 51.4571 196.833 51.4445C196.836 51.4321 196.842 51.4095 196.857 51.3783C196.873 51.3473 196.896 51.3094 196.931 51.2672L195.777 50.3088ZM196.151 49.7647C196.073 49.9087 195.955 50.0952 195.777 50.3088L196.931 51.2672C197.173 50.9758 197.347 50.7072 197.47 50.4789L196.151 49.7647ZM199.914 41.1152C198.615 41.9509 197.501 43.3549 196.791 44.9603C196.078 46.5701 195.741 48.4471 196.073 50.2572L197.549 49.9863C197.281 48.5282 197.546 46.9582 198.162 45.5676C198.78 44.1726 199.721 43.0228 200.726 42.3768L199.914 41.1152Z" fill="#0B539B" mask="url(#path-87-inside-2_1310_479)"/>
<path d="M198.919 50.1328C199.246 50.1328 199.511 49.8679 199.511 49.541C199.511 49.2142 199.246 48.9492 198.919 48.9492C198.592 48.9492 198.327 49.2142 198.327 49.541C198.327 49.8679 198.592 50.1328 198.919 50.1328Z" fill="#0059C5"/>
<path d="M201.839 52.5528C202.602 52.5528 203.22 51.9345 203.22 51.1719C203.22 50.4093 202.602 49.791 201.839 49.791C201.076 49.791 200.458 50.4093 200.458 51.1719C200.458 51.9345 201.076 52.5528 201.839 52.5528Z" fill="#FFE1E1"/>
<path d="M199.386 53.5336C199.674 53.3521 199.997 53.0049 199.997 53.0049" stroke="#0B539B" stroke-miterlimit="10" stroke-linecap="round"/>
<mask id="path-92-inside-3_1310_479" fill="white">
<path fill-rule="evenodd" clip-rule="evenodd" d="M263.095 41.746C266.654 39.4616 274.785 39.7141 276.056 47.0841H276.06C277.5 55.4444 266.654 59.5357 261.063 53.1837C260.692 52.7613 260.392 52.3109 260.157 51.8414C260.117 51.8739 260.071 51.9027 260.017 51.9275C259.035 52.3836 258.604 51.6022 259.082 50.8607C259.351 50.4438 259.483 50.101 259.546 49.8807C259.075 46.6769 260.848 43.1914 263.095 41.746Z"/>
</mask>
<path fill-rule="evenodd" clip-rule="evenodd" d="M263.095 41.746C266.654 39.4616 274.785 39.7141 276.056 47.0841H276.06C277.5 55.4444 266.654 59.5357 261.063 53.1837C260.692 52.7613 260.392 52.3109 260.157 51.8414C260.117 51.8739 260.071 51.9027 260.017 51.9275C259.035 52.3836 258.604 51.6022 259.082 50.8607C259.351 50.4438 259.483 50.101 259.546 49.8807C259.075 46.6769 260.848 43.1914 263.095 41.746Z" fill="white"/>
<path d="M276.056 47.0841L275.317 47.2115L275.424 47.8341H276.056V47.0841ZM263.095 41.746L262.69 41.1148L262.689 41.1152L263.095 41.746ZM276.06 47.0841L276.799 46.9568L276.692 46.3341H276.06V47.0841ZM261.063 53.1837L260.5 53.679L260.5 53.6792L261.063 53.1837ZM260.157 51.8414L260.828 51.5058L260.409 50.6694L259.684 51.2596L260.157 51.8414ZM260.017 51.9275L259.702 51.2472L259.702 51.2472L260.017 51.9275ZM259.082 50.8607L259.713 51.2671L259.713 51.2671L259.082 50.8607ZM259.546 49.8807L260.267 50.0886L260.312 49.9324L260.288 49.7715L259.546 49.8807ZM276.795 46.9567C276.104 42.9479 273.51 40.8342 270.626 40.0697C267.801 39.3211 264.66 39.8505 262.69 41.1148L263.5 42.3771C265.089 41.3571 267.793 40.8706 270.241 41.5196C272.63 42.1528 274.737 43.8503 275.317 47.2115L276.795 46.9567ZM276.06 46.3341H276.056V47.8341H276.06V46.3341ZM260.5 53.6792C263.526 57.1167 267.98 57.7262 271.473 56.3487C274.984 54.9643 277.588 51.5378 276.799 46.9568L275.321 47.2114C275.972 50.9906 273.873 53.7899 270.923 54.9533C267.955 56.1235 264.191 55.6026 261.626 52.6881L260.5 53.6792ZM259.486 52.177C259.75 52.7037 260.086 53.2079 260.5 53.679L261.626 52.6883C261.298 52.3148 261.034 51.9181 260.828 51.5058L259.486 52.177ZM260.333 52.6078C260.438 52.5589 260.538 52.4979 260.63 52.4232L259.684 51.2596C259.696 51.2498 259.703 51.2465 259.702 51.2472L260.333 52.6078ZM258.452 50.4543C258.114 50.9786 257.977 51.7172 258.399 52.2889C258.873 52.9299 259.682 52.91 260.333 52.6078L259.702 51.2472C259.625 51.2829 259.567 51.2998 259.529 51.3074C259.492 51.3149 259.476 51.3125 259.48 51.3129C259.482 51.3131 259.488 51.314 259.497 51.3171C259.507 51.3201 259.519 51.325 259.532 51.3326C259.546 51.3402 259.559 51.3497 259.572 51.3612C259.585 51.3726 259.596 51.3849 259.605 51.3975C259.624 51.423 259.632 51.4449 259.635 51.4563C259.638 51.4674 259.636 51.4676 259.637 51.4549C259.638 51.4423 259.641 51.4191 259.653 51.3863C259.664 51.3537 259.683 51.3132 259.713 51.2671L258.452 50.4543ZM258.826 49.6728C258.781 49.8268 258.679 50.1022 258.452 50.4543L259.713 51.2671C260.023 50.7854 260.184 50.3751 260.267 50.0886L258.826 49.6728ZM262.689 41.1152C261.421 41.9307 260.331 43.2869 259.619 44.8417C258.905 46.4007 258.544 48.2194 258.804 49.9899L260.288 49.7715C260.077 48.3382 260.366 46.8123 260.983 45.4662C261.601 44.1159 262.521 43.0067 263.501 42.3768L262.689 41.1152Z" fill="#0B539B" mask="url(#path-92-inside-3_1310_479)"/>
<path d="M261.651 50.1328C261.978 50.1328 262.243 49.8679 262.243 49.541C262.243 49.2142 261.978 48.9492 261.651 48.9492C261.325 48.9492 261.06 49.2142 261.06 49.541C261.06 49.8679 261.325 50.1328 261.651 50.1328Z" fill="#0059C5"/>
<path d="M264.02 52.8936C264.782 52.8936 265.4 52.2754 265.4 51.5127C265.4 50.7501 264.782 50.1318 264.02 50.1318C263.257 50.1318 262.639 50.7501 262.639 51.5127C262.639 52.2754 263.257 52.8936 264.02 52.8936Z" fill="#FFE1E1"/>
<path d="M262.051 53.5336C262.339 53.3521 262.662 53.0049 262.662 53.0049" stroke="#0B539B" stroke-miterlimit="10" stroke-linecap="round"/>
<path d="M199.512 61.1798C199.512 61.1798 189.305 80.8278 189.881 89.5866L221.432 88.3596C223.452 79.0366 213.321 57.629 208.594 55.9561C208.566 55.9482 206.361 55.8772 204.637 57.2344C203.268 58.3155 202.83 60.8287 199.508 61.1798" fill="#6EB7FF"/>
<path d="M189.876 89.5855C189.3 80.8267 199.507 61.1787 199.507 61.1787" stroke="#0B539B" stroke-width="0.75" stroke-miterlimit="10"/>
<mask id="mask1_1310_479" style="mask-type:luminance" maskUnits="userSpaceOnUse" x="189" y="55" width="33" height="35">
<path d="M199.513 61.1788C199.513 61.1788 189.306 80.8269 189.882 89.5856L221.433 88.3586C223.453 79.0357 213.322 57.628 208.595 55.9552C208.567 55.9473 206.362 55.8762 204.638 57.2335C203.269 58.3145 202.831 60.8277 199.509 61.1788" fill="white"/>
</mask>
<g mask="url(#mask1_1310_479)">
<path d="M201.486 59.6016L190.044 92.3483" stroke="#0B539B" stroke-width="0.5" stroke-miterlimit="10"/>
<path d="M203.494 56.4619L197.182 94.3376" stroke="#0B539B" stroke-width="0.5" stroke-miterlimit="10"/>
<path d="M205.861 54.8828V95.5203" stroke="#0B539B" stroke-width="0.5" stroke-miterlimit="10"/>
<path d="M207.834 54.0938L215.33 94.7312" stroke="#0B539B" stroke-width="0.5" stroke-miterlimit="10"/>
<path d="M211.384 56.0664L224.009 95.5202" stroke="#0B539B" stroke-width="0.5" stroke-miterlimit="10"/>
<path d="M185.346 87.629L225.589 84.8672" stroke="#0B539B" stroke-width="0.5" stroke-miterlimit="10"/>
<path d="M182.978 85.6564L224.01 75.3984" stroke="#0B539B" stroke-width="0.5" stroke-miterlimit="10"/>
<path d="M184.555 76.9778L223.614 65.1416" stroke="#0B539B" stroke-width="0.5" stroke-miterlimit="10"/>
<path d="M192.446 67.1134L219.67 59.6172" stroke="#0B539B" stroke-width="0.5" stroke-miterlimit="10"/>
</g>
<path d="M200.971 88.7388C201.01 89.1649 201.042 89.4608 201.054 89.5594C201.054 89.587 201.062 89.6107 201.066 89.6383C202.912 101.589 224.454 100.429 225.062 87.634C225.062 87.567 225.062 87.4999 225.054 87.4328L224.687 84.1582C224.62 83.5545 224.091 83.1087 223.483 83.1402L204.573 84.2331C204.242 84.2528 203.938 84.4146 203.733 84.675L201.211 87.926C201.034 88.1588 200.947 88.4468 200.975 88.7388H200.971Z" fill="white" stroke="#0B539B" stroke-width="0.75" stroke-miterlimit="10"/>
<path d="M203.986 91.5345C206.417 94.1226 215.491 95.7008 219.437 90.9663C219.437 90.9663 219.354 83.7936 221.764 83.2373" stroke="#0B539B" stroke-width="0.75" stroke-miterlimit="10"/>
<path d="M204.119 91.6377C205.291 93.0699 208.211 94.3521 211.387 94.6993" stroke="#0B539B" stroke-width="0.84" stroke-miterlimit="10"/>
<path d="M224.17 84.6541L209.998 59.4746L208.814 60.2637L221.748 83.2455L222.197 86.2322L224.17 84.6541Z" fill="white" stroke="#0B539B" stroke-width="0.75" stroke-miterlimit="10"/>
<path d="M212.278 93.2899L210.696 93.4052C210.481 93.4209 210.319 93.608 210.335 93.8231L210.393 94.618C210.409 94.8332 210.596 94.9949 210.811 94.9792L212.393 94.8638C212.608 94.8482 212.77 94.661 212.754 94.4459L212.696 93.651C212.68 93.4359 212.493 93.2742 212.278 93.2899Z" fill="white" stroke="#0B539B" stroke-width="0.75" stroke-miterlimit="10"/>
<path d="M222.395 84.2598C222.939 84.2598 223.381 83.8182 223.381 83.2735C223.381 82.7287 222.939 82.2871 222.395 82.2871C221.85 82.2871 221.408 82.7287 221.408 83.2735C221.408 83.8182 221.85 84.2598 222.395 84.2598Z" fill="white" stroke="#0B539B" stroke-width="0.75" stroke-miterlimit="10"/>
<path d="M199.021 90.7862C196.429 95.1301 194.859 96.5899 193.652 97.4579C193.064 97.88 193.379 98.7914 194.101 98.7717C195.072 98.748 196.035 98.3653 196.713 97.6709C196.319 98.7244 194.989 99.0794 194.342 99.9987C193.975 100.52 194.804 101.269 195.632 100.902C196.461 100.535 197.262 100.042 197.98 99.4621C197.364 100.168 196.788 100.957 196.563 101.865C196.437 102.374 196.981 102.607 197.135 102.543C197.94 102.208 198.631 101.612 199.084 100.871C198.974 101.537 198.863 102.2 198.753 102.867C198.714 103.108 198.686 103.388 198.859 103.557C199.155 103.849 199.637 103.522 199.889 103.194C200.398 102.54 200.824 101.818 201.152 101.056C201.069 102.078 200.986 103.1 200.907 104.118C200.895 104.244 200.891 104.378 200.962 104.481C201.172 104.781 201.617 104.437 201.787 104.118C202.623 102.559 213.6 82.1616 211.138 72.4086C208.676 62.6557 208.435 75.0165 199.017 90.7902L199.021 90.7862Z" fill="white" stroke="#0B539B" stroke-width="0.75" stroke-linecap="round" stroke-linejoin="round"/>
<path d="M204.365 58.9625C203.083 67.1255 203.564 84.6036 192.777 92.2813L206.665 101.466C206.665 101.466 218.809 71.4931 209.328 57.8341C207.912 55.7944 204.748 56.5124 204.361 58.9625H204.365Z" fill="#6EB7FF"/>
<mask id="mask2_1310_479" style="mask-type:luminance" maskUnits="userSpaceOnUse" x="192" y="56" width="21" height="46">
<path d="M204.284 58.7887C203.002 66.9517 203.483 84.4298 192.696 92.1075L206.584 101.292C206.584 101.292 218.728 71.3192 209.247 57.6603C207.831 55.6206 204.667 56.3386 204.28 58.7887H204.284Z" fill="white"/>
</mask>
<g mask="url(#mask2_1310_479)">
<path d="M212.775 54.9863L208.04 115.351" stroke="#0B539B" stroke-width="0.5" stroke-miterlimit="10"/>
<path d="M210.408 53.0137L197.782 119.691" stroke="#0B539B" stroke-width="0.5" stroke-miterlimit="10"/>
<path d="M187.919 84.1816L217.904 103.909" stroke="#0B539B" stroke-width="0.5" stroke-miterlimit="10"/>
<path d="M191.864 66.8232L226.584 84.1829" stroke="#0B539B" stroke-width="0.5" stroke-miterlimit="10"/>
<path d="M188.708 77.4746L223.428 94.8343" stroke="#0B539B" stroke-width="0.5" stroke-miterlimit="10"/>
<path d="M197.817 52.8242L223.396 74.512" stroke="#0B539B" stroke-width="0.5" stroke-miterlimit="10"/>
</g>
<path d="M209.332 57.8341C207.916 55.7944 204.752 56.5124 204.365 58.9625C203.083 67.1255 203.564 84.6036 192.777 92.2813" stroke="#0B539B" stroke-width="0.75" stroke-miterlimit="10"/>
<path d="M211.964 63.7402C215.913 78.6301 206.665 101.462 206.665 101.462L198.695 96.1318L207.139 103.02C207.139 103.02 217.057 78.5354 211.968 63.7402H211.964Z" fill="#0B539B"/>
<path d="M257.6 88.8286C257.442 89.0416 257.268 89.2981 257.024 89.3533C251.824 90.5251 251.409 91.3773 250.092 91.8705C249.413 92.123 249.48 93.0857 250.182 93.2553C251.125 93.4841 252.155 93.3697 252.992 92.8805C253.662 92.5333 252.561 92.9042 250.076 94.2495C248.825 94.9282 249.074 96.1552 250.423 95.9776C251.334 95.8593 253.615 95.4923 254.459 95.1254C254.412 95.1018 252.471 96.2775 251.449 97.1691C250.376 98.1042 251.137 98.7197 251.899 98.5185C253.564 98.0766 255.67 96.6838 255.67 96.6838C255.083 97.3427 254.009 98.2778 253.043 98.8301C252.277 99.2681 252.731 99.9704 253.595 99.8007C254.755 99.5679 256.396 98.5185 256.984 97.8596C256.984 97.8596 256.187 99.2799 255.599 99.9348C255.012 100.59 256.049 101.284 256.637 100.625C257.383 99.7928 257.17 99.6626 258.977 97.3112C265.337 89.0338 275.106 69.8868 272.644 60.6191C270.063 50.8977 269.223 73.1812 257.604 88.8286H257.6Z" fill="white"/>
<path d="M255.126 97.0234C255.126 97.0234 253.867 98.0374 253.035 98.8344C252.4 99.4459 252.723 99.9746 253.587 99.8049C254.747 99.5722 256.389 98.5227 256.976 97.8638" stroke="#0B539B" stroke-width="0.75" stroke-linecap="round" stroke-linejoin="round"/>
<path d="M255.663 96.6875C255.663 96.6875 253.556 98.0802 251.891 98.5221C251.13 98.7233 250.368 98.1078 251.442 97.1728C251.824 96.8374 253.702 95.4092 253.702 95.4092" stroke="#0B539B" stroke-width="0.75" stroke-linecap="round" stroke-linejoin="round"/>
<path d="M254.451 95.1293C253.607 95.5002 251.331 95.8632 250.415 95.9815C249.066 96.1591 248.817 94.9281 250.068 94.2535C252.554 92.9081 252.968 92.9396 252.984 92.8844C252.968 92.9396 251.114 93.492 250.175 93.2592C249.472 93.0856 249.409 92.1269 250.084 91.8744C251.402 91.3812 251.816 90.529 257.016 89.3572C257.264 89.302 257.434 89.0455 257.592 88.8325C269.211 73.1851 270.052 50.9016 272.632 60.623C275.094 69.8907 265.325 89.0377 258.965 97.3151C257.158 99.6665 257.371 99.7967 256.625 100.629C256.037 101.288 255 100.594 255.588 99.9387C255.797 99.706 256.586 98.2265 256.586 98.2265" stroke="#0B539B" stroke-width="0.75" stroke-linecap="round" stroke-linejoin="round"/>
<path d="M268.111 58.9581C266.738 62.0118 266.308 63.6294 263.128 71.3269C263.073 71.4571 272.708 74.6765 272.763 74.5345C274.096 71.0625 274.818 63.732 273.201 59.1711C272.372 56.8315 269.129 56.6934 268.111 58.9541V58.9581Z" fill="#6EB7FF"/>
<path d="M273.201 59.1711C272.372 56.8315 269.129 56.6934 268.111 58.9541C266.738 62.0079 265.247 66.62 263.128 71.3229" stroke="#0B539B" stroke-width="0.75" stroke-miterlimit="10"/>
<path d="M272.767 74.5148C272.782 74.3846 273.165 74.4871 273.216 74.6331Z" fill="#0B539B"/>
<path d="M273.216 74.6378C273.986 71.5407 274.38 68.4593 274.191 65.5674C274.171 68.4554 273.631 71.4934 272.767 74.5195" fill="#0B539B"/>
<path d="M229.292 62.5883C226.751 63.0972 222.257 58.6113 220.142 52.1685C215.06 36.6671 204.132 35.9017 200.32 41.7488L205.658 52.6775C210.997 77.5847 231.836 62.0793 229.295 62.5883H229.292Z" fill="#6EB7FF"/>
<path d="M205.659 52.6728C206.221 52.6728 206.676 51.991 206.676 51.1499C206.676 50.3088 206.221 49.627 205.659 49.627C205.096 49.627 204.641 50.3088 204.641 51.1499C204.641 51.991 205.096 52.6728 205.659 52.6728Z" fill="white"/>
<path d="M193.885 45.8715C195.25 47.8639 197.522 49.1896 200.123 49.2448C202.723 49.3 205.22 47.9704 206.648 45.907C205.583 43.5043 203.2 41.8077 200.399 41.7486C197.597 41.6894 194.997 43.3938 193.881 45.8715H193.885Z" fill="#6EB7FF"/>
<path d="M275.283 46.9877C275.283 46.9877 277.516 45.808 278.696 48.0371C278.696 48.0371 276.921 49.4338 275.283 46.9877Z" fill="white"/>
<path d="M282.122 42.2818C279.754 39.1492 275.296 38.5297 272.163 40.893C268.431 38.1865 263.093 41.7452 263.093 41.7452L270.972 55.7237C274.783 54.4533 276.783 51.009 276.053 47.0833C277.213 45.6472 280.37 45.734 281.53 47.2688C282.69 48.8035 282.015 50.9932 282.015 50.9932C283.988 48.5155 284.118 44.9252 282.118 42.2818H282.122Z" fill="#6EB7FF"/>
<path d="M268.429 52.6728C268.991 52.6728 269.447 51.991 269.447 51.1499C269.447 50.3088 268.991 49.627 268.429 49.627C267.867 49.627 267.411 50.3088 267.411 51.1499C267.411 51.991 267.867 52.6728 268.429 52.6728Z" fill="white"/>
<path d="M256.661 45.8715C258.026 47.8639 260.299 49.1896 262.899 49.2448C265.499 49.3 267.996 47.9704 269.425 45.907C268.359 43.5043 265.976 41.8077 263.175 41.7486C260.374 41.6894 257.774 43.3938 256.657 45.8715H256.661Z" fill="#6EB7FF"/>
<path d="M276.056 47.0825C274.786 38.6946 270.975 34.8833 267.416 31.5811C267.416 31.5811 270.497 37.223 263.096 41.7483L276.056 47.0864V47.0825Z" fill="white"/>
<path d="M275.637 46.7354C275.637 46.7354 278.482 47.5402 277.677 50.3848C277.677 50.3848 275.046 50.1323 275.637 46.7354Z" fill="white"/>
<path d="M182.904 122.973L180.048 123.512L181.133 126.209L178.504 124.967L177.798 127.787L176.404 125.235L174.173 127.101L174.545 124.218L171.646 124.416L173.639 122.302L171.177 120.758L174.033 120.219L172.948 117.522L175.575 118.766L176.283 115.946L177.677 118.498L179.908 116.63L179.535 119.513L182.435 119.315L180.442 121.429L182.904 122.973Z" fill="#1AE3B3"/>
<path d="M66.7464 24.2714L64.6038 24.6757L65.4177 26.6987L63.4472 25.7651L62.9161 27.8806L61.8702 25.9663L60.197 27.3676L60.4762 25.205L58.3009 25.3536L59.7964 23.7675L57.9492 22.6091L60.0919 22.2049L59.278 20.1819L61.2502 21.1155L61.7795 19L62.8255 20.9142L64.4986 19.513L64.2195 21.6756L66.3947 21.5269L64.8992 23.1131L66.7464 24.2714Z" fill="#FACC15"/>
</svg>
