<svg width="350" height="406" viewBox="0 0 350 406" fill="none" xmlns="http://www.w3.org/2000/svg">
<path d="M204.283 343.754L220.423 344.561L300.285 208.069L295.134 195.246L307.427 195.858L315.86 181.45L319 176.084L312.585 172.157L309.445 177.523L306.061 175.451L309.201 170.086L302.786 166.159L299.646 171.525L296.269 169.46L299.408 164.088L292.993 160.161L289.853 165.533L286.469 163.462L289.609 158.096L283.194 154.169L280.054 159.535L276.67 157.464L279.81 152.098L273.401 148.171L270.255 153.537L266.877 151.473L270.017 146.1L263.602 142.173L260.462 147.546L257.078 145.475L260.218 140.109L253.803 136.182L250.663 141.548L247.286 139.476L250.425 134.111L244.01 130.184L240.871 135.549L237.486 133.478L240.626 128.113L234.211 124.186L231.071 129.558L227.687 127.487L230.833 122.114L224.418 118.194L221.279 123.56L217.895 121.489L221.034 116.123L214.619 112.196L211.479 117.562L203.033 131.998L209.346 142.736L195.924 144.147L115.097 282.292L121.403 293.031L107.989 294.442L100.86 306.626L97.7207 311.991L104.136 315.918L107.275 310.546L110.653 312.617L107.513 317.989L113.928 321.909L117.068 316.544L120.452 318.615L117.312 323.981L123.728 327.907L126.867 322.542L130.251 324.613L127.105 329.979L133.52 333.906L136.66 328.533L140.044 330.604L136.904 335.977L143.319 339.897L146.459 334.531L149.843 336.602L146.704 341.968L153.112 345.895L156.258 340.529L159.636 342.601L156.496 347.966L162.911 351.893L166.051 346.528L169.435 348.592L166.295 353.964L172.71 357.891L175.85 352.519L179.227 354.59L176.088 359.956L182.503 363.883L185.643 358.517L189.027 360.588L185.887 365.954L192.302 369.881L195.442 364.515L198.826 366.579L195.68 371.952L202.095 375.879L205.241 370.506L207.334 366.927L211.045 360.588L204.283 343.754Z" fill="#F9E8B4"/>
<path d="M212.546 126.573L208.339 133.863L212.295 136.251L216.502 128.961L212.546 126.573Z" fill="#F9F3E4"/>
<path d="M219.667 130.873L215.46 138.163L219.416 140.551L223.623 133.261L219.667 130.873Z" fill="#F9F3E4"/>
<path d="M226.791 135.17L222.584 142.46L226.54 144.848L230.747 137.558L226.791 135.17Z" fill="#F9F3E4"/>
<path d="M233.918 139.48L229.711 146.771L233.667 149.159L237.874 141.868L233.918 139.48Z" fill="#F9F3E4"/>
<path d="M241.041 143.777L236.834 151.067L240.79 153.456L244.997 146.165L241.041 143.777Z" fill="#F9F3E4"/>
<path d="M248.169 148.08L243.962 155.37L247.918 157.758L252.125 150.468L248.169 148.08Z" fill="#F9F3E4"/>
<path d="M255.299 152.377L251.092 159.667L255.048 162.055L259.255 154.765L255.299 152.377Z" fill="#F9F3E4"/>
<path d="M262.419 156.686L258.212 163.977L262.168 166.365L266.375 159.074L262.419 156.686Z" fill="#F9F3E4"/>
<path d="M269.55 160.984L265.343 168.274L269.299 170.663L273.506 163.372L269.55 160.984Z" fill="#F9F3E4"/>
<path d="M276.67 165.287L272.463 172.577L276.419 174.965L280.626 167.675L276.67 165.287Z" fill="#F9F3E4"/>
<path d="M283.795 169.58L279.588 176.87L283.544 179.258L287.751 171.968L283.795 169.58Z" fill="#F9F3E4"/>
<path d="M291.144 173.835L286.937 181.125L290.893 183.513L295.1 176.223L291.144 173.835Z" fill="#F9F3E4"/>
<path d="M298.264 178.137L294.057 185.428L298.013 187.816L302.22 180.526L298.264 178.137Z" fill="#F9F3E4"/>
<path d="M305.395 182.442L301.188 189.732L305.144 192.121L309.351 184.83L305.395 182.442Z" fill="#F9F3E4"/>
<path d="M164.311 233.605L177.807 224.507L163.482 66.1149L151.923 58.8796L162.198 51.9501L160.689 35.2275L160.125 29L152.677 29.7089L153.241 35.9365L149.32 36.3048L148.756 30.0773L141.308 30.7793L141.872 37.0138L137.951 37.3821L137.387 31.1546L129.946 31.8566L130.503 38.0841L126.582 38.4594L126.018 32.2319L118.577 32.9339L119.141 39.1614L115.213 39.5367L114.649 33.3023L107.208 34.0112L107.772 40.2387L103.844 40.6071L103.28 34.3796L95.8386 35.0816L96.4027 41.316L92.4748 41.6844L91.9108 35.4569L84.4695 36.1589L85.0336 42.3864L81.1125 42.7617L80.5485 36.5342L73.1005 37.2362L73.6645 43.4637L69.7434 43.839L69.1794 37.6045L61.7314 38.3135L62.2954 44.541L58.3743 44.9094L57.8103 38.6818L50.3691 39.3908L50.9263 45.6183L47.0052 45.9867L46.4412 39.7591L39 40.4611L39.564 46.6887L41.0795 63.439L52.367 68.2973L42.3502 77.5413L56.8521 237.844L68.1464 242.703L58.1297 251.947L59.4073 266.084L59.9713 272.311L67.4125 271.602L66.8485 265.375L70.7764 265.006L71.3404 271.234L78.7816 270.532L78.2176 264.304L82.1454 263.929L82.7027 270.156L90.1507 269.454L89.5866 263.227L93.5077 262.852L94.0718 269.086L101.52 268.377L100.956 262.15L104.877 261.781L105.441 268.009L112.889 267.3L112.325 261.072L116.246 260.704L116.81 266.932L124.251 266.23L123.687 259.995L127.615 259.627L128.179 265.854L135.62 265.152L135.056 258.925L138.984 258.549L139.548 264.777L146.989 264.075L146.425 257.847L150.353 257.479L150.917 263.707L158.358 262.998L157.794 256.77L161.722 256.402L162.279 262.629L169.727 261.927L169.163 255.693L173.085 255.324L173.649 261.552L181.097 260.85L180.533 254.622L180.152 250.466L179.486 243.106L164.311 233.605Z" fill="#B9E7FC"/>
<path d="M52.2178 82.2324L64.4703 230.518L170.516 220.621C170.516 220.621 160.071 145.432 128.213 117.227C92.876 85.9509 52.2246 82.2324 52.2246 82.2324H52.2178Z" fill="#D9F3FC"/>
<path d="M48.2842 51.2056L46.1201 51.4238L46.8635 59.1361L49.0276 58.9179L48.2842 51.2056Z" fill="#D9F3FC"/>
<path d="M52.9805 50.7359L50.8164 50.9541L51.5598 58.6664L53.7239 58.4482L52.9805 50.7359Z" fill="#D9F3FC"/>
<path d="M57.67 50.2613L55.5059 50.4795L56.2492 58.1918L58.4133 57.9736L57.67 50.2613Z" fill="#D9F3FC"/>
<path d="M62.3643 49.7925L60.2002 50.0107L60.9435 57.723L63.1077 57.5048L62.3643 49.7925Z" fill="#D9F3FC"/>
<path d="M67.0538 49.317L64.8896 49.5352L65.633 57.2474L67.7971 57.0292L67.0538 49.317Z" fill="#D9F3FC"/>
<path d="M71.7422 48.8492L69.5781 49.0674L70.3215 56.7796L72.4856 56.5614L71.7422 48.8492Z" fill="#D9F3FC"/>
<path d="M76.4385 48.3736L74.2744 48.5918L75.0178 56.3041L77.1819 56.0859L76.4385 48.3736Z" fill="#D9F3FC"/>
<path d="M81.127 47.8912L78.9629 48.1094L79.7062 55.8216L81.8703 55.6034L81.127 47.8912Z" fill="#D9F3FC"/>
<path d="M85.8233 47.4224L83.6592 47.6406L84.4025 55.3529L86.5666 55.1347L85.8233 47.4224Z" fill="#D9F3FC"/>
<path d="M90.5118 46.9468L88.3477 47.165L89.091 54.8773L91.2551 54.6591L90.5118 46.9468Z" fill="#D9F3FC"/>
<path d="M95.2012 46.4791L93.0371 46.6973L93.7805 54.4095L95.9446 54.1913L95.2012 46.4791Z" fill="#D9F3FC"/>
<path d="M98.9512 46.1041L96.7871 46.3223L97.5305 54.0345L99.6946 53.8163L98.9512 46.1041Z" fill="#D9F3FC"/>
<path d="M103.641 45.6295L101.477 45.8477L102.22 53.5599L104.384 53.3417L103.641 45.6295Z" fill="#D9F3FC"/>
<path d="M108.337 45.1539L106.173 45.3721L106.916 53.0843L109.08 52.8661L108.337 45.1539Z" fill="#D9F3FC"/>
<path d="M113.026 44.6851L110.862 44.9033L111.606 52.6156L113.77 52.3974L113.026 44.6851Z" fill="#D9F3FC"/>
<path d="M117.721 44.2027L115.557 44.4209L116.3 52.1332L118.464 51.915L117.721 44.2027Z" fill="#D9F3FC"/>
<path d="M122.409 43.734L120.245 43.9521L120.988 51.6644L123.153 51.4462L122.409 43.734Z" fill="#D9F3FC"/>
<path d="M127.099 43.2593L124.935 43.4775L125.678 51.1898L127.842 50.9716L127.099 43.2593Z" fill="#D9F3FC"/>
<path d="M131.795 42.7896L129.631 43.0078L130.374 50.7201L132.538 50.5019L131.795 42.7896Z" fill="#D9F3FC"/>
<path d="M136.483 42.315L134.319 42.5332L135.063 50.2455L137.227 50.0273L136.483 42.315Z" fill="#D9F3FC"/>
<path d="M141.181 41.8394L139.017 42.0576L139.76 49.7699L141.924 49.5517L141.181 41.8394Z" fill="#D9F3FC"/>
<path d="M145.868 41.3707L143.704 41.5889L144.447 49.3011L146.612 49.0829L145.868 41.3707Z" fill="#D9F3FC"/>
<path d="M150.799 40.8785L148.635 41.0967L149.378 48.8089L151.542 48.5907L150.799 40.8785Z" fill="#D9F3FC"/>
<path d="M155.487 40.3961L153.323 40.6143L154.067 48.3265L156.231 48.1083L155.487 40.3961Z" fill="#D9F3FC"/>
<path d="M66.4122 253.439L64.248 253.657L64.9914 261.369L67.1555 261.151L66.4122 253.439Z" fill="#D9F3FC"/>
<path d="M71.1006 252.964L68.9365 253.183L69.6799 260.895L71.844 260.677L71.1006 252.964Z" fill="#D9F3FC"/>
<path d="M75.7969 252.488L73.6328 252.706L74.3762 260.418L76.5403 260.2L75.7969 252.488Z" fill="#D9F3FC"/>
<path d="M80.4864 252.02L78.3223 252.238L79.0656 259.951L81.2297 259.732L80.4864 252.02Z" fill="#D9F3FC"/>
<path d="M85.1758 251.545L83.0117 251.763L83.7551 259.475L85.9192 259.257L85.1758 251.545Z" fill="#D9F3FC"/>
<path d="M89.8702 251.076L87.7061 251.294L88.4494 259.006L90.6135 258.788L89.8702 251.076Z" fill="#D9F3FC"/>
<path d="M94.5596 250.601L92.3955 250.819L93.1389 258.532L95.303 258.313L94.5596 250.601Z" fill="#D9F3FC"/>
<path d="M99.2559 250.132L97.0918 250.351L97.8351 258.063L99.9993 257.845L99.2559 250.132Z" fill="#D9F3FC"/>
<path d="M103.944 249.65L101.78 249.868L102.524 257.58L104.688 257.362L103.944 249.65Z" fill="#D9F3FC"/>
<path d="M108.633 249.174L106.469 249.393L107.212 257.105L109.376 256.887L108.633 249.174Z" fill="#D9F3FC"/>
<path d="M113.328 248.706L111.164 248.924L111.907 256.636L114.072 256.418L113.328 248.706Z" fill="#D9F3FC"/>
<path d="M117.073 248.332L114.909 248.55L115.653 256.262L117.817 256.044L117.073 248.332Z" fill="#D9F3FC"/>
<path d="M121.769 247.856L119.604 248.074L120.348 255.786L122.512 255.568L121.769 247.856Z" fill="#D9F3FC"/>
<path d="M126.457 247.388L124.293 247.606L125.036 255.319L127.2 255.101L126.457 247.388Z" fill="#D9F3FC"/>
<path d="M131.153 246.912L128.989 247.13L129.733 254.842L131.897 254.624L131.153 246.912Z" fill="#D9F3FC"/>
<path d="M135.843 246.437L133.679 246.655L134.422 254.368L136.586 254.149L135.843 246.437Z" fill="#D9F3FC"/>
<path d="M140.532 245.968L138.368 246.187L139.112 253.899L141.276 253.681L140.532 245.968Z" fill="#D9F3FC"/>
<path d="M145.227 245.486L143.062 245.704L143.806 253.416L145.97 253.198L145.227 245.486Z" fill="#D9F3FC"/>
<path d="M149.916 245.018L147.752 245.236L148.495 252.949L150.659 252.73L149.916 245.018Z" fill="#D9F3FC"/>
<path d="M154.611 244.543L152.447 244.761L153.191 252.473L155.355 252.255L154.611 244.543Z" fill="#D9F3FC"/>
<path d="M159.301 244.074L157.137 244.292L157.88 252.004L160.044 251.786L159.301 244.074Z" fill="#D9F3FC"/>
<path d="M163.989 243.599L161.825 243.817L162.569 251.53L164.733 251.311L163.989 243.599Z" fill="#D9F3FC"/>
<path d="M168.913 243.107L166.749 243.325L167.492 251.037L169.656 250.819L168.913 243.107Z" fill="#D9F3FC"/>
<path d="M173.603 242.631L171.438 242.85L172.182 250.562L174.346 250.344L173.603 242.631Z" fill="#D9F3FC"/>
<path d="M68.4453 326.928C69.1928 322.911 72.9848 320.276 76.9127 321.041C79.5969 321.562 81.656 323.543 82.4443 326.031C82.6074 326.546 83.2462 326.671 83.5792 326.254C85.2101 324.238 87.8264 323.168 90.5175 323.696C93.4464 324.266 95.6278 326.566 96.2326 329.367C96.3549 329.917 97.0821 330.062 97.3879 329.59C98.9577 327.213 101.812 325.892 104.741 326.469C108.669 327.234 111.244 331.112 110.497 335.129L110.435 335.47C114.363 314.355 134.288 300.496 154.94 304.513C175.374 308.496 188.857 328.499 185.323 349.384C185.289 349.572 185.344 349.753 185.446 349.892C185.649 346.722 187.545 343.782 190.603 342.462C194.919 340.599 199.9 342.663 201.721 347.077C202.102 348.001 202.306 348.954 202.367 349.906C203.257 348.418 204.596 347.181 206.288 346.451C210.603 344.589 215.584 346.653 217.405 351.066C218.071 352.686 218.221 354.389 217.936 355.994C217.99 355.918 218.024 355.834 218.044 355.737L227.973 302.4L227.864 302.379L269.997 76.0478C269.249 80.0651 265.457 82.6993 261.529 81.9348C258.845 81.4135 256.786 79.4327 255.998 76.9444C255.835 76.4301 255.196 76.305 254.863 76.722C253.232 78.7376 250.616 79.808 247.925 79.2797C244.996 78.7098 242.814 76.4092 242.209 73.6083C242.087 73.0592 241.36 72.9132 241.054 73.3858C239.484 75.7629 236.63 77.0834 233.701 76.5066C229.773 75.742 227.198 71.8637 227.945 67.8464L228.007 67.5058C224.079 88.621 204.154 102.48 183.502 98.4627C163.068 94.4802 149.585 74.4771 153.119 53.5912C153.153 53.4036 153.098 53.2229 152.996 53.0839C152.793 56.2532 150.897 59.1932 147.839 60.5138C143.523 62.3765 138.542 60.3122 136.721 55.8988C136.34 54.9744 136.137 54.0222 136.075 53.07C135.185 54.5573 133.846 55.7945 132.154 56.5243C127.839 58.387 122.858 56.3227 121.037 51.9092C120.371 50.2898 120.221 48.587 120.507 46.9814C120.452 47.0579 120.418 47.1413 120.398 47.2386L77.6398 277.226L77.6942 277.24L68.4453 326.928Z" fill="#F0FAFC"/>
<mask id="mask0_1315_855" style="mask-type:luminance" maskUnits="userSpaceOnUse" x="68" y="46" width="202" height="310">
<path d="M68.4463 326.928C69.1938 322.911 72.9858 320.276 76.9136 321.041C79.5979 321.562 81.657 323.543 82.4453 326.031C82.6084 326.546 83.2472 326.671 83.5802 326.254C85.2111 324.238 87.8274 323.168 90.5185 323.696C93.4474 324.266 95.6288 326.566 96.2336 329.367C96.3559 329.917 97.0831 330.062 97.3889 329.59C98.9587 327.213 101.813 325.892 104.742 326.469C108.67 327.234 111.245 331.112 110.498 335.129L110.436 335.47C114.364 314.355 134.289 300.496 154.941 304.513C175.375 308.496 188.858 328.499 185.324 349.384C185.29 349.572 185.345 349.753 185.447 349.892C185.65 346.722 187.546 343.782 190.604 342.462C194.92 340.599 199.901 342.663 201.722 347.077C202.103 348.001 202.307 348.954 202.368 349.906C203.258 348.418 204.597 347.181 206.289 346.451C210.604 344.589 215.585 346.653 217.406 351.066C218.072 352.686 218.222 354.389 217.936 355.994C217.991 355.918 218.025 355.834 218.045 355.737L227.974 302.4L227.865 302.379L269.998 76.0478C269.25 80.0651 265.458 82.6993 261.53 81.9348C258.846 81.4135 256.787 79.4327 255.999 76.9444C255.836 76.4301 255.197 76.305 254.864 76.722C253.233 78.7376 250.617 79.808 247.926 79.2797C244.997 78.7098 242.815 76.4092 242.21 73.6083C242.088 73.0592 241.361 72.9132 241.055 73.3858C239.485 75.7629 236.631 77.0834 233.702 76.5066C229.774 75.742 227.199 71.8637 227.946 67.8464L228.008 67.5058C224.08 88.621 204.155 102.48 183.503 98.4627C163.069 94.4802 149.586 74.4771 153.12 53.5912C153.154 53.4036 153.099 53.2229 152.997 53.0839C152.794 56.2532 150.898 59.1932 147.84 60.5138C143.524 62.3765 138.543 60.3122 136.722 55.8988C136.341 54.9744 136.138 54.0222 136.076 53.07C135.186 54.5573 133.847 55.7945 132.155 56.5243C127.84 58.387 122.859 56.3227 121.038 51.9092C120.372 50.2898 120.222 48.587 120.508 46.9814C120.453 47.0579 120.419 47.1413 120.399 47.2386L77.6408 277.226L77.6951 277.24L68.4463 326.928Z" fill="white"/>
</mask>
<g mask="url(#mask0_1315_855)">
<path d="M218.249 149.896C171.522 149.896 134.323 113.754 133.643 63.3642C133.643 63.0167 88.792 43.5557 88.792 43.5557V338.251L223.345 322.953C223.23 322.953 223.121 322.953 223.006 322.953C176.279 322.953 138.4 284.212 138.4 236.421C138.4 188.63 171.862 149.889 218.588 149.889" fill="#D6FAFC"/>
</g>
<mask id="mask1_1315_855" style="mask-type:luminance" maskUnits="userSpaceOnUse" x="68" y="46" width="202" height="310">
<path d="M68.4463 326.928C69.1938 322.911 72.9858 320.276 76.9136 321.041C79.5979 321.562 81.657 323.543 82.4453 326.031C82.6084 326.546 83.2472 326.671 83.5802 326.254C85.2111 324.238 87.8274 323.168 90.5185 323.696C93.4474 324.266 95.6288 326.566 96.2336 329.367C96.3559 329.917 97.0831 330.062 97.3889 329.59C98.9587 327.213 101.813 325.892 104.742 326.469C108.67 327.234 111.245 331.112 110.498 335.129L110.436 335.47C114.364 314.355 134.289 300.496 154.941 304.513C175.375 308.496 188.858 328.499 185.324 349.384C185.29 349.572 185.345 349.753 185.447 349.892C185.65 346.722 187.546 343.782 190.604 342.462C194.92 340.599 199.901 342.663 201.722 347.077C202.103 348.001 202.307 348.954 202.368 349.906C203.258 348.418 204.597 347.181 206.289 346.451C210.604 344.589 215.585 346.653 217.406 351.066C218.072 352.686 218.222 354.389 217.936 355.994C217.991 355.918 218.025 355.834 218.045 355.737L227.974 302.4L227.865 302.379L269.998 76.0478C269.25 80.0651 265.458 82.6993 261.53 81.9348C258.846 81.4135 256.787 79.4327 255.999 76.9444C255.836 76.4301 255.197 76.305 254.864 76.722C253.233 78.7376 250.617 79.808 247.926 79.2797C244.997 78.7098 242.815 76.4092 242.21 73.6083C242.088 73.0592 241.361 72.9132 241.055 73.3858C239.485 75.7629 236.631 77.0834 233.702 76.5066C229.774 75.742 227.199 71.8637 227.946 67.8464L228.008 67.5058C224.08 88.621 204.155 102.48 183.503 98.4627C163.069 94.4802 149.586 74.4771 153.12 53.5912C153.154 53.4036 153.099 53.2229 152.997 53.0839C152.794 56.2532 150.898 59.1932 147.84 60.5138C143.524 62.3765 138.543 60.3122 136.722 55.8988C136.341 54.9744 136.138 54.0222 136.076 53.07C135.186 54.5573 133.847 55.7945 132.155 56.5243C127.84 58.387 122.859 56.3227 121.038 51.9092C120.372 50.2898 120.222 48.587 120.508 46.9814C120.453 47.0579 120.419 47.1413 120.399 47.2386L77.6408 277.226L77.6951 277.24L68.4463 326.928Z" fill="white"/>
</mask>
<g mask="url(#mask1_1315_855)">
<path d="M274.448 139.942L273.279 138.19L287.795 59.6444L113.514 25.9561L99.0598 104.168L96.96 105.635L101.099 111.828L107.153 107.602L107.065 107.463L107.779 107.602L107.649 107.699L111.781 113.892L117.836 109.666L117.748 109.527L118.461 109.666L118.332 109.763L122.464 115.963L128.22 111.946L132.148 117.833L137.904 113.815L141.831 119.702L147.587 115.685L151.515 121.579L157.271 117.562L161.199 123.449L166.955 119.431L170.883 125.318L176.639 121.308L180.567 127.195L186.329 123.178L190.25 129.065L196.013 125.047L199.934 130.934L205.697 126.924L209.625 132.811L215.381 128.793L219.308 134.68L225.064 130.663L228.992 136.557L234.748 132.54L238.676 138.427L244.432 134.409L248.36 140.296L254.415 136.071L254.326 135.932L254.707 136.008L254.571 136.105L258.709 142.298L264.465 138.281L268.393 144.175L274.448 139.942Z" fill="#B9E7FC"/>
<path d="M70.3762 250.237L71.545 251.996L56.7441 330.486L230.902 364.828L245.642 286.671L247.742 285.211L243.631 279.005L237.555 283.203L237.644 283.342L236.93 283.203L237.066 283.105L232.955 276.899L226.879 281.097L226.968 281.236L226.254 281.097L226.39 281.006L222.279 274.793L216.509 278.782L212.602 272.881L206.826 276.878L202.925 270.97L197.149 274.967L193.248 269.066L187.472 273.062L183.571 267.154L177.795 271.151L173.887 265.25L168.118 269.239L164.21 263.339L158.441 267.335L154.533 261.434L148.764 265.424L144.856 259.523L139.087 263.519L135.179 257.612L129.41 261.608L125.502 255.707L119.733 259.704L115.825 253.796L110.056 257.792L106.148 251.891L100.379 255.881L96.4714 249.98L90.3961 254.185L90.4844 254.324L90.1039 254.248L90.2398 254.157L86.1284 247.944L80.3589 251.933L76.4515 246.032L70.3762 250.237Z" fill="#B9E7FC"/>
</g>
<path d="M133.562 63.3973C136.389 66.379 140.317 68.1444 144.544 68.1444C145.169 68.1444 145.787 68.1027 146.399 68.0263C147.493 74.5179 149.96 80.7454 153.731 86.3126C160.473 96.2795 170.591 103.014 182.232 105.28C185.012 105.822 187.852 106.1 190.666 106.1C207.247 106.1 222.061 96.7521 229.808 82.5456C230.644 82.8861 231.521 83.1502 232.432 83.3309C233.301 83.4978 234.185 83.5881 235.068 83.5881C236.754 83.5881 238.391 83.2823 239.927 82.6985C241.789 84.4013 244.1 85.6037 246.662 86.0972C247.531 86.264 248.415 86.3543 249.291 86.3543C250.848 86.3543 252.37 86.0902 253.811 85.5898C255.632 87.1675 257.84 88.2726 260.266 88.7453C260.409 88.7731 260.559 88.8009 260.708 88.8217L221.198 301.058C221.124 301.468 221.083 301.885 221.076 302.302L214.151 339.5C212.704 339.041 211.168 338.791 209.591 338.791C208.015 338.791 206.404 339.048 204.889 339.556C202.062 336.574 198.134 334.809 193.907 334.809C193.282 334.809 192.664 334.85 192.052 334.927C190.958 328.435 188.491 322.208 184.719 316.64C177.978 306.674 167.859 299.939 156.219 297.673C153.439 297.131 150.599 296.853 147.785 296.853C131.204 296.853 116.389 306.201 108.642 320.408C107.813 320.067 106.937 319.796 106.019 319.622C105.149 319.455 104.266 319.365 103.383 319.365C101.697 319.365 100.06 319.671 98.5237 320.255C96.6617 318.552 94.3512 317.349 91.7892 316.856C90.9194 316.689 90.036 316.599 89.1593 316.599C87.6031 316.599 86.0809 316.863 84.6402 317.363C82.819 315.786 80.6104 314.68 78.1844 314.208C78.0417 314.18 77.8922 314.152 77.7427 314.131L84.3684 278.539C84.4228 278.247 84.4567 277.948 84.4771 277.656L124.3 63.4529C125.747 63.9116 127.283 64.1619 128.853 64.1619C130.422 64.1619 132.04 63.9047 133.555 63.3973M120.501 46.9736C120.446 47.0501 120.412 47.1335 120.392 47.2308L77.6339 277.218L77.6883 277.232L68.4395 326.92C69.0986 323.368 72.1363 320.901 75.5409 320.901C75.9894 320.901 76.4447 320.943 76.9 321.033C79.5843 321.554 81.6434 323.535 82.4316 326.023C82.5268 326.329 82.7918 326.496 83.0568 326.496C83.2403 326.496 83.4306 326.413 83.5665 326.246C84.9188 324.578 86.9507 323.556 89.1389 323.556C89.5874 323.556 90.0428 323.598 90.4981 323.688C93.427 324.258 95.6084 326.559 96.2132 329.36C96.2811 329.686 96.5665 329.867 96.8452 329.867C97.0422 329.867 97.2393 329.777 97.3684 329.582C98.6936 327.58 100.936 326.329 103.362 326.329C103.811 326.329 104.266 326.371 104.721 326.461C108.649 327.226 111.225 331.104 110.477 335.121L110.423 335.427C113.909 316.786 129.858 303.81 147.758 303.81C150.123 303.81 152.515 304.033 154.921 304.505C175.355 308.488 188.838 328.491 185.304 349.377C185.27 349.564 185.324 349.745 185.426 349.884C185.63 346.715 187.526 343.775 190.584 342.454C191.665 341.988 192.779 341.766 193.88 341.766C197.189 341.766 200.329 343.754 201.702 347.069C202.082 347.994 202.286 348.946 202.347 349.898C203.238 348.411 204.576 347.173 206.268 346.444C207.349 345.978 208.463 345.756 209.564 345.756C212.874 345.756 216.013 347.743 217.386 351.059C218.052 352.678 218.201 354.381 217.916 355.986C217.97 355.91 218.004 355.827 218.025 355.729L227.953 302.392L227.844 302.371L269.977 76.04C269.318 79.5916 266.281 82.059 262.876 82.059C262.427 82.059 261.972 82.0173 261.517 81.927C258.833 81.4057 256.773 79.4248 255.985 76.9366C255.89 76.6308 255.625 76.464 255.36 76.464C255.176 76.464 254.986 76.5474 254.85 76.7142C253.498 78.3823 251.466 79.404 249.278 79.404C248.829 79.404 248.374 79.3623 247.919 79.2719C244.99 78.702 242.808 76.4014 242.204 73.6004C242.136 73.2738 241.85 73.0931 241.572 73.0931C241.375 73.0931 241.177 73.1834 241.048 73.378C239.723 75.3797 237.481 76.6308 235.061 76.6308C234.613 76.6308 234.158 76.5891 233.702 76.4987C229.774 75.7342 227.199 71.8559 227.946 67.8386L228.008 67.498C224.535 86.1528 208.572 99.15 190.666 99.15C188.301 99.15 185.909 98.9275 183.503 98.4549C163.069 94.4724 149.586 74.4692 153.12 53.5834C153.154 53.3958 153.099 53.2151 152.997 53.076C152.794 56.2454 150.898 59.1854 147.84 60.506C146.759 60.9716 145.645 61.1941 144.544 61.1941C141.234 61.1941 138.095 59.2063 136.722 55.8909C136.341 54.9665 136.137 54.0143 136.076 53.0621C135.186 54.5495 133.847 55.7867 132.155 56.5165C131.075 56.9821 129.96 57.2046 128.859 57.2046C125.55 57.2046 122.41 55.2168 121.038 51.9014C120.372 50.282 120.222 48.5792 120.508 46.9736H120.501ZM110.436 335.42C110.436 335.42 110.436 335.441 110.436 335.455V335.42Z" fill="white"/>
<path d="M121.798 58.3097C123.796 59.8179 126.256 60.6797 128.858 60.6797C130.449 60.6797 132.005 60.3531 133.479 59.7206C133.86 59.5538 134.234 59.3731 134.594 59.1715C136.762 62.5702 140.479 64.6762 144.543 64.6762C146.133 64.6762 147.689 64.3495 149.164 63.717C149.205 63.7031 149.245 63.6823 149.286 63.6614C149.857 71.0149 152.317 78.1251 156.523 84.3457C162.755 93.5549 172.106 99.7824 182.863 101.874C185.439 102.375 188.062 102.632 190.658 102.632C207.178 102.632 221.795 92.5958 228.38 77.7151C229.699 78.7993 231.282 79.5778 233.056 79.9253C233.715 80.0504 234.388 80.1199 235.054 80.1199C237.086 80.1199 239.029 79.5291 240.701 78.4587C242.264 80.6273 244.588 82.1702 247.279 82.6985C247.938 82.8236 248.611 82.8931 249.277 82.8931C251.159 82.8931 252.974 82.3857 254.564 81.4543C256.127 83.4491 258.349 84.86 260.884 85.3535C261.543 85.4786 262.216 85.5481 262.882 85.5481C263.548 85.5481 264.173 85.4856 264.791 85.3743L224.514 301.739C224.459 302.031 224.439 302.33 224.459 302.622L216.631 344.671C214.633 343.163 212.173 342.301 209.57 342.301C207.98 342.301 206.424 342.628 204.949 343.26C204.568 343.427 204.195 343.608 203.835 343.809C201.667 340.411 197.95 338.305 193.886 338.305C192.296 338.305 190.739 338.631 189.265 339.264C189.224 339.278 189.183 339.299 189.142 339.319C188.572 331.966 186.112 324.856 181.905 318.635C175.674 309.426 166.323 303.198 155.565 301.106C152.99 300.606 150.367 300.349 147.771 300.349C131.257 300.349 116.633 310.392 110.048 325.273C108.73 324.189 107.146 323.41 105.373 323.063C104.714 322.937 104.041 322.868 103.375 322.868C101.343 322.868 99.3994 323.459 97.7277 324.529C96.1647 322.361 93.8406 320.818 91.1495 320.289C90.4903 320.164 89.8176 320.095 89.1516 320.095C87.2692 320.095 85.4548 320.602 83.8646 321.534C82.3016 319.539 80.0794 318.128 77.5447 317.634C76.8855 317.509 76.2127 317.44 75.5467 317.44C74.8808 317.44 74.2556 317.502 73.6372 317.614L81.0308 277.892C81.0716 277.684 81.092 277.475 81.092 277.267L121.798 58.3166M120.507 46.9736C120.452 47.0501 120.418 47.1335 120.398 47.2308L77.6398 277.218L77.6942 277.232L68.4453 326.92C69.1045 323.368 72.1421 320.901 75.5467 320.901C75.9953 320.901 76.4506 320.943 76.9059 321.033C79.5901 321.554 81.6492 323.535 82.4375 326.023C82.5326 326.329 82.7977 326.496 83.0627 326.496C83.2462 326.496 83.4365 326.413 83.5724 326.246C84.9247 324.578 86.9566 323.556 89.1516 323.556C89.6001 323.556 90.0554 323.598 90.5107 323.688C93.4396 324.258 95.621 326.559 96.2258 329.36C96.2938 329.686 96.5792 329.867 96.8578 329.867C97.0549 329.867 97.252 329.777 97.3811 329.582C98.7062 327.58 100.949 326.322 103.375 326.322C103.823 326.322 104.279 326.364 104.734 326.454C108.662 327.219 111.237 331.097 110.49 335.115L110.435 335.42C113.922 316.786 129.871 303.81 147.771 303.81C150.136 303.81 152.528 304.033 154.933 304.505C175.368 308.488 188.85 328.491 185.316 349.377C185.283 349.564 185.337 349.745 185.439 349.884C185.643 346.715 187.539 343.775 190.597 342.454C191.677 341.988 192.792 341.766 193.893 341.766C197.202 341.766 200.342 343.754 201.714 347.069C202.095 347.994 202.299 348.946 202.36 349.898C203.25 348.411 204.589 347.173 206.281 346.444C207.362 345.978 208.476 345.756 209.577 345.756C212.886 345.756 216.026 347.743 217.399 351.059C218.065 352.678 218.214 354.381 217.929 355.986C217.983 355.91 218.017 355.827 218.037 355.729L227.966 302.392L227.857 302.371L269.99 76.04C269.331 79.5916 266.293 82.059 262.889 82.059C262.44 82.059 261.985 82.0173 261.529 81.927C258.845 81.4057 256.786 79.4248 255.998 76.9366C255.903 76.6308 255.638 76.464 255.373 76.464C255.189 76.464 254.999 76.5474 254.863 76.7142C253.511 78.3823 251.479 79.404 249.291 79.404C248.842 79.404 248.387 79.3623 247.931 79.2719C245.002 78.702 242.821 76.4014 242.216 73.6004C242.148 73.2738 241.863 73.0931 241.584 73.0931C241.387 73.0931 241.19 73.1834 241.061 73.378C239.736 75.3797 237.493 76.6308 235.074 76.6308C234.626 76.6308 234.17 76.5891 233.715 76.4987C229.787 75.7342 227.212 71.8559 227.959 67.8386L228.02 67.498C224.548 86.1528 208.585 99.15 190.678 99.15C188.313 99.15 185.921 98.9275 183.516 98.4549C163.081 94.4724 149.599 74.4692 153.132 53.5834C153.166 53.3958 153.112 53.2151 153.01 53.076C152.806 56.2454 150.91 59.1854 147.852 60.506C146.772 60.9716 145.657 61.1941 144.556 61.1941C141.247 61.1941 138.107 59.2063 136.735 55.8909C136.354 54.9665 136.15 54.0143 136.089 53.0621C135.199 54.5495 133.86 55.7867 132.168 56.5165C131.087 56.9821 129.973 57.2046 128.872 57.2046C125.563 57.2046 122.423 55.2168 121.05 51.9014C120.384 50.282 120.235 48.5792 120.52 46.9736H120.507ZM110.442 335.413C110.442 335.413 110.442 335.441 110.435 335.448V335.413H110.442Z" fill="#6EB7FF"/>
<path d="M251.968 220.754L243.936 222.304L246.987 230.06L239.594 226.488L237.609 234.599L233.688 227.259L227.416 232.625L228.462 224.333L220.308 224.903L225.914 218.821L218.989 214.38L227.022 212.83L223.97 205.074L231.357 208.653L233.348 200.542L237.269 207.882L243.542 202.509L242.495 210.801L250.65 210.231L245.044 216.312L251.968 220.754Z" fill="#1AE3B3"/>
<path d="M124.048 142.478L116.015 144.028L119.066 151.785L111.679 148.205L109.688 156.316L105.767 148.977L99.4949 154.349L100.541 146.058L92.3867 146.628L97.9931 140.546L91.0684 136.105L99.1008 134.555L96.0496 126.798L103.443 130.378L105.428 122.267L109.349 129.606L115.621 124.234L114.574 132.525L122.729 131.955L117.123 138.037L124.048 142.478Z" fill="#FACC15"/>
<path d="M145.481 193.912C144.333 193.912 143.157 193.8 142.002 193.571C130.721 191.389 127.432 180.782 128.696 173.95C129.396 170.176 132.073 167.403 135.444 166.77C134.275 164.532 133.901 161.912 134.384 159.292C135.668 152.342 141.356 148.025 149.232 148.025C150.653 148.025 152.1 148.164 153.541 148.442C164.475 150.555 166.989 158.673 165.827 164.984C165.331 167.653 164.162 170.023 162.47 171.949C163.048 173.957 163.225 176.202 162.776 178.628C161.111 187.622 154.01 193.905 145.502 193.905L145.481 193.912Z" fill="#1AE3B3"/>
<path d="M165.175 198.005C164.067 198.005 162.946 197.894 161.852 197.685C157.285 196.803 153.554 194.21 151.339 190.387C149.164 186.62 148.559 182.012 149.538 176.681C152.127 162.663 162.028 152.494 173.078 152.494C174.165 152.494 175.253 152.598 176.306 152.8C180.845 153.676 184.569 156.233 186.778 159.987C188.993 163.754 189.612 168.403 188.613 173.804C187.56 179.503 184.875 185.258 181.253 189.609C176.734 195.023 171.026 198.012 165.168 198.012L165.175 198.005Z" fill="#1AE3B3"/>
<path d="M199.513 202.662C198.705 202.662 197.896 202.586 197.101 202.433C195.178 202.065 193.431 201.272 191.936 200.174C190.441 201.397 188.566 202.085 186.575 202.085C186.024 202.085 185.467 202.03 184.916 201.926C183.55 201.661 182.382 201.307 181.342 200.834C176.395 198.603 175.314 194.176 175.892 191.055C176.218 189.255 177.047 187.997 177.448 187.392C177.462 187.365 177.482 187.344 177.496 187.316C178.012 186.551 179.29 184.605 180.955 182.075C179.657 181.158 178.522 179.99 177.604 178.621C175.647 175.688 174.927 172.157 175.572 168.668C176.728 162.399 182.096 157.853 188.328 157.853C189.136 157.853 189.945 157.93 190.74 158.083C192.453 158.416 194.05 159.077 195.47 160.029C197.087 158.409 199.309 157.45 201.593 157.45C202.116 157.45 202.639 157.499 203.156 157.603C213.567 159.619 212.466 167.243 212.31 168.105C211.97 169.94 211.317 171.24 210.434 172.623C209.544 174.013 208.232 176.022 206.73 178.322C208.096 179.253 209.292 180.463 210.244 181.895C212.201 184.828 212.921 188.358 212.276 191.847C211.12 198.117 205.752 202.662 199.513 202.662Z" fill="#1AE3B3"/>
<path d="M149.436 235.989C148.295 235.989 147.126 235.878 145.964 235.649C137.442 234.001 132.366 226.787 133.902 218.495C135.478 209.974 142.702 204.024 151.475 204.024C152.766 204.024 154.091 204.156 155.41 204.407C163.211 205.915 168.016 212.886 166.582 220.629C164.883 229.817 157.999 235.989 149.443 235.989H149.436Z" fill="#1AE3B3"/>
<path d="M154.321 244.947C153.635 244.947 153.01 244.892 152.398 244.774C150.434 244.398 148.817 243.502 147.587 242.126C145.881 240.214 145.181 237.622 145.664 235.008C146.187 232.159 148.002 230.512 148.776 229.81L148.851 229.74C149.062 229.539 149.381 229.177 149.816 228.253C149.83 228.225 149.836 228.204 149.85 228.176C150.89 226.001 152.534 221.671 153.649 218.599C153.024 217.097 152.84 215.422 153.139 213.789C153.676 210.884 155.633 208.409 158.127 207.151C162.558 199.367 169.007 198.13 172.663 198.13C173.798 198.13 174.967 198.248 176.149 198.47C184.256 200.041 187.484 206.345 186.485 211.76C185.969 214.54 184.494 216.854 182.449 218.362C182.449 218.383 182.442 218.404 182.435 218.425C181.62 222.852 178.072 226.077 173.968 226.154C172.785 229.135 171.107 233.264 169.883 235.808C166.785 242.459 158.705 244.941 154.315 244.941L154.321 244.947Z" fill="#1AE3B3"/>
<path d="M166.329 247.27C165.643 247.27 165.018 247.214 164.406 247.096C162.449 246.721 160.825 245.824 159.595 244.448C157.889 242.536 157.189 239.944 157.672 237.331C158.195 234.481 160.016 232.827 160.798 232.125L160.866 232.062C161.076 231.854 161.396 231.499 161.824 230.575C161.837 230.547 161.844 230.526 161.858 230.505C162.897 228.33 164.542 224 165.657 220.928C165.031 219.427 164.848 217.751 165.147 216.118C165.684 213.213 167.641 210.739 170.135 209.481C174.566 201.696 181.015 200.459 184.671 200.459C185.806 200.459 186.974 200.577 188.157 200.8C191.269 201.397 193.892 202.78 195.754 204.782C198.119 207.333 199.118 210.725 198.493 214.082C197.977 216.862 196.502 219.176 194.456 220.685C194.456 220.705 194.45 220.726 194.443 220.747C193.627 225.167 190.08 228.392 185.975 228.476C184.793 231.458 183.108 235.586 181.891 238.13C178.792 244.781 170.712 247.263 166.322 247.263L166.329 247.27Z" fill="#1AE3B3"/>
<path d="M145.481 191.389C144.489 191.389 143.469 191.292 142.457 191.097C132.854 189.241 130.041 180.227 131.115 174.423C131.699 171.275 134.03 169.155 136.925 169.155C137.278 169.155 137.639 169.189 137.992 169.259C138.243 169.308 138.57 169.391 138.93 169.523C138.93 169.064 138.984 168.654 139.045 168.3C139.079 168.112 139.127 167.911 139.181 167.695C138.726 167.257 138.325 166.757 137.972 166.215C136.789 164.359 136.375 162.072 136.796 159.772C137.842 154.093 142.606 150.562 149.218 150.562C150.489 150.562 151.78 150.688 153.065 150.938C162.198 152.703 164.386 159.118 163.38 164.533C162.877 167.271 161.552 169.593 159.602 171.33C160.438 173.318 160.798 175.632 160.329 178.176C158.888 185.961 152.786 191.396 145.474 191.396L145.481 191.389Z" fill="#0059C5"/>
<path d="M165.174 195.482C164.216 195.482 163.258 195.391 162.313 195.204C158.453 194.46 155.314 192.291 153.465 189.101C151.603 185.876 151.101 181.859 151.97 177.147C154.301 164.525 163.38 155.01 173.084 155.01C174.015 155.01 174.946 155.1 175.857 155.274C179.758 156.025 182.802 158.103 184.678 161.279C186.574 164.497 187.083 168.549 186.207 173.324C184.195 184.208 175.782 195.475 165.188 195.475L165.174 195.482Z" fill="#0059C5"/>
<path d="M199.513 200.139C198.861 200.139 198.202 200.076 197.556 199.951C195.232 199.499 193.234 198.297 191.746 196.636C190.597 198.485 188.674 199.562 186.568 199.562C186.167 199.562 185.766 199.52 185.372 199.444C184.189 199.214 183.197 198.916 182.334 198.526C178.712 196.893 177.903 193.738 178.311 191.527C178.549 190.235 179.16 189.303 179.487 188.803C180.166 187.795 182.116 184.827 184.509 181.164C182.538 180.386 180.846 179.017 179.629 177.196C178.046 174.819 177.461 171.955 177.985 169.133C178.922 164.06 183.272 160.369 188.321 160.369C188.973 160.369 189.632 160.431 190.278 160.557C192.439 160.974 194.369 162.044 195.871 163.629C196.047 163.358 196.408 162.788 196.408 162.788C197.549 161.05 199.534 159.966 201.586 159.966C201.953 159.966 202.327 160.001 202.694 160.07C208.803 161.252 210.413 164.748 209.877 167.625C209.612 169.057 209.095 170.072 208.354 171.239C207.179 173.081 205.262 176.007 203.129 179.26C205.181 180.025 206.941 181.422 208.198 183.305C209.781 185.682 210.366 188.546 209.843 191.368C208.905 196.441 204.562 200.132 199.506 200.132L199.513 200.139Z" fill="#0059C5"/>
<path d="M149.436 233.459C148.444 233.459 147.431 233.361 146.419 233.167C139.188 231.77 135.029 225.925 136.32 218.96C137.673 211.649 143.904 206.54 151.468 206.54C152.603 206.54 153.778 206.658 154.947 206.881C161.369 208.125 165.324 213.831 164.155 220.156C162.687 228.114 156.768 233.459 149.436 233.459Z" fill="#0059C5"/>
<path d="M154.322 242.425C153.792 242.425 153.317 242.383 152.861 242.293C151.434 242.015 150.272 241.389 149.409 240.423C148.234 239.11 147.751 237.302 148.091 235.474C148.458 233.473 149.783 232.27 150.422 231.693L150.537 231.589C150.986 231.151 151.475 230.568 152.053 229.337C153.29 226.745 155.24 221.56 156.354 218.432C155.593 217.209 155.308 215.708 155.58 214.262C156.021 211.871 157.768 209.883 159.895 209.126C163.721 201.807 169.47 200.66 172.677 200.66C173.656 200.66 174.675 200.764 175.701 200.959C180.635 201.911 185.093 205.769 184.074 211.301C183.612 213.803 182.13 215.805 180.125 216.875C180.125 217.23 180.098 217.591 180.03 217.96C179.412 221.303 176.864 223.638 173.826 223.638C173.466 223.638 173.112 223.603 172.759 223.534C172.623 223.506 172.494 223.485 172.385 223.464C171.271 226.307 169.13 231.687 167.683 234.717C164.985 240.541 157.53 242.425 154.336 242.425H154.322Z" fill="#0059C5"/>
<path d="M166.33 244.739C165.8 244.739 165.324 244.698 164.869 244.607C163.442 244.329 162.28 243.704 161.417 242.738C160.241 241.424 159.759 239.617 160.099 237.789C160.466 235.787 161.798 234.578 162.436 234.001L162.545 233.897C162.994 233.459 163.483 232.875 164.054 231.645C165.291 229.059 167.241 223.867 168.349 220.74C167.587 219.517 167.302 218.015 167.574 216.57C168.016 214.179 169.762 212.191 171.889 211.433C175.715 204.115 181.464 202.968 184.672 202.968C185.65 202.968 186.67 203.072 187.696 203.267C190.292 203.767 192.459 204.886 193.961 206.512C195.769 208.466 196.537 211.051 196.068 213.609C195.606 216.111 194.124 218.113 192.12 219.19C192.12 219.551 192.092 219.913 192.025 220.274C191.406 223.617 188.858 225.953 185.82 225.953C185.46 225.953 185.107 225.918 184.753 225.848C184.617 225.821 184.488 225.8 184.379 225.779C183.265 228.622 181.124 234.001 179.677 237.031C176.979 242.849 169.524 244.739 166.33 244.739Z" fill="#0059C5"/>
<path d="M145.467 173.574C144.869 176.41 145.148 176.938 147.622 177.348C144.897 178.294 144.095 179.114 141.974 181.657C142.702 178.843 142.43 178.314 139.97 177.842C142.681 176.966 143.524 176.153 145.467 173.581V173.574Z" fill="white"/>
<path d="M149.123 151.368C150.34 151.368 151.617 151.493 152.915 151.75C157.788 152.689 161.009 155.107 162.239 158.736L162.599 159.792L163.489 159.153C166.5 156.991 169.809 155.851 173.051 155.851C173.934 155.851 174.824 155.935 175.701 156.101C179.404 156.817 182.143 158.645 183.842 161.543L184.195 162.148L184.841 161.891C185.976 161.439 187.151 161.217 188.348 161.217C188.939 161.217 189.537 161.272 190.128 161.391C192.099 161.773 193.886 162.753 195.279 164.226L195.993 164.984L196.557 164.101L196.645 163.969L197.053 163.33C198.065 161.78 199.812 160.821 201.599 160.821C201.918 160.821 202.238 160.848 202.544 160.911C209.482 162.252 209.298 166.284 209.074 167.486C208.836 168.793 208.374 169.689 207.667 170.801C206.641 172.4 204.983 174.944 202.448 178.815L201.864 179.705L202.849 180.073C207.321 181.748 209.93 186.44 209.04 191.228C208.177 195.906 204.168 199.305 199.513 199.305C198.908 199.305 198.303 199.249 197.705 199.131C195.626 198.728 193.777 197.671 192.35 196.073L191.63 195.26L191.052 196.184C190.06 197.769 188.381 198.721 186.553 198.721C186.214 198.721 185.867 198.686 185.527 198.624C182.476 198.033 180.471 196.796 179.568 194.947C178.861 193.501 179.044 192.09 179.119 191.694C179.33 190.568 179.853 189.769 180.159 189.296C180.798 188.351 182.632 185.557 185.194 181.637L185.765 180.761L184.807 180.379C184.562 180.282 184.325 180.17 184.148 180.08L183.4 179.712L183.047 180.483C181.688 183.472 179.914 186.203 177.909 188.372C174.138 192.466 169.741 194.634 165.188 194.634C164.277 194.634 163.36 194.544 162.456 194.37C158.868 193.675 155.83 191.562 154.111 188.56L153.676 187.802L152.956 188.275C150.707 189.748 148.097 190.526 145.399 190.526C144.475 190.526 143.537 190.436 142.599 190.255C133.548 188.504 130.904 180.024 131.91 174.562C132.42 171.816 134.417 169.974 136.877 169.974C137.19 169.974 137.509 170.002 137.829 170.065C138.101 170.12 138.372 170.197 138.638 170.294L139.738 170.697V169.502C139.738 169.147 139.779 168.786 139.847 168.424C139.881 168.251 139.915 168.077 139.963 167.903L140.092 167.417L139.732 167.069C137.863 165.269 137.088 162.656 137.598 159.896C138.59 154.544 142.892 151.347 149.116 151.347M149.116 150.506C142.627 150.506 137.863 153.94 136.796 159.736C136.218 162.857 137.183 165.762 139.174 167.681C139.12 167.896 139.072 168.091 139.045 168.264C138.977 168.619 138.93 169.036 138.93 169.488C138.57 169.356 138.25 169.272 137.992 169.224C137.618 169.154 137.251 169.119 136.891 169.119C134.084 169.119 131.699 171.225 131.115 174.388C130.041 180.191 132.854 189.206 142.457 191.062C143.456 191.256 144.441 191.347 145.406 191.347C148.335 191.347 151.073 190.492 153.411 188.956C155.463 192.535 158.929 194.516 162.313 195.169C163.278 195.357 164.237 195.447 165.195 195.447C169.938 195.447 174.586 193.195 178.514 188.921C180.634 186.613 182.429 183.819 183.794 180.81C184.032 180.928 184.27 181.032 184.515 181.137C182.116 184.806 180.166 187.774 179.486 188.782C179.16 189.282 178.548 190.207 178.31 191.5C178.113 192.556 177.536 197.901 185.378 199.416C185.772 199.492 186.166 199.527 186.56 199.527C188.64 199.527 190.59 198.464 191.752 196.601C193.234 198.262 195.238 199.472 197.562 199.916C198.222 200.042 198.874 200.104 199.52 200.104C204.474 200.104 208.897 196.497 209.856 191.34C210.827 186.099 207.885 181.011 203.135 179.239C205.269 175.986 207.185 173.06 208.361 171.218C209.108 170.051 209.618 169.036 209.883 167.604C210.413 164.727 208.809 161.231 202.7 160.049C202.333 159.98 201.966 159.945 201.599 159.945C199.56 159.945 197.569 161.008 196.373 162.822C196.217 163.073 196.047 163.33 195.877 163.608C194.416 162.072 192.5 160.96 190.291 160.529C189.645 160.404 188.993 160.341 188.361 160.341C187.036 160.341 185.752 160.598 184.556 161.071C182.904 158.263 180.138 156.06 175.864 155.233C174.933 155.052 173.995 154.961 173.064 154.961C169.551 154.961 166.105 156.213 163.027 158.416C161.865 154.996 158.875 152.001 153.078 150.875C151.705 150.611 150.387 150.479 149.13 150.479L149.116 150.506Z" fill="white"/>
<path d="M172.685 201.494C173.616 201.494 174.581 201.591 175.553 201.779C177.435 202.141 179.222 202.968 180.595 204.108L180.921 204.379L181.329 204.267C182.416 203.969 183.565 203.816 184.727 203.816C185.644 203.816 186.595 203.906 187.554 204.094C192.086 204.969 196.191 208.465 195.267 213.449C194.859 215.666 193.575 217.487 191.747 218.46L191.305 218.696V219.211C191.305 219.51 191.278 219.815 191.223 220.121C190.68 223.061 188.471 225.118 185.848 225.118C185.535 225.118 185.223 225.091 184.91 225.028C184.761 225 184.632 224.979 184.509 224.959L183.864 224.861L183.619 225.48C183.47 225.855 183.313 226.411 183.089 227.176C181.628 232.222 178.217 244.044 167.765 244.044C166.881 244.044 165.957 243.961 165.013 243.787C162.519 243.342 161.533 241.702 161.166 240.771L160.86 239.985L160.093 240.305C158.135 241.118 156.015 241.577 154.289 241.577C153.813 241.577 153.385 241.542 153.018 241.473C150.524 240.993 148.316 238.831 148.9 235.634C149.016 235.023 149.24 234.453 149.593 233.897L150.382 232.653L148.934 232.604C148.064 232.576 147.296 232.493 146.576 232.354C139.821 231.047 135.934 225.612 137.13 219.127C138.177 213.47 143.076 207.381 151.367 207.381C152.481 207.381 153.63 207.492 154.792 207.722C156.518 208.055 158.081 208.736 159.433 209.758L160.195 210.328L160.643 209.48C163.416 204.267 167.581 201.508 172.678 201.508M172.678 200.667C167.323 200.667 162.824 203.614 159.916 209.077C158.516 208.028 156.837 207.263 154.941 206.895C153.698 206.651 152.509 206.54 151.367 206.54C143.056 206.54 137.511 212.517 136.321 218.967C135.037 225.932 139.189 231.777 146.42 233.174C147.262 233.334 148.085 233.41 148.9 233.438C148.547 233.994 148.241 234.668 148.091 235.474C147.568 238.303 149.043 241.556 152.862 242.293C153.283 242.376 153.759 242.418 154.289 242.418C156.015 242.418 158.231 241.98 160.405 241.083C161.058 242.758 162.512 244.197 164.87 244.621C165.889 244.802 166.854 244.885 167.765 244.885C180.445 244.885 183.34 228.441 184.38 225.793C184.496 225.813 184.618 225.834 184.754 225.855C185.121 225.925 185.488 225.959 185.848 225.959C188.804 225.959 191.407 223.645 192.032 220.274C192.1 219.913 192.127 219.558 192.127 219.211C194.118 218.154 195.6 216.173 196.075 213.616C197.095 208.09 192.637 204.226 187.703 203.273C186.684 203.079 185.692 202.982 184.727 202.982C183.47 202.982 182.267 203.141 181.111 203.461C179.603 202.21 177.693 201.341 175.702 200.959C174.669 200.757 173.663 200.66 172.685 200.66L172.678 200.667Z" fill="white"/>
<path d="M139.508 167.584C149.253 173.749 149.6 160.543 149.6 160.543C149.6 160.543 151.197 174.548 139.454 170.141L139.508 167.584Z" fill="white" stroke="white" stroke-width="1.21" stroke-miterlimit="10" stroke-linecap="round"/>
<path d="M193.166 168.821L195.891 164.358" stroke="white" stroke-width="1.21" stroke-miterlimit="10" stroke-linecap="round"/>
<path d="M202.856 178.975L191.582 196.052" stroke="white" stroke-width="1.21" stroke-miterlimit="10" stroke-linecap="round"/>
<path d="M160.669 240.584C159.771 231.847 167.675 232.987 168.436 235.239" stroke="white" stroke-width="1.21" stroke-linecap="round" stroke-linejoin="round"/>
<path d="M149.633 233.042C151.638 230.255 155.803 231.283 156.347 232.903L157.543 228.427" stroke="white" stroke-width="1.21" stroke-linecap="round" stroke-linejoin="round"/>
<path d="M181.735 203.815C181.674 203.592 181.45 203.453 181.232 203.516C181.11 203.551 178.541 204.267 176.285 206.804C172.534 210.779 172.12 217.549 163.958 222.025C168.26 222.859 168.776 224.075 167.254 230.636C167.213 230.803 167.179 230.97 167.138 231.144C171.297 224.624 172.853 222.511 177.93 219.849C174.627 219.342 173.893 217.041 173.778 215.241C173.852 212.753 174.906 210.008 176.38 208.103C178.528 205.33 181.423 204.336 181.443 204.329C181.661 204.274 181.797 204.037 181.735 203.815Z" fill="white"/>
<path d="M191.514 219.072C191.514 219.072 187.96 220.184 184.073 218.578" stroke="white" stroke-width="1.21" stroke-miterlimit="10" stroke-linecap="round"/>
<path d="M154.064 217.904C154.064 217.904 153.344 226.328 145.569 223.11" stroke="white" stroke-width="1.21" stroke-linecap="round" stroke-linejoin="round"/>
<path d="M146.644 220.324C150.171 217.217 151.231 219.253 147.487 221.797C150.266 224.473 147.167 227.635 145.278 223.486C141.805 226.607 140.745 224.563 144.49 221.992C141.704 219.337 144.972 216.209 146.644 220.324Z" fill="#B9F9E8"/>
<path d="M148.865 214.331C148.511 216.235 151.332 219.085 155.83 217.389" stroke="white" stroke-width="1.21" stroke-linecap="round" stroke-linejoin="round"/>
<path d="M160.866 172.998L163.476 173.985C166.581 172.644 169.211 173.123 170.897 173.784L173.336 172.748L170.489 171.671L172.072 169.023L169.15 169.864L168.912 166.764L167.03 169.203L165.059 166.84L164.944 169.947L161.987 169.224L163.673 171.81L160.866 172.998Z" fill="#FACC15"/>
<path d="M167.221 164.81C167.221 164.81 171.305 169.876 178.535 166.999" stroke="white" stroke-width="1.21" stroke-miterlimit="10" stroke-linecap="round"/>
<path d="M153.629 188.545C148.614 174.909 165.847 172.247 172.31 173.498" stroke="white" stroke-width="1.21" stroke-miterlimit="10" stroke-linecap="round"/>
</svg>
