<svg width="141" height="91" viewBox="0 0 141 91" fill="none" xmlns="http://www.w3.org/2000/svg">
<path d="M14.3105 37.2969C14.3105 34.5354 16.5491 32.2969 19.3105 32.2969H117.429C120.19 32.2969 122.429 34.5355 122.429 37.2969V85.2175C122.429 87.9789 120.19 90.2175 117.429 90.2175H19.3105C16.5491 90.2175 14.3105 87.9789 14.3105 85.2175V37.2969Z" fill="#120F01"/>
<path d="M23.4774 5.97279L31.4427 15.1987L41.6634 8.55788L40.772 20.7139L52.6949 23.2453L43.469 31.2105L50.1098 41.4312L37.9538 40.5399L35.4224 52.4628L27.4571 43.2368L17.2364 49.8777L18.1278 37.7217L6.20494 35.1903L15.4308 27.225L8.79003 17.0043L20.946 17.8957L23.4774 5.97279Z" fill="#5DEDD5"/>
<path d="M29.7559 62.2178C29.7559 34.6035 52.1416 12.2178 79.7559 12.2178H140.963V27.0889C140.963 54.7031 118.578 77.0889 90.9635 77.0889H29.7559V62.2178Z" fill="#C0FCF2"/>
<path d="M56.9914 41.8693H65.6954V42.9573H56.9914V41.8693ZM54.2554 44.8133H68.4474V45.9493H54.2554V44.8133ZM58.4634 45.5973H59.7434C59.4074 48.7173 58.5114 50.8773 54.6074 51.9653C54.4794 51.6613 54.1594 51.1813 53.9034 50.9413C57.5034 50.0453 58.1914 48.2053 58.4634 45.5973ZM62.5114 45.5013H63.7114V49.9973C63.7114 50.4773 63.8234 50.5573 64.4954 50.5573C64.8154 50.5573 66.3354 50.5573 66.7514 50.5573C67.3594 50.5573 67.4714 50.2693 67.5194 48.4293C67.7754 48.6213 68.2874 48.8133 68.6074 48.9093C68.4794 51.1013 68.1274 51.6613 66.8474 51.6613C66.5274 51.6613 64.6874 51.6613 64.3674 51.6613C62.8954 51.6613 62.5114 51.2933 62.5114 50.0133V45.5013ZM60.6874 37.2293H61.9514V39.7733H60.6874V37.2293ZM54.6234 38.9413H68.0794V42.3333H66.8154V40.0773H55.8394V42.3333H54.6234V38.9413ZM72.0794 43.2133H76.0634V44.3333H72.0794V43.2133ZM75.5834 43.2133H76.7514C76.7514 43.2133 76.7514 43.5653 76.7514 43.7253C76.6714 47.3413 76.5754 48.6853 76.2394 49.1333C75.9834 49.4213 75.7274 49.5333 75.2794 49.5813C74.8634 49.6293 74.1434 49.6133 73.3594 49.5813C73.3274 49.2293 73.1994 48.7653 73.0234 48.4613C73.7434 48.5253 74.4474 48.5253 74.7194 48.5253C74.9434 48.5253 75.1034 48.5093 75.2154 48.3653C75.4554 48.0773 75.5354 46.8773 75.5834 43.4213V43.2133ZM80.0954 38.0293L80.8154 37.2773C81.8074 37.7893 83.0714 38.5573 83.6954 39.1173L82.9434 39.9333C82.3354 39.3733 81.1034 38.5573 80.0954 38.0293ZM82.3834 42.3653L83.5834 42.6533C82.2234 46.8293 79.8394 49.9173 76.5594 51.8533C76.3834 51.6133 75.9354 51.1173 75.6794 50.8773C78.9274 49.1493 81.1834 46.2213 82.3834 42.3653ZM72.1754 39.9333H84.5594V41.1173H72.1754V39.9333ZM71.4074 39.9333H72.6554V44.4453C72.6554 46.7173 72.3994 49.9493 70.9434 52.0453C70.7354 51.8053 70.2234 51.3893 69.9354 51.2453C71.2634 49.2773 71.4074 46.5253 71.4074 44.4293V39.9333ZM78.0474 37.2453H79.2954C79.2634 44.6053 80.8314 50.6053 82.9114 50.6053C83.3594 50.6053 83.5674 49.7733 83.6634 47.6453C83.9354 47.9173 84.3834 48.1893 84.7034 48.3013C84.4794 51.0373 84.0314 51.8213 82.8154 51.8213C79.5514 51.8213 78.1114 44.9093 78.0474 37.2453ZM86.3034 37.9973H91.5034V39.0533H86.3034V37.9973ZM85.9514 43.0693H92.0634V44.1573H85.9514V43.0693ZM88.5914 43.5973H89.7434V50.5253C89.7434 51.1653 89.6154 51.5173 89.1514 51.6933C88.7034 51.8853 87.9994 51.9013 86.8954 51.9013C86.8474 51.5813 86.6714 51.0853 86.5114 50.7653C87.3274 50.7813 88.0794 50.7813 88.3034 50.7653C88.5274 50.7653 88.5914 50.7013 88.5914 50.5093V43.5973ZM91.1354 37.9973H91.3914L91.6154 37.9333L92.3834 38.4453C91.6154 39.6773 90.4634 41.0533 89.4554 41.9013C89.2794 41.6933 88.9594 41.3733 88.7514 41.1973C89.6314 40.4453 90.6394 39.1493 91.1354 38.2373V37.9973ZM91.7274 43.0693H91.9034L92.0794 43.0213L92.8314 43.2293C92.4154 44.4773 91.9034 45.8693 91.4874 46.7493L90.5594 46.5093C90.9434 45.6933 91.4074 44.3493 91.7274 43.2453V43.0693ZM86.7514 40.7973L87.3914 39.9973C88.7354 40.7013 90.3514 41.7733 91.1354 42.5893L90.4474 43.4693C89.6794 42.6373 88.0954 41.5173 86.7514 40.7973ZM92.4954 37.9653H100.623V39.0053H92.4954V37.9653ZM94.2234 43.9173V45.4853H98.9114V43.9173H94.2234ZM94.2234 46.3653V47.9493H98.9114V46.3653H94.2234ZM94.2234 41.4693V43.0213H98.9114V41.4693H94.2234ZM93.1034 40.5413H100.079V48.8933H93.1034V40.5413ZM95.9354 38.4773L97.2954 38.6373C97.0234 39.5653 96.7354 40.5733 96.4794 41.2453L95.4234 41.0373C95.6154 40.3173 95.8394 39.2133 95.9354 38.4773ZM94.7034 49.1813L95.7594 49.8053C94.8794 50.6533 93.3754 51.5173 92.0954 51.9973C91.9194 51.7573 91.5354 51.3893 91.2954 51.1813C92.5754 50.7173 94.0154 49.8853 94.7034 49.1813ZM97.1834 49.8693L98.0954 49.2613C99.0714 49.8213 100.303 50.6853 100.959 51.2933L99.9994 51.9813C99.4074 51.3893 98.1754 50.4773 97.1834 49.8693ZM109.535 44.0933L110.511 43.5973C111.423 44.7173 112.383 46.2533 112.767 47.2773L111.711 47.8373C111.359 46.8293 110.431 45.2453 109.535 44.0933ZM109.631 40.1093H115.711V41.2453H109.631V40.1093ZM115.231 40.1093H116.383C116.383 40.1093 116.383 40.5733 116.383 40.7333C116.111 47.9493 115.855 50.4453 115.199 51.2453C114.831 51.7093 114.479 51.8373 113.871 51.9013C113.327 51.9493 112.351 51.9333 111.391 51.8693C111.359 51.5173 111.215 51.0053 111.007 50.6693C112.063 50.7653 113.055 50.7653 113.455 50.7653C113.775 50.7653 113.983 50.7333 114.143 50.5253C114.703 49.9493 114.975 47.2933 115.231 40.3813V40.1093ZM110.223 37.2133L111.455 37.4853C110.751 39.8053 109.647 42.0453 108.431 43.5013C108.191 43.3093 107.663 42.9573 107.359 42.7973C108.607 41.4533 109.631 39.3413 110.223 37.2133ZM104.479 37.2293L105.551 37.6293C104.943 38.8133 104.175 40.2373 103.551 41.1013L102.719 40.7493C103.327 39.8213 104.063 38.2853 104.479 37.2293ZM106.415 39.0533L107.455 39.5013C106.335 41.2933 104.767 43.5973 103.551 44.9733L102.783 44.5733C104.015 43.1493 105.535 40.7493 106.415 39.0533ZM101.951 40.5893L102.559 39.7893C103.455 40.5413 104.463 41.5973 104.895 42.3013L104.255 43.2133C103.823 42.4613 102.815 41.3573 101.951 40.5893ZM105.903 42.7653L106.799 42.3813C107.471 43.4053 108.159 44.7813 108.399 45.6613L107.439 46.1093C107.199 45.2133 106.559 43.8213 105.903 42.7653ZM101.919 44.3813C103.359 44.3333 105.487 44.2533 107.599 44.1573V45.1333C105.567 45.2613 103.535 45.3733 102.015 45.4533L101.919 44.3813ZM106.303 46.5893L107.215 46.3013C107.679 47.2773 108.127 48.5413 108.303 49.3733L107.327 49.7093C107.183 48.8773 106.751 47.5813 106.303 46.5893ZM102.799 46.3653L103.839 46.5573C103.615 48.0613 103.215 49.6133 102.703 50.6373C102.495 50.5093 102.015 50.2853 101.759 50.1733C102.287 49.1973 102.607 47.7733 102.799 46.3653ZM104.639 44.8453H105.727V51.9813H104.639V44.8453Z" fill="#031A14"/>
<rect x="98.2324" y="64.2178" width="34" height="20" rx="10" fill="white"/>
<path d="M111.16 71.4338C111.288 69.4178 112.856 68.2818 114.984 68.2818C117.304 68.2818 118.568 69.6258 118.568 71.3218C118.568 72.7138 117.688 73.6578 116.776 73.9618V74.0258C117.992 74.3938 118.776 75.4018 118.776 77.0178C118.776 78.8738 117.464 80.2818 115.032 80.2818C112.824 80.2818 111.112 79.1298 111 76.8418H112.76C112.84 77.9298 113.64 78.7618 115.016 78.7618C116.376 78.7618 117.048 77.9298 117.048 76.8418C117.048 75.3058 116.056 74.7778 114.152 74.7778H113.736V73.2738H114.168C115.816 73.2578 116.824 72.7778 116.824 71.5298C116.824 70.5218 116.168 69.8498 114.92 69.8498C113.64 69.8498 113.048 70.6178 112.936 71.4338H111.16Z" fill="black"/>
</svg>
