<?xml version="1.0" encoding="utf-8"?>
<!-- Generator: $$$/GeneralStr/196=Adobe Illustrator 27.6.0, SVG Export Plug-In . SVG Version: 6.00 Build 0)  -->
<svg version="1.1" id="圖層_1" xmlns="http://www.w3.org/2000/svg" xmlns:xlink="http://www.w3.org/1999/xlink" x="0px" y="0px"
	 viewBox="0 0 72 72" style="enable-background:new 0 0 72 72;" xml:space="preserve">
<style type="text/css">
	.st0{fill:#0059C6;}
	.st1{fill:#FFFFFF;}
</style>
<circle class="st0" cx="36" cy="36" r="36"/>
<g>
	<g>
		<path class="st1" d="M20.12,25.63l1.68,1.87l-1.09-2.32c-0.11,0.08-0.21,0.17-0.32,0.26L20.12,25.63z"/>
		<path class="st1" d="M32.94,8.94c-0.77,0-1.61,0.06-2.38,0.13l-2.13,0.19l-0.19,2.13c-0.5,5.47-3.28,10.44-7.54,13.79l2.25,4.57
			l0.45-0.26l0.19-0.19c4.9-3.74,8.25-9.21,9.41-15.27C45.05,14.09,54.91,24.34,54.91,36c0,11.66-9.15,21.33-20.81,21.91
			c-0.77,0.06-1.61,0.06-2.26,0c-7.05-0.49-12.75-5.52-14.32-12.1l13.35-6.9l17.14,8.89V40.9l-17.14-8.89l-16.33,8.44H12v1.68
			C12,53.07,20.57,62.29,31.52,63c0.45,0.06,0.97,0.06,1.42,0.06S33.84,63,34.29,63C48.72,62.29,60,50.95,60,36
			S47.89,8.94,32.94,8.94z"/>
		<polygon class="st1" points="20.7,25.18 20.7,25.18 20.7,25.18 		"/>
	</g>
	<rect x="24.37" y="47.08" class="st1" width="4.32" height="4.32"/>
	<rect x="33.07" y="47.08" class="st1" width="4.32" height="4.32"/>
</g>
</svg>
