<svg width="476" height="450" viewBox="0 0 476 450" fill="none" xmlns="http://www.w3.org/2000/svg">
<path d="M246.337 272.316C201.42 301.671 141.211 289.056 111.855 244.139L0.153623 73.2232L29.5398 54.018C74.4569 24.6625 134.667 37.2778 164.022 82.195L275.724 253.111L246.337 272.316Z" fill="#6EB7FF"/>
<path d="M143.502 337.583L284.615 126.02C314.583 81.0897 375.3 68.961 420.23 98.9292L465.665 129.235L324.553 340.798C294.585 385.728 233.868 397.857 188.938 367.889L143.502 337.583Z" fill="#B9E7FC"/>
<path d="M332.34 347.935C329.3 373.411 316.542 396.73 296.725 413.027C276.909 429.324 251.566 437.341 225.982 435.405C200.398 433.469 176.55 421.73 159.412 402.637C142.273 383.543 133.169 358.57 133.998 332.926C134.826 307.283 145.524 282.949 163.859 265.002C182.195 247.055 206.751 236.88 232.407 236.6C258.062 236.32 282.835 245.956 301.557 263.499C320.28 281.041 331.507 305.135 332.895 330.755L330.907 330.863C329.546 305.756 318.544 282.143 300.196 264.952C281.848 247.76 257.571 238.316 232.428 238.591C207.286 238.865 183.22 248.837 165.252 266.425C147.284 284.013 136.8 307.86 135.988 332.991C135.176 358.121 144.098 382.595 160.893 401.307C177.689 420.018 201.06 431.523 226.132 433.42C251.204 435.317 276.041 427.461 295.461 411.489C314.881 395.518 327.384 372.666 330.363 347.699L332.34 347.935Z" fill="white"/>
<path d="M256.588 335.267L392.287 314.379L384.045 323.156L392.669 326.835L383.552 334.913L397.737 337.318L389.869 346.038L398.183 352.684L262.484 373.571L267.604 366.943L260.728 362.161L268.158 353.092L258.658 348.714L266.401 341.682L256.588 335.267Z" fill="#00376D"/>
<path d="M266.746 321.48L402.445 300.593L394.203 309.37L402.827 313.049L393.71 321.126L407.895 323.532L400.027 332.251L408.341 338.898L272.642 359.785L277.762 353.157L270.886 348.375L278.316 339.306L268.816 334.928L276.56 327.896L266.746 321.48Z" fill="white"/>
<path d="M435.301 146.069C431.85 146.978 428.637 148.625 425.884 150.895C423.131 153.166 420.903 156.006 419.353 159.221C417.804 162.436 416.969 165.948 416.908 169.516C416.846 173.084 417.559 176.624 418.997 179.89C420.435 183.156 422.564 186.071 425.238 188.435C427.911 190.799 431.065 192.556 434.483 193.583C437.9 194.611 441.5 194.886 445.034 194.388C448.567 193.891 451.951 192.633 454.952 190.702L451.612 185.511C449.362 186.96 446.824 187.903 444.173 188.276C441.523 188.649 438.823 188.444 436.26 187.673C433.697 186.902 431.331 185.585 429.326 183.812C427.321 182.039 425.724 179.852 424.646 177.403C423.567 174.953 423.033 172.299 423.079 169.623C423.125 166.946 423.751 164.312 424.913 161.901C426.075 159.49 427.746 157.36 429.811 155.657C431.876 153.954 434.285 152.719 436.874 152.037L435.301 146.069Z" fill="white"/>
<path d="M98.5972 57.5633L101.447 65.8288L107.523 59.5422L103.694 67.402L112.436 67.2532L104.17 70.1032L110.457 76.1793L102.597 72.35L102.746 81.0918L99.8959 72.8263L93.8198 79.1129L97.6491 71.2531L88.9074 71.4019L97.1728 68.5519L90.8862 62.4758L98.746 66.3051L98.5972 57.5633Z" fill="white"/>
<path d="M407.004 2.39631L410.804 13.4169L418.905 5.03481L413.8 15.5146L425.455 15.3161L414.435 19.1161L422.817 27.2176L412.337 22.1119L412.536 33.7675L408.736 22.7469L400.634 31.129L405.74 20.6493L394.084 20.8477L405.105 17.0477L396.723 8.94624L407.202 14.052L407.004 2.39631Z" fill="#FFCE00"/>
<path d="M286.655 310.593L303.162 311.821L293.844 325.502L286.655 310.593Z" fill="#21DEAB"/>
</svg>
