<svg width="143" height="145" viewBox="0 0 143 145" fill="none" xmlns="http://www.w3.org/2000/svg">
<path d="M28.4372 27.74C27.2512 25.906 26.5597 24.0465 26.3625 22.1615C26.1871 20.2623 26.4746 18.5283 27.2249 16.9594C27.9971 15.3764 29.1583 14.0837 30.7084 13.0813C32.062 12.206 33.4175 11.7165 34.7748 11.6129C36.1539 11.4952 37.4173 11.6535 38.5651 12.0878L36.8921 9.50061L41.5098 6.5146L53.242 24.6578L48.6244 27.6438L46.909 24.9911C46.8701 26.2237 46.5102 27.4627 45.8293 28.7081C45.1561 29.9174 44.1427 30.9598 42.7891 31.8351C41.2608 32.8234 39.6093 33.334 37.8348 33.3668C36.082 33.3856 34.3757 32.9254 32.7157 31.9863C31.0634 31.0112 29.6372 29.5958 28.4372 27.74ZM42.7582 18.5722C42.0382 17.4587 41.2057 16.6502 40.2608 16.1465C39.3018 15.6211 38.317 15.3909 37.3064 15.4561C36.2817 15.4995 35.3437 15.7965 34.4922 16.3471C33.6407 16.8977 32.9888 17.6134 32.5366 18.4941C32.0844 19.3748 31.8902 20.3673 31.9541 21.4716C32.0257 22.54 32.4144 23.62 33.1203 24.7116C33.8262 25.8033 34.6658 26.6227 35.6389 27.17C36.6198 27.6814 37.6116 27.9224 38.6145 27.8932C39.6392 27.8498 40.5663 27.5599 41.396 27.0234C42.2475 26.4728 42.9103 25.7501 43.3843 24.8552C43.8443 23.9385 44.0385 22.946 43.9669 21.8777C43.8811 20.7875 43.4783 19.6857 42.7582 18.5722Z" fill="#0052CC"/>
<path d="M62.014 1.04957C64.5566 0.648367 66.7388 1.13315 68.5607 2.50393C70.3786 3.84902 71.5145 5.95977 71.9684 8.83618L73.944 21.3563L68.5507 22.2073L66.6906 10.4192C66.4231 8.72413 65.7947 7.49405 64.8054 6.7289C63.812 5.93808 62.5833 5.65816 61.1194 5.88916C59.6298 6.12421 58.5214 6.77291 57.7941 7.83525C57.0884 8.86786 56.8693 10.2317 57.1368 11.9267L58.9969 23.7149L53.6037 24.5659L50.236 3.22396L55.6292 2.37292L56.0487 5.03103C56.6219 3.993 57.4201 3.13003 58.4434 2.44213C59.4883 1.72449 60.6785 1.2603 62.014 1.04957Z" fill="#0052CC"/>
<path d="M99.3449 5.44136L78.8671 33.233L73.2187 31.868L80.2961 22.5044L76.827 0L82.7787 1.4382L84.6545 17.4189L93.6965 4.07644L99.3449 5.44136Z" fill="#0052CC"/>
<path d="M107.437 15.7439L101.964 24.6482C101.583 25.2684 101.447 25.811 101.558 26.2759C101.705 26.7323 102.133 27.1784 102.842 27.6141L105.001 28.9416L102.591 32.8621L99.6676 31.0649C95.747 28.655 94.9577 25.5451 97.2996 21.7353L102.753 12.8643L100.56 11.5163L102.908 7.69548L105.101 9.04341L107.899 4.4916L112.584 7.37127L109.786 11.9231L113.906 14.4556L111.557 18.2764L107.437 15.7439Z" fill="#0052CC"/>
<path d="M122.567 18.745C121.871 18.0807 121.495 17.3079 121.437 16.4265C121.417 15.5442 121.721 14.774 122.349 14.1158C122.978 13.4576 123.724 13.1277 124.588 13.1261C125.489 13.1236 126.288 13.4545 126.984 14.1188C127.68 14.7831 128.038 15.5564 128.058 16.4386C128.115 17.32 127.83 18.0898 127.201 18.748C126.573 19.4062 125.808 19.7365 124.907 19.739C124.043 19.7406 123.263 19.4093 122.567 18.745ZM122.736 22.465L107.816 38.0924L103.867 34.3221L118.787 18.6946L122.736 22.465Z" fill="#0052CC"/>
<path d="M141.079 53.069C142.094 55.5191 142.153 57.8022 141.257 59.9184C140.394 62.0486 138.618 63.6709 135.928 64.7854L124.218 69.6362L122.128 64.5919L133.153 60.0246C134.715 59.3779 135.74 58.489 136.228 57.358C136.74 56.217 136.713 54.962 136.146 53.5928C135.579 52.2236 134.705 51.3048 133.526 50.8364C132.381 50.382 131.028 50.4782 129.467 51.125L118.441 55.6922L116.352 50.6479L127.377 46.0807C128.939 45.4339 129.963 44.545 130.452 43.414C130.964 42.2731 130.937 41.018 130.37 39.6488C129.792 38.2556 128.914 37.3248 127.735 36.8564C126.59 36.402 125.237 36.4982 123.676 37.145L112.65 41.7122L110.561 36.6679L130.522 28.3991L132.611 33.4435L130.197 34.4435C131.307 34.7438 132.311 35.2988 133.209 36.1087C134.117 36.9426 134.825 37.972 135.332 39.1971C135.979 40.7584 136.22 42.2909 136.055 43.7946C135.914 45.2883 135.37 46.6252 134.424 47.8052C135.845 47.9762 137.158 48.5299 138.362 49.4664C139.576 50.4269 140.482 51.6278 141.079 53.069Z" fill="#0052CC"/>
<path d="M130.602 89.9359C129.828 89.8397 129.138 89.7015 128.531 89.5213L130.48 73.8469C128.916 73.7835 127.636 74.1746 126.64 75.0202C125.644 75.8658 125.059 76.9853 124.886 78.3786C124.636 80.3911 125.322 81.9305 126.945 82.9968L126.219 88.8408C124.232 87.965 122.676 86.5665 121.553 84.6452C120.455 82.7272 120.065 80.491 120.382 77.9366C120.639 75.8725 121.321 74.0709 122.43 72.5319C123.56 71.0219 125.022 69.9066 126.815 69.1863C128.604 68.4917 130.595 68.2807 132.788 68.5533C135.007 68.8291 136.899 69.5228 138.464 70.6343C140.029 71.7458 141.162 73.1704 141.863 74.9082C142.564 76.6459 142.783 78.5726 142.52 80.6884C142.266 82.7267 141.602 84.4912 140.526 85.9818C139.446 87.4983 138.039 88.5941 136.305 89.2693C134.593 89.9735 132.692 90.1957 130.602 89.9359ZM132.848 84.5165C134.244 84.6639 135.416 84.2987 136.364 83.4209C137.337 82.5462 137.912 81.3994 138.088 79.9803C138.255 78.6386 137.983 77.4521 137.273 76.4206C136.586 75.4181 135.532 74.7239 134.113 74.3379L132.848 84.5165Z" fill="#0052CC"/>
<path d="M125.822 101.257C127.503 102.652 128.719 104.219 129.471 105.959C130.207 107.718 130.452 109.459 130.205 111.18C129.942 112.922 129.221 114.503 128.042 115.923C127.012 117.164 125.866 118.036 124.601 118.541C123.321 119.066 122.068 119.293 120.843 119.222L123.213 121.19L119.701 125.422L103.077 111.621L106.589 107.39L109.02 109.408C108.688 108.22 108.66 106.93 108.937 105.538C109.218 104.183 109.873 102.885 110.902 101.644C112.065 100.244 113.488 99.2626 115.171 98.7001C116.838 98.1577 118.604 98.0861 120.469 98.4854C122.337 98.9213 124.122 99.845 125.822 101.257ZM114.901 114.29C115.921 115.137 116.958 115.66 118.01 115.857C119.082 116.072 120.091 115.996 121.036 115.632C122 115.284 122.807 114.72 123.454 113.939C124.102 113.159 124.51 112.281 124.678 111.306C124.846 110.33 124.734 109.325 124.342 108.29C123.954 107.292 123.26 106.378 122.26 105.548C121.26 104.717 120.213 104.187 119.121 103.956C118.032 103.761 117.014 103.828 116.065 104.156C115.101 104.504 114.303 105.058 113.672 105.819C113.024 106.599 112.608 107.487 112.423 108.483C112.259 109.495 112.371 110.5 112.759 111.498C113.167 112.512 113.881 113.443 114.901 114.29Z" fill="#0052CC"/>
<path d="M101.483 136.987C99.1731 138.121 96.945 138.303 94.7994 137.532C92.6652 136.784 90.9563 135.103 89.6726 132.489L84.0853 121.112L88.9862 118.706L94.2469 129.417C95.0033 130.958 95.9672 131.947 97.1385 132.386C98.3212 132.848 99.5777 132.752 100.908 132.099C102.261 131.434 103.129 130.487 103.51 129.257C103.879 128.062 103.685 126.694 102.928 125.154L97.6678 114.442L102.569 112.035L112.093 131.429L107.192 133.835L106.006 131.42C105.765 132.581 105.257 133.641 104.483 134.601C103.697 135.595 102.697 136.391 101.483 136.987Z" fill="#0052CC"/>
<path d="M64.5223 143.804L75.9089 111.215L81.7088 110.856L77.7023 121.888L87.6441 142.373L81.5328 142.751L75.0346 128.032L70.3222 143.445L64.5223 143.804Z" fill="#0052CC"/>
<path d="M29.7647 131.924L43.739 114.276L49.1963 116.489L47.1748 131.956L56.4969 119.449L61.9904 121.677L59.762 144.088L54.63 142.007L57.2729 125.319L47.2571 139.018L41.9082 136.848L44.3196 120.109L34.6076 133.888L29.7647 131.924Z" fill="#0052CC"/>
<path d="M16.5551 117.825C15.4753 116.594 14.7891 115.259 14.4967 113.821C14.1846 112.4 14.3251 110.963 14.918 109.51C15.4742 108.054 16.4855 106.683 17.9517 105.398L27.4825 97.0418L31.0819 101.147L22.1084 109.015C20.8181 110.146 20.1136 111.334 19.995 112.579C19.8568 113.841 20.2762 115.03 21.2532 116.144C22.2474 117.278 23.3877 117.869 24.6743 117.916C25.9242 117.962 27.1943 117.419 28.4846 116.287L37.4581 108.42L41.0576 112.526L19.3569 131.551L15.7574 127.446L23.2354 120.89C22.0688 120.979 20.9043 120.755 19.742 120.218C18.5601 119.698 17.4978 118.901 16.5551 117.825Z" fill="#0052CC"/>
<path d="M10.4259 81.1359C11.1676 80.8946 11.8512 80.7268 12.4768 80.6326L17.3641 95.6525C18.8073 95.0462 19.8004 94.1488 20.3434 92.9605C20.8863 91.7722 20.9406 90.5105 20.5061 89.1754C19.8786 87.2469 18.6039 86.1442 16.6819 85.8674L14.8597 80.2674C17.0307 80.2172 19.0326 80.8235 20.8653 82.0864C22.6733 83.3573 23.9755 85.2166 24.7719 87.6643C25.4155 89.6422 25.5621 91.5632 25.2116 93.4271C24.8284 95.2743 23.9781 96.9044 22.6606 98.3174C21.3351 99.7057 19.6216 100.742 17.5201 101.426C15.3938 102.117 13.3863 102.292 11.4977 101.95C9.60907 101.607 7.97867 100.798 6.60649 99.522C5.23432 98.246 4.21839 96.5943 3.5587 94.5669C2.92314 92.6137 2.77628 90.7339 3.11811 88.9275C3.45189 87.0963 4.26083 85.507 5.54491 84.1596C6.79623 82.7955 8.42321 81.7876 10.4259 81.1359ZM10.6922 86.9961C9.36515 87.4553 8.45889 88.2833 7.97343 89.4803C7.46325 90.6853 7.42939 91.9677 7.87187 93.3275C8.2902 94.6132 9.03977 95.5723 10.1206 96.2049C11.1686 96.8209 12.417 97.0025 13.8659 96.7497L10.6922 86.9961Z" fill="#0052CC"/>
<path d="M3.61799 71.3662C2.47912 70.656 1.58875 69.7395 0.946894 68.6168C0.305223 67.4681 -0.0103224 66.1657 0.000257415 64.7098L5.73311 64.7514L5.72262 66.1944C5.71015 67.9104 6.1037 69.2133 6.90325 70.1031C7.70299 70.9669 9.10384 71.4061 11.1058 71.4207L21.8695 71.4989L21.8298 76.9587L0.224399 76.8017L0.264074 71.3419L3.61799 71.3662Z" fill="#0052CC"/>
<path d="M17.1534 42.5282C17.8914 42.7805 18.5388 43.0568 19.0956 43.3571L13.9861 58.3028C15.5043 58.6844 16.8372 58.5631 17.9849 57.9388C19.1325 57.3145 19.9335 56.3381 20.3876 55.0096C21.0437 53.0906 20.6863 51.4434 19.3155 50.0681L21.2206 44.4957C22.9869 45.759 24.2237 47.4458 24.9311 49.5561C25.6139 51.658 25.5389 53.9267 24.7062 56.3623C24.0334 58.3305 22.9973 59.9547 21.5979 61.2348C20.1824 62.4819 18.5236 63.275 16.6217 63.614C14.7282 63.9284 12.7359 63.7281 10.6447 63.0132C8.52892 62.2898 6.81866 61.2243 5.51391 59.8165C4.20915 58.4088 3.39118 56.7827 3.05998 54.9384C2.72879 53.0941 2.90804 51.1633 3.59772 49.1459C4.26217 47.2024 5.27336 45.6109 6.63129 44.3715C7.99764 43.1076 9.59876 42.3223 11.4347 42.0157C13.2544 41.6761 15.1606 41.8469 17.1534 42.5282ZM13.8479 47.3745C12.511 46.9449 11.2891 47.063 10.1822 47.7287C9.05073 48.3861 8.25369 49.3913 7.7911 50.7444C7.35374 52.0237 7.3773 53.2407 7.86178 54.3956C8.33006 55.5174 9.21942 56.4122 10.5298 57.08L13.8479 47.3745Z" fill="#0052CC"/>
<path d="M60.678 83.3002L65.6967 72.3859L60.678 61.4715L71.5924 66.4901L82.5067 61.4715L77.4881 72.3859L82.5067 83.3002L71.5924 78.2816L60.678 83.3002Z" fill="#0052CC"/>
</svg>
