<svg width="790" height="400" viewBox="0 0 790 400" fill="none" xmlns="http://www.w3.org/2000/svg">
<path d="M592.441 28.6818L592.724 29.0938L592.441 28.6818ZM351.222 276.438L351.504 276.851L351.222 276.438ZM74.3404 308.386L74.0276 307.996L74.3404 308.386ZM0.782837 396.318C0.619609 396.541 0.667841 396.854 0.890578 397.017L4.52023 399.677C4.74296 399.84 5.05585 399.792 5.21908 399.57C5.38231 399.347 5.33408 399.034 5.11134 398.871L1.88499 396.506L4.24943 393.28C4.41266 393.057 4.36443 392.744 4.14169 392.581C3.91896 392.418 3.60607 392.466 3.44284 392.689L0.782837 396.318ZM789.447 73.2712C777.758 54.5351 753.43 26.1273 719.521 10.9767C685.574 -4.19115 642.072 -6.04688 592.158 28.2697L592.724 29.0938C642.35 -5.02461 685.483 -3.13659 719.113 11.8897C752.782 26.9332 776.975 55.1699 788.598 73.8005L789.447 73.2712ZM592.158 28.2697C533.006 68.937 511.49 104.459 485.368 143.002C459.271 181.508 428.542 223.091 350.941 276.025L351.504 276.851C429.237 223.828 460.05 182.142 486.196 143.563C512.317 105.022 533.743 69.6441 592.724 29.0938L592.158 28.2697ZM350.941 276.025C273.073 329.14 194.938 344.332 140.798 342.644C113.715 341.799 92.685 336.732 80.6979 330.117C74.6903 326.801 71.0509 323.15 69.9627 319.537C68.8962 315.996 70.2386 312.316 74.6532 308.776L74.0276 307.996C69.4225 311.689 67.7801 315.758 69.0052 319.825C70.2085 323.821 74.137 327.638 80.2147 330.992C92.3982 337.716 113.608 342.796 140.767 343.643C195.108 345.338 273.453 330.091 351.504 276.851L350.941 276.025ZM74.6532 308.776C82.9837 302.097 93.4746 302.469 101.86 307.252C110.249 312.038 116.468 321.209 116.23 332.039C115.991 342.857 109.302 355.464 91.5942 367.089C73.8834 378.716 45.1976 389.323 1.10995 396.12L1.26232 397.108C45.4232 390.3 74.2658 379.661 92.143 367.925C110.024 356.186 116.981 343.314 117.229 332.061C117.477 320.819 111.022 311.327 102.355 306.384C93.6838 301.437 82.7369 301.013 74.0276 307.996L74.6532 308.776Z" fill="#00376D"/>
</svg>
