<svg width="484" height="250" viewBox="0 0 484 250" fill="none" xmlns="http://www.w3.org/2000/svg">
<g clip-path="url(#clip0_1162_1283)">
<path d="M441.706 28.7659C441.706 28.7659 445.875 26.5634 448.078 30.7254C448.078 30.7254 444.763 33.3331 441.706 28.7659Z" fill="white"/>
<path d="M447.069 112.006C447.113 112.477 447.194 113.015 446.936 113.383C441.529 121.11 442.008 122.716 440.866 124.934C440.284 126.068 441.514 127.254 442.634 126.643C444.137 125.825 445.352 124.447 445.86 122.805C446.325 121.552 445.279 124.337 443.636 129.051C442.803 131.423 444.593 132.735 446.148 130.9C447.201 129.655 449.794 125.479 450.457 123.998C450.369 124.028 449.227 127.873 448.954 130.252C448.667 132.749 450.398 132.654 451.15 131.482C452.8 128.919 453.897 124.595 453.897 124.595C453.912 126.156 453.625 128.654 453.013 130.532C452.534 132.02 453.964 132.396 454.892 131.136C456.129 129.449 457.028 126.127 457.013 124.565C457.013 124.565 457.661 127.365 457.676 128.926C457.691 130.488 459.871 130.156 459.857 128.595C459.842 126.621 459.407 126.702 458.965 121.479C457.426 103.078 447.4 66.4078 433.146 57.2145C418.192 47.572 443.628 77.7152 447.061 112.013L447.069 112.006Z" fill="white"/>
<path d="M453.588 125.663C453.588 125.663 453.146 128.492 453.014 130.518C452.911 132.072 453.964 132.381 454.892 131.122C456.13 129.435 457.029 126.112 457.014 124.551" stroke="#0B539B" stroke-width="0.95" stroke-linecap="round" stroke-linejoin="round"/>
<path d="M453.898 124.58C453.898 124.58 452.8 128.912 451.15 131.468C450.391 132.639 448.668 132.742 448.955 130.237C449.058 129.339 449.809 125.236 449.809 125.236" stroke="#0B539B" stroke-width="0.95" stroke-linecap="round" stroke-linejoin="round"/>
<path d="M450.458 123.991C449.795 125.479 447.202 129.656 446.148 130.893C444.594 132.727 442.804 131.416 443.636 129.044C445.286 124.33 446.325 121.545 445.861 122.797C445.353 124.44 444.137 125.818 442.634 126.635C441.515 127.247 440.285 126.068 440.866 124.926C442.008 122.709 441.529 121.103 446.936 113.376C447.194 113.008 447.113 112.47 447.069 111.998C443.636 77.7005 418.2 47.5573 433.154 57.1999C447.408 66.3931 457.434 103.063 458.973 121.464C459.408 126.687 459.842 126.606 459.865 128.58C459.879 130.142 457.699 130.473 457.684 128.912C457.684 128.359 456.947 125.486 456.947 125.486" stroke="#0B539B" stroke-width="0.95" stroke-linecap="round" stroke-linejoin="round"/>
<path d="M424.542 54.4601C426.384 60.088 427.747 62.7178 432.756 76.5739C432.844 76.8097 449.271 69.5464 449.176 69.3033C446.789 63.1745 439.003 52.729 431.452 48.6922C427.585 46.6223 423.172 50.2981 424.542 54.4674V54.4601Z" fill="#6EB7FF"/>
<path d="M431.452 48.6844C427.585 46.6144 423.172 50.2903 424.542 54.4596C426.384 60.0875 429.92 67.8959 432.756 76.5735" stroke="#0B539B" stroke-width="0.71" stroke-miterlimit="10"/>
<path d="M449.154 69.2666C449.022 69.0751 449.64 68.7583 449.883 68.8909L449.154 69.2666Z" fill="#0B539B"/>
<path d="M449.89 68.8831C447.209 63.9182 444.056 59.4173 440.365 55.8594C443.783 59.6604 446.686 64.2718 449.161 69.2588" fill="#0B539B"/>
<path d="M445.64 235.26L448.675 235.164L437.471 246.759L483.607 226.03L473.78 213.389L472.911 209.92L445.64 235.26Z" fill="#6EB7FF"/>
<path d="M381.058 238.126L382.141 240.048L368.167 246.546L418.17 247.039L416.388 239.665L416.66 237.058L381.058 238.126Z" fill="#6EB7FF"/>
<path d="M448.409 111.27C454.103 122.658 451.356 136.33 428.004 158.724C411.828 174.23 417.721 238.317 417.721 238.317L378.178 238.443C378.178 238.443 376.181 186.79 389.566 148.286C400.778 116.036 406.671 111.616 406.671 111.616L448.409 111.27Z" fill="white" stroke="#0B539B" stroke-miterlimit="10"/>
<path d="M428.041 158.76C428.041 158.76 420.675 165.39 416.255 172.019" stroke="#0B539B" stroke-miterlimit="10"/>
<path d="M425.831 111.615C425.831 111.615 429.242 124.543 408.889 155.077C391.209 181.596 396.078 221.183 396.366 238.317" stroke="#0B539B" stroke-miterlimit="10"/>
<path d="M424.358 111.615C424.358 111.615 427.032 124.543 406.679 155.077C388.999 181.596 393.868 221.183 394.156 238.317" stroke="#0B539B" stroke-miterlimit="10"/>
<path d="M404.469 111.269C398.575 130.032 397.839 181.596 443.673 237.013C444.048 237.463 482.553 205.905 482.553 205.905C458.98 186.753 447.194 168.337 442.774 145.501C442.774 145.501 444.601 139.939 445.721 138.135C455.297 122.665 448.653 111.512 448.653 111.512C448.653 111.512 404.55 111.019 404.469 111.277V111.269Z" fill="white" stroke="#0B539B" stroke-miterlimit="10"/>
<path d="M445.721 138.134C445.721 138.134 440.564 146.973 440.564 158.023" stroke="#0B539B" stroke-miterlimit="10"/>
<path d="M415.15 111.534C415.15 111.534 415.777 118.79 423.253 121.361" stroke="#0B539B" stroke-miterlimit="10"/>
<path d="M427.408 111.284C420.513 138.363 418.362 176.749 456.366 227.187" stroke="#0B539B" stroke-miterlimit="10"/>
<path d="M425.198 111.27C418.244 138.54 416.108 177.302 454.988 228.284" stroke="#0B539B" stroke-miterlimit="10"/>
<path d="M258.245 71.4695C256.499 72.0146 258.577 73.0754 260.455 74.4161C261.413 75.1012 265.855 78.114 266.518 79.2632C278.135 99.4618 292.838 92.8615 300.234 86.2023C309.066 78.254 318.606 49.2452 312.425 50.1291C306.245 51.0131 297.582 70.9391 294.341 74.4161C288.013 81.2079 270.032 80.3092 270.046 72.1988C270.061 62.4457 262.54 61.164 262.54 61.164C262.54 61.164 258.776 59.5802 259.888 62.9319C260.33 64.2579 262.952 63.2266 263.394 66.3204L252.824 62.0553L251.056 62.9393L252.824 66.4678L253.708 68.2357L255.476 69.1197L256.36 70.8876L258.245 71.4843V71.4695Z" fill="white"/>
<path d="M263.129 65.7299C258.989 64.1166 255.18 63.0043 254.156 62.4887C250.628 60.7207 250.628 65.1406 253.273 66.0172" stroke="#0B539B" stroke-width="1.2" stroke-miterlimit="10"/>
<path d="M258.613 71.1005C257.022 71.6014 257.56 72.7506 258.753 73.4577C259.343 73.804 260.713 74.769 261.56 75.5203C262.967 76.7726 266.068 78.4153 266.518 79.2624C276.227 97.8036 291.733 93.9657 299.129 87.3065C307.961 79.3582 318.606 49.2445 312.425 50.1284C306.245 51.0124 296.735 70.9163 293.972 74.7837C290.959 78.9973 270.93 81.907 270.046 72.1981C269.162 62.4892 262.54 61.1633 262.54 61.1633C262.54 61.1633 258.775 59.5795 259.888 62.9312C260.33 64.2571 262.974 63.3732 263.416 66.4597C263.497 67.049 263.063 67.653 263.6 69.0747" stroke="#0B539B" stroke-width="1.2" stroke-miterlimit="10"/>
<path d="M255.917 69.5533C254.149 68.6694 252.345 66.9235 253.265 66.0248C253.914 65.3913 255.917 66.0248 257.678 67.7928" stroke="#0B539B" stroke-width="1.2" stroke-miterlimit="10"/>
<path d="M256.934 68.7794C255.829 68.4553 255.196 69.7223 255.925 70.5768C256.286 70.9967 257.177 71.2766 257.973 71.4534" stroke="#0B539B" stroke-width="0.86" stroke-miterlimit="10"/>
<path d="M250.617 52.5928L248.333 54.0248C247.967 54.2538 247.857 54.7357 248.086 55.1011L261.474 76.4598C261.703 76.8252 262.185 76.9357 262.55 76.7067L264.834 75.2748C265.2 75.0457 265.31 74.5638 265.081 74.1984L251.693 52.8397C251.464 52.4744 250.982 52.3638 250.617 52.5928Z" fill="#6EB7FF"/>
<path d="M274.643 76.9057C274.643 76.9057 272.241 81.0456 266.348 83.9921C260.455 86.9387 284.028 103.145 291.394 100.198C298.76 97.2516 317.176 81.0456 318.65 61.1563C320.123 41.2671 286.974 78.0695 286.974 78.0695L274.643 76.9057Z" fill="#6EB7FF"/>
<mask id="mask0_1162_1283" style="mask-type:luminance" maskUnits="userSpaceOnUse" x="265" y="55" width="54" height="46">
<path d="M274.9 76.7943C274.9 76.7943 272.499 80.9342 266.606 83.8808C260.713 86.8273 284.285 103.033 291.652 100.087C299.018 97.1402 317.434 80.9342 318.908 61.045C320.381 41.1558 287.232 77.9582 287.232 77.9582L274.9 76.7943Z" fill="white"/>
</mask>
<g mask="url(#mask0_1162_1283)">
<path d="M323.069 62.6289L294.708 99.0925" stroke="#0B539B" stroke-width="0.5" stroke-miterlimit="10"/>
<path d="M326.752 47.1592L298.392 83.6227" stroke="#0B539B" stroke-width="0.5" stroke-miterlimit="10"/>
<path d="M316.808 46.791L290.289 79.2031" stroke="#0B539B" stroke-width="0.5" stroke-miterlimit="10"/>
<path d="M259.35 69.627L291.025 95.4093" stroke="#0B539B" stroke-width="0.5" stroke-miterlimit="10"/>
<path d="M257.14 77.7295L288.815 103.512" stroke="#0B539B" stroke-width="0.5" stroke-miterlimit="10"/>
<path d="M268.926 68.8896L290.288 83.6224" stroke="#0B539B" stroke-width="0.5" stroke-miterlimit="10"/>
</g>
<path d="M312.941 41.6348H312.573C311.251 41.6348 310.179 42.7066 310.179 44.0288V48.4487C310.179 49.7709 311.251 50.8427 312.573 50.8427H312.941C314.263 50.8427 315.335 49.7709 315.335 48.4487V44.0288C315.335 42.7066 314.263 41.6348 312.941 41.6348Z" fill="white"/>
<path d="M286.975 111.247C286.975 111.247 295.778 60.4557 303.917 52.3158C312.02 44.2128 318.65 46.4227 318.65 46.4227C318.65 46.4227 342.223 67.7852 331.91 109.774L286.975 111.247Z" fill="#0B539B"/>
<path d="M136.699 71.4695C134.954 72.0146 137.031 73.0754 138.909 74.4161C139.867 75.1012 144.309 78.114 144.972 79.2632C156.589 99.4618 171.292 92.8615 178.688 86.2023C187.52 78.254 197.06 49.2452 190.88 50.1291C184.699 51.0131 176.036 70.9391 172.795 74.4161C166.467 81.2079 148.486 80.3092 148.5 72.1988C148.515 62.4457 140.994 61.164 140.994 61.164C140.994 61.164 137.23 59.5802 138.342 62.9319C138.784 64.2579 141.407 63.2266 141.849 66.3204L131.278 62.0553L129.51 62.9393L131.278 66.4678L132.162 68.2357L133.93 69.1197L134.814 70.8876L136.699 71.4843V71.4695Z" fill="white"/>
<path d="M141.583 65.7299C137.443 64.1166 133.635 63.0043 132.611 62.4887C129.082 60.7207 129.082 65.1406 131.727 66.0172" stroke="#0B539B" stroke-width="1.2" stroke-miterlimit="10"/>
<path d="M137.067 71.1005C135.476 71.6014 136.014 72.7506 137.207 73.4577C137.797 73.804 139.167 74.769 140.014 75.5203C141.421 76.7726 144.522 78.4153 144.972 79.2624C154.681 97.8036 170.187 93.9657 177.583 87.3065C186.415 79.3582 197.06 49.2445 190.879 50.1284C184.699 51.0124 175.189 70.9163 172.426 74.7837C169.414 78.9973 149.384 81.907 148.5 72.1981C147.616 62.4892 140.994 61.1633 140.994 61.1633C140.994 61.1633 137.23 59.5795 138.342 62.9312C138.784 64.2571 141.428 63.3732 141.87 66.4597C141.951 67.049 141.517 67.653 142.055 69.0747" stroke="#0B539B" stroke-width="1.2" stroke-miterlimit="10"/>
<path d="M134.371 69.5533C132.603 68.6694 130.799 66.9235 131.719 66.0248C132.368 65.3913 134.371 66.0248 136.132 67.7928" stroke="#0B539B" stroke-width="1.2" stroke-miterlimit="10"/>
<path d="M135.388 68.7794C134.283 68.4553 133.65 69.7223 134.379 70.5768C134.74 70.9967 135.631 71.2766 136.427 71.4534" stroke="#0B539B" stroke-width="0.86" stroke-miterlimit="10"/>
<path d="M129.074 52.6016L126.79 54.0335C126.424 54.2626 126.314 54.7445 126.543 55.1098L139.931 76.4685C140.16 76.8339 140.642 76.9445 141.007 76.7154L143.291 75.2835C143.657 75.0545 143.767 74.5726 143.538 74.2072L130.15 52.8485C129.921 52.4831 129.439 52.3726 129.074 52.6016Z" fill="#6EB7FF"/>
<path d="M162.481 111.983L209.627 111.246L207.417 96.5137L165.428 100.197L162.481 111.983Z" fill="#0B539B"/>
<path d="M403.364 112.719L450.509 111.983L448.3 97.25L406.311 100.933L403.364 112.719Z" fill="#0B539B"/>
<path d="M129.701 110.51C132.346 110.51 134.489 108.366 134.489 105.722C134.489 103.077 132.346 100.934 129.701 100.934C127.057 100.934 124.913 103.077 124.913 105.722C124.913 108.366 127.057 110.51 129.701 110.51Z" fill="white"/>
<path d="M0.544922 158.289C0.544922 192.263 28.0807 219.798 62.0547 219.798C96.0287 219.798 123.564 192.263 123.564 158.289C123.564 132.809 108.073 110.953 85.9956 101.612L61.6863 160.867L0.544922 158.289Z" fill="#6EB7FF"/>
<path d="M61.6865 160.867L85.9958 101.612C78.6367 98.503 70.5483 96.7793 62.0548 96.7793L61.6865 160.867Z" fill="white"/>
<path d="M96.3091 244.844C102.005 244.844 106.622 240.226 106.622 234.531C106.622 228.835 102.005 224.218 96.3091 224.218C90.6134 224.218 85.9961 228.835 85.9961 234.531C85.9961 240.226 90.6134 244.844 96.3091 244.844Z" fill="#6EB7FF"/>
<path d="M21.1714 244.844C26.8671 244.844 31.4844 240.226 31.4844 234.531C31.4844 228.835 26.8671 224.218 21.1714 224.218C15.4757 224.218 10.8584 228.835 10.8584 234.531C10.8584 240.226 15.4757 244.844 21.1714 244.844Z" fill="#6EB7FF"/>
<path d="M20.8026 234.163L0.544922 183.703L70.1578 184.071L129.826 107.461L96.6769 234.899" stroke="white" stroke-miterlimit="10"/>
<path d="M286.9 111.27C278.385 167.114 319.077 210.863 334.48 226.531C338.274 230.384 334.48 236.108 334.48 236.108L351.423 225.058C351.423 225.058 317.206 183.549 334.48 148.993C343.497 130.96 327.835 111.506 327.835 111.506C327.835 111.506 286.937 110.997 286.9 111.27Z" fill="white" stroke="#0B539B" stroke-miterlimit="10"/>
<path d="M327.608 111.27C341.118 155.814 312.388 163.18 293.972 168.337C279.055 172.514 285.869 238.317 285.869 238.317L265.243 239.054C265.243 239.054 272.809 235.931 270.982 231.857C263.755 215.747 247.932 173.28 268.772 148.278C294.871 116.964 292.499 111.27 292.499 111.27H327.615H327.608Z" fill="white" stroke="#0B539B" stroke-miterlimit="10"/>
<path d="M268.558 234.265L248.058 247.789H274.577L281.818 244.578L280.47 247.789H287.409L286.975 235.001L270.032 237.948L268.558 234.265Z" fill="#6EB7FF"/>
<path d="M334.075 228.983L321.383 250L345.324 238.619L350.48 232.608L350.65 236.085L356.911 233.109L351.025 221.742L336.992 231.679L334.075 228.983Z" fill="#6EB7FF"/>
<path d="M256.102 174.62H329.619C329.022 166.259 330.23 157.508 334.48 149C343.497 130.967 327.836 111.512 327.836 111.512C327.836 111.512 327.792 111.512 327.711 111.512C327.674 111.431 327.637 111.35 327.6 111.276H305.059C295.667 111.195 286.937 111.159 286.901 111.276C285.472 116.764 285.221 121.597 285.707 126.009C282.171 131.379 276.823 138.606 268.764 148.285C262.422 155.895 258.466 165.08 256.102 174.62Z" fill="#6EB7FF"/>
<path d="M443.15 28.9431C440.778 15.1828 425.596 14.7113 418.951 18.9764C413.213 22.667 409.132 33.4808 415.158 40.3316C425.596 52.1914 445.846 44.5525 443.158 28.9431H443.15Z" fill="white"/>
<path d="M460.085 106.826C459.466 85.714 449.772 42.7385 427.253 48.6316C409.249 53.3461 399.135 84.6679 397.051 108.299C396.807 111.076 460.181 110.185 460.085 106.826Z" fill="#6EB7FF"/>
<path d="M454.473 19.9783C450.053 14.1294 441.729 12.9729 435.88 17.3854C428.911 12.332 418.944 18.9765 418.944 18.9765L433.655 45.0756C440.771 42.7036 444.506 36.2727 443.143 28.9432C445.309 26.2618 451.202 26.4239 453.368 29.2894C455.533 32.1549 454.274 36.2433 454.274 36.2433C457.957 31.6172 458.2 24.9138 454.465 19.9783H454.473Z" fill="#6EB7FF"/>
<path d="M428.91 39.3802C429.96 39.3802 430.811 38.1072 430.811 36.5368C430.811 34.9664 429.96 33.6934 428.91 33.6934C427.861 33.6934 427.01 34.9664 427.01 36.5368C427.01 38.1072 427.861 39.3802 428.91 39.3802Z" fill="white"/>
<path d="M406.937 26.6821C409.486 30.4021 413.729 32.8772 418.583 32.9803C423.438 33.0835 428.101 30.601 430.768 26.7484C428.779 22.2623 424.329 19.0947 419.099 18.9842C413.869 18.8737 409.014 22.056 406.93 26.6821H406.937Z" fill="#6EB7FF"/>
<path d="M443.15 28.9425C440.778 13.2816 433.662 6.16566 427.017 0C427.017 0 432.771 10.5339 418.951 18.9831L443.15 28.9499V28.9425Z" fill="white"/>
<path d="M6.43848 183.703L70.1582 184.071" stroke="white" stroke-miterlimit="10"/>
<path d="M70.1582 184.071L114.843 126.702" stroke="white" stroke-miterlimit="10"/>
<path d="M104.044 221.64L11.5947 222.376" stroke="white" stroke-miterlimit="10"/>
<path d="M163.881 111.268C156.419 139.975 154.003 181.595 199.837 237.012C200.212 237.462 238.717 205.904 238.717 205.904C215.144 186.752 203.358 168.336 198.938 145.5C198.938 145.5 200.765 139.938 201.884 138.133C211.461 122.664 204.816 111.511 204.816 111.511C204.816 111.511 163.947 111.011 163.881 111.276V111.268Z" fill="white" stroke="#0B539B" stroke-miterlimit="10"/>
<path d="M204.581 111.27C210.275 122.658 207.528 136.33 184.176 158.724C167.999 174.23 173.893 238.317 173.893 238.317L134.35 238.443C134.35 238.443 132.353 186.79 145.738 148.286C156.95 116.036 162.843 111.616 162.843 111.616L204.581 111.27Z" fill="white" stroke="#0B539B" stroke-miterlimit="10"/>
<path d="M184.212 158.76C184.212 158.76 176.846 165.39 172.426 172.019" stroke="#0B539B" stroke-miterlimit="10"/>
<path d="M201.892 138.134C201.892 138.134 196.735 146.973 196.735 158.023" stroke="#0B539B" stroke-miterlimit="10"/>
<path d="M182.002 111.615C182.002 111.615 185.413 124.543 165.06 155.077C147.38 181.596 152.249 221.183 152.537 238.317" stroke="#0B539B" stroke-miterlimit="10"/>
<path d="M180.529 111.615C180.529 111.615 183.203 124.543 162.85 155.077C145.17 181.596 150.039 221.183 150.327 238.317" stroke="#0B539B" stroke-miterlimit="10"/>
<path d="M171.321 111.534C171.321 111.534 171.947 118.79 179.424 121.361" stroke="#0B539B" stroke-miterlimit="10"/>
<path d="M136.331 238.464L122.092 245.58H169.546L169.068 238.464H136.331Z" fill="#6EB7FF"/>
<path d="M207.417 232.055L201.7 246.022L238.901 216.571L233.199 210.692L207.417 232.055Z" fill="#6EB7FF"/>
<path d="M156.588 109.774L218.599 106.828C223.019 86.4451 202.761 39.1456 186.791 48.6335C172.345 57.2153 155.115 87.3512 156.588 109.774Z" fill="#6EB7FF"/>
<path d="M190.658 41.6348H190.29C188.967 41.6348 187.896 42.7066 187.896 44.0288V48.4487C187.896 49.7709 188.967 50.8427 190.29 50.8427H190.658C191.98 50.8427 193.052 49.7709 193.052 48.4487V44.0288C193.052 42.7066 191.98 41.6348 190.658 41.6348Z" fill="white"/>
<path d="M194.85 48.1759C195.623 48.6399 185.317 55.999 181.84 52.3084C181.737 52.1979 184.765 49.5902 188.264 47.8959C190.106 47.0046 191.947 46.4227 194.85 48.1759Z" fill="white"/>
<path d="M202.924 28.9431C200.552 15.1828 185.369 14.7113 178.725 18.9764C172.986 22.667 168.905 33.4808 174.931 40.3316C185.369 52.1914 205.62 44.5525 202.931 28.9431H202.924Z" fill="white"/>
<path d="M172.035 33.6934C172.035 33.6934 172.058 34.6436 171.321 36.1169C170.584 37.5902 171.542 38.9529 173.273 37.9069C175.004 36.8609 172.035 33.7007 172.035 33.7007V33.6934Z" fill="white"/>
<path d="M176.11 34.6357C176.72 34.6357 177.215 34.141 177.215 33.5307C177.215 32.9205 176.72 32.4258 176.11 32.4258C175.5 32.4258 175.005 32.9205 175.005 33.5307C175.005 34.141 175.5 34.6357 176.11 34.6357Z" fill="#0059C5"/>
<path d="M180.529 39.7932C181.953 39.7932 183.108 38.6389 183.108 37.2149C183.108 35.791 181.953 34.6367 180.529 34.6367C179.105 34.6367 177.951 35.791 177.951 37.2149C177.951 38.6389 179.105 39.7932 180.529 39.7932Z" fill="#FFE1E1"/>
<path d="M215.734 38.4378C209.752 12.0736 185.841 8.06625 178.725 18.9832L192.073 47.4322C191.778 47.3732 215.77 38.6146 215.734 38.4378Z" fill="#6EB7FF"/>
<path d="M188.684 39.3802C189.733 39.3802 190.584 38.1072 190.584 36.5368C190.584 34.9664 189.733 33.6934 188.684 33.6934C187.634 33.6934 186.783 34.9664 186.783 36.5368C186.783 38.1072 187.634 39.3802 188.684 39.3802Z" fill="white"/>
<path d="M166.71 26.6821C169.258 30.4021 173.501 32.8772 178.356 32.9803C183.21 33.0835 187.873 30.601 190.54 26.7484C188.551 22.2623 184.102 19.0947 178.872 18.9842C173.641 18.8737 168.787 22.056 166.702 26.6821H166.71Z" fill="#6EB7FF"/>
<path d="M187.528 29.4798C187.528 29.4798 190.474 34.6363 186.054 39.0561L182.371 33.8996C182.371 33.8996 184.581 33.163 183.844 28.7432L187.528 29.4798Z" fill="#6EB7FF"/>
<path d="M176.065 41.5164C176.603 41.1775 177.207 40.5293 177.207 40.5293" stroke="#0059C5" stroke-miterlimit="10" stroke-linecap="round"/>
<path d="M120.971 102.053C120.551 102.363 120.463 103.04 120.669 103.519C120.876 103.998 121.487 104.212 121.966 104.005C128.22 101.302 132.684 103.666 134.747 103.932C136.809 104.197 140.006 104.241 141.479 102.031C141.479 102.031 171.682 102.031 185.678 79.932C199.674 57.8329 191.571 48.9933 182.731 59.3062C173.892 69.6191 153.236 94.2523 138.15 92.6169C135.196 92.3002 132.065 92.5727 129.48 94.046C129.48 94.046 126.378 95.0331 125.642 96.5064C124.905 97.9797 120.485 99.4529 121.222 100.926C121.222 100.926 121.45 101.685 120.971 102.046V102.053Z" fill="white"/>
<path d="M133.443 95.829C130.408 95.6006 127.27 96.1016 124.633 97.6043C123.631 98.1715 119.86 100.676 121.878 101.295" stroke="#0B539B" stroke-miterlimit="10"/>
<path d="M130.238 98.6353C127.167 98.9741 123.778 99.9907 120.979 102.053C120.552 102.363 120.471 103.04 120.677 103.519C120.883 103.998 121.495 104.212 121.973 104.005C128.227 101.302 132.691 103.666 134.754 103.932C136.817 104.197 140.014 104.241 141.487 102.031C141.487 102.031 171.689 102.031 185.686 79.932C199.682 57.8329 191.579 48.9933 182.739 59.3062C173.899 69.6191 153.244 94.2523 138.157 92.6169C135.203 92.3002 132.073 92.5727 129.487 94.046" stroke="#0B539B" stroke-miterlimit="10"/>
<path d="M135.211 94.0974C132.265 93.6923 128.596 92.8304 124.913 97.2503" stroke="#0B539B" stroke-miterlimit="10"/>
<path d="M183.756 86.7169C183.609 86.8494 177.996 79.844 175.741 77.3616C175.557 77.1553 183.66 88.5732 183.844 88.4111C193.509 79.7925 196.507 68.4335 196.537 57.7375C196.537 57.3987 196.507 57.0746 196.456 56.7578C195.948 66.9308 192.625 78.8127 183.756 86.7169Z" fill="#0B539B"/>
<path d="M186.562 50.3712C182.209 55.3361 177.207 62.6288 168.544 67.5569C168.294 67.6969 183.358 87.0631 183.748 86.7095C193.413 78.0909 196.5 64.743 196.529 54.0397C196.544 48.8169 190.003 46.4302 186.562 50.3638V50.3712Z" fill="#6EB7FF"/>
<path d="M195.549 50.8428C193.597 48.051 189.185 47.388 186.562 50.3787C182.209 55.3437 177.207 62.6364 168.544 67.5645" stroke="#0B539B" stroke-width="0.75" stroke-miterlimit="10"/>
<path d="M325.943 28.9431C323.571 15.1828 308.389 14.7113 301.744 18.9764C296.006 22.667 291.925 33.4808 297.951 40.3316C308.389 52.1914 328.639 44.5525 325.951 28.9431H325.943Z" fill="white"/>
<path d="M295.055 33.6934C295.055 33.6934 295.077 34.6436 294.34 36.1169C293.604 37.5902 294.561 38.9529 296.293 37.9069C298.024 36.8609 295.055 33.7007 295.055 33.7007V33.6934Z" fill="white"/>
<path d="M299.129 34.6357C299.74 34.6357 300.234 34.141 300.234 33.5307C300.234 32.9205 299.74 32.4258 299.129 32.4258C298.519 32.4258 298.024 32.9205 298.024 33.5307C298.024 34.141 298.519 34.6357 299.129 34.6357Z" fill="#0059C5"/>
<path d="M303.549 39.7932C304.973 39.7932 306.127 38.6389 306.127 37.2149C306.127 35.791 304.973 34.6367 303.549 34.6367C302.125 34.6367 300.971 35.791 300.971 37.2149C300.971 38.6389 302.125 39.7932 303.549 39.7932Z" fill="#FFE1E1"/>
<path d="M299.085 41.5164C299.623 41.1775 300.227 40.5293 300.227 40.5293" stroke="#0059C5" stroke-miterlimit="10" stroke-linecap="round"/>
<path d="M412.182 33.6934C412.182 33.6934 412.204 34.6436 411.467 36.1169C410.731 37.5902 411.688 38.9529 413.42 37.9069C415.151 36.8609 412.182 33.7007 412.182 33.7007V33.6934Z" fill="white"/>
<path d="M416.255 34.6357C416.866 34.6357 417.36 34.141 417.36 33.5307C417.36 32.9205 416.866 32.4258 416.255 32.4258C415.645 32.4258 415.15 32.9205 415.15 33.5307C415.15 34.141 415.645 34.6357 416.255 34.6357Z" fill="#0059C5"/>
<path d="M420.675 39.7932C422.099 39.7932 423.253 38.6389 423.253 37.2149C423.253 35.791 422.099 34.6367 420.675 34.6367C419.251 34.6367 418.097 35.791 418.097 37.2149C418.097 38.6389 419.251 39.7932 420.675 39.7932Z" fill="#FFE1E1"/>
<path d="M416.211 41.5164C416.749 41.1775 417.353 40.5293 417.353 40.5293" stroke="#0059C5" stroke-miterlimit="10" stroke-linecap="round"/>
<path d="M300.234 55.2626C300.234 55.2626 281.177 91.9471 282.253 108.3L341.162 106.01C344.934 88.6028 326.017 48.6329 317.192 45.5095C317.14 45.4948 313.022 45.3622 309.803 47.8962C307.247 49.9146 306.429 54.607 300.227 55.2626" fill="#6EB7FF"/>
<path d="M282.245 108.3C281.17 91.9463 300.227 55.2617 300.227 55.2617" stroke="#0B539B" stroke-width="0.75" stroke-miterlimit="10"/>
<mask id="mask1_1162_1283" style="mask-type:luminance" maskUnits="userSpaceOnUse" x="282" y="45" width="60" height="64">
<path d="M300.234 55.2626C300.234 55.2626 281.177 91.9471 282.253 108.3L341.162 106.01C344.934 88.6028 326.017 48.6329 317.192 45.5095C317.14 45.4948 313.022 45.3622 309.803 47.8962C307.247 49.9146 306.429 54.607 300.227 55.2626" fill="white"/>
</mask>
<g mask="url(#mask1_1162_1283)">
<path d="M303.917 52.3164L282.555 113.457" stroke="#0B539B" stroke-width="0.5" stroke-miterlimit="10"/>
<path d="M307.667 46.4531L295.881 117.17" stroke="#0B539B" stroke-width="0.5" stroke-miterlimit="10"/>
<path d="M312.087 43.5068V119.38" stroke="#0B539B" stroke-width="0.5" stroke-miterlimit="10"/>
<path d="M315.77 42.0332L329.766 117.907" stroke="#0B539B" stroke-width="0.5" stroke-miterlimit="10"/>
<path d="M322.399 45.7158L345.972 119.38" stroke="#0B539B" stroke-width="0.5" stroke-miterlimit="10"/>
<path d="M273.781 104.647L348.919 99.4902" stroke="#0B539B" stroke-width="0.5" stroke-miterlimit="10"/>
<path d="M269.361 100.964L345.972 81.8115" stroke="#0B539B" stroke-width="0.5" stroke-miterlimit="10"/>
<path d="M272.308 84.7583L345.235 62.6592" stroke="#0B539B" stroke-width="0.5" stroke-miterlimit="10"/>
<path d="M287.041 66.3418L337.869 52.3457" stroke="#0B539B" stroke-width="0.5" stroke-miterlimit="10"/>
</g>
<path d="M302.959 106.717C303.033 107.512 303.092 108.065 303.114 108.249C303.114 108.3 303.129 108.345 303.136 108.396C306.583 130.709 346.804 128.543 347.939 104.654C347.939 104.529 347.939 104.404 347.924 104.278L347.239 98.1642C347.114 97.0372 346.126 96.2048 344.992 96.2637L309.685 98.3042C309.066 98.341 308.499 98.643 308.116 99.1292L303.408 105.199C303.077 105.634 302.915 106.171 302.966 106.717H302.959Z" fill="white" stroke="#0B539B" stroke-width="0.8" stroke-miterlimit="10"/>
<path d="M308.588 111.939C313.126 116.771 330.068 119.718 337.435 110.878C337.435 110.878 337.28 97.4859 341.781 96.4473" stroke="#0B539B" stroke-width="0.8" stroke-miterlimit="10"/>
<path d="M322.591 117.384C328.558 117.627 334.885 116.095 338.723 111.491C338.723 111.491 338.561 97.5389 343.246 96.4561" stroke="#0B539B" stroke-width="0.84" stroke-miterlimit="10"/>
<path d="M308.838 112.131C311.026 114.805 316.477 117.199 322.407 117.847" stroke="#0B539B" stroke-width="0.84" stroke-miterlimit="10"/>
<path d="M346.274 99.0923L319.813 52.0801L317.604 53.5534L341.751 96.4625L342.59 102.039L346.274 99.0923Z" fill="white" stroke="#0B539B" stroke-width="0.8" stroke-miterlimit="10"/>
<path d="M324.069 115.214L321.116 115.429C320.714 115.459 320.412 115.808 320.442 116.21L320.55 117.694C320.579 118.096 320.929 118.397 321.33 118.368L324.284 118.153C324.685 118.124 324.987 117.774 324.958 117.372L324.85 115.888C324.821 115.487 324.471 115.185 324.069 115.214Z" fill="white" stroke="#0B539B" stroke-width="0.8" stroke-miterlimit="10"/>
<path d="M342.959 98.356C343.976 98.356 344.8 97.5315 344.8 96.5144C344.8 95.4974 343.976 94.6729 342.959 94.6729C341.942 94.6729 341.117 95.4974 341.117 96.5144C341.117 97.5315 341.942 98.356 342.959 98.356Z" fill="white" stroke="#0B539B" stroke-miterlimit="10"/>
<path d="M299.32 110.54C294.48 118.65 291.549 121.376 289.295 122.996C288.197 123.785 288.786 125.486 290.134 125.449C291.946 125.405 293.744 124.691 295.011 123.394C294.274 125.361 291.792 126.024 290.584 127.74C289.899 128.713 291.446 130.112 292.992 129.427C294.539 128.742 296.035 127.821 297.376 126.739C296.226 128.057 295.151 129.53 294.731 131.225C294.495 132.175 295.512 132.61 295.799 132.492C297.302 131.866 298.591 130.753 299.438 129.368C299.232 130.613 299.026 131.851 298.819 133.096C298.746 133.545 298.694 134.068 299.018 134.385C299.571 134.93 300.469 134.319 300.941 133.707C301.891 132.484 302.687 131.136 303.298 129.715C303.143 131.622 302.989 133.53 302.841 135.431C302.819 135.667 302.812 135.917 302.945 136.109C303.335 136.668 304.167 136.028 304.484 135.431C306.046 132.521 326.539 94.437 321.943 76.2273C317.346 58.0177 316.897 81.0965 299.313 110.547L299.32 110.54Z" fill="white" stroke="#0B539B" stroke-linecap="round" stroke-linejoin="round"/>
<path d="M309.294 51.1228C306.9 66.3638 307.799 98.9969 287.659 113.332L313.589 130.481C313.589 130.481 336.263 74.5184 318.561 49.016C315.917 45.2076 310.009 46.5483 309.287 51.1228H309.294Z" fill="#6EB7FF"/>
<mask id="mask2_1162_1283" style="mask-type:luminance" maskUnits="userSpaceOnUse" x="287" y="46" width="39" height="85">
<path d="M309.147 50.7986C306.753 66.0396 307.652 98.6727 287.512 113.008L313.442 130.157C313.442 130.157 336.115 74.1942 318.414 48.6918C315.769 44.8834 309.861 46.2241 309.14 50.7986H309.147Z" fill="white"/>
</mask>
<g mask="url(#mask2_1162_1283)">
<path d="M324.999 43.6973L316.159 156.403" stroke="#0B539B" stroke-width="0.5" stroke-miterlimit="10"/>
<path d="M320.579 40.0137L297.007 164.505" stroke="#0B539B" stroke-width="0.5" stroke-miterlimit="10"/>
<path d="M278.591 98.208L334.576 135.04" stroke="#0B539B" stroke-width="0.5" stroke-miterlimit="10"/>
<path d="M285.957 65.7969L350.782 98.2089" stroke="#0B539B" stroke-width="0.5" stroke-miterlimit="10"/>
<path d="M280.064 85.6855L344.889 118.098" stroke="#0B539B" stroke-width="0.5" stroke-miterlimit="10"/>
<path d="M297.073 39.6602L344.83 80.1531" stroke="#0B539B" stroke-width="0.5" stroke-miterlimit="10"/>
</g>
<path d="M318.569 49.016C315.924 45.2076 310.016 46.5483 309.294 51.1228C306.9 66.3638 307.799 98.9969 287.659 113.332" stroke="#0B539B" stroke-width="0.75" stroke-miterlimit="10"/>
<path d="M323.482 60.043C330.856 87.8437 313.589 130.473 313.589 130.473L298.709 120.521L314.473 133.383C314.473 133.383 332.992 87.6669 323.49 60.043H323.482Z" fill="#0B539B"/>
<path d="M408.69 106.885C408.395 107.283 408.071 107.762 407.614 107.865C397.905 110.053 397.132 111.644 394.672 112.565C393.405 113.036 393.53 114.834 394.841 115.15C396.602 115.578 398.524 115.364 400.086 114.451C401.338 113.802 399.283 114.495 394.642 117.007C392.307 118.274 392.771 120.565 395.29 120.233C396.992 120.012 401.25 119.327 402.826 118.642C402.738 118.598 399.114 120.793 397.206 122.458C395.202 124.204 396.624 125.353 398.045 124.977C401.154 124.152 405.088 121.552 405.088 121.552C403.99 122.782 401.986 124.528 400.182 125.559C398.753 126.377 399.6 127.688 401.213 127.371C403.379 126.937 406.443 124.977 407.541 123.747C407.541 123.747 406.053 126.399 404.955 127.622C403.858 128.844 405.795 130.141 406.893 128.911C408.285 127.356 407.887 127.113 411.261 122.723C423.136 107.268 441.375 71.5194 436.778 54.2157C431.961 36.065 430.391 77.6703 408.697 106.885H408.69Z" fill="white"/>
<path d="M404.071 122.186C404.071 122.186 401.722 124.079 400.167 125.567C398.981 126.709 399.585 127.696 401.199 127.379C403.364 126.944 406.429 124.985 407.526 123.755" stroke="#0B539B" stroke-linecap="round" stroke-linejoin="round"/>
<path d="M405.073 121.56C405.073 121.56 401.14 124.16 398.031 124.985C396.609 125.361 395.188 124.211 397.191 122.466C397.906 121.839 401.412 119.173 401.412 119.173" stroke="#0B539B" stroke-linecap="round" stroke-linejoin="round"/>
<path d="M402.812 118.651C401.235 119.343 396.985 120.021 395.276 120.242C392.756 120.573 392.292 118.275 394.627 117.016C399.268 114.504 400.042 114.563 400.071 114.459C400.042 114.563 396.58 115.594 394.826 115.159C393.515 114.835 393.397 113.045 394.657 112.574C397.117 111.653 397.891 110.062 407.6 107.874C408.064 107.771 408.381 107.292 408.675 106.894C430.369 77.6791 431.938 36.0738 436.756 54.2245C441.353 71.5281 423.113 107.277 411.239 122.732C407.865 127.122 408.263 127.365 406.87 128.92C405.773 130.15 403.836 128.853 404.933 127.63C405.324 127.196 406.797 124.433 406.797 124.433" stroke="#0B539B" stroke-linecap="round" stroke-linejoin="round"/>
<path d="M428.314 51.1155C425.751 56.8171 424.948 59.8373 419.01 74.2091C418.907 74.4522 436.896 80.4631 436.999 80.1979C439.489 73.7155 440.837 60.0288 437.817 51.5133C436.27 47.145 430.215 46.8872 428.314 51.1081V51.1155Z" fill="#6EB7FF"/>
<path d="M437.817 51.5133C436.27 47.145 430.215 46.8872 428.315 51.1081C425.751 56.8097 422.967 65.421 419.011 74.2017" stroke="#0B539B" stroke-width="0.75" stroke-miterlimit="10"/>
<path d="M437.007 80.1612C437.036 79.9182 437.751 80.1097 437.847 80.3822L437.007 80.1612Z" fill="#0B539B"/>
<path d="M437.847 80.3894C439.283 74.6068 440.02 68.8537 439.666 63.4541C439.629 68.8463 438.62 74.5184 437.007 80.1684" fill="#0B539B"/>
<path d="M355.836 57.8931C351.092 58.8433 342.702 50.4678 338.753 38.4385C329.265 9.49598 308.86 8.0669 301.744 18.9839L311.711 39.3887C321.678 85.8926 360.587 56.9428 355.843 57.8931H355.836Z" fill="#6EB7FF"/>
<path d="M311.711 39.3802C312.761 39.3802 313.612 38.1072 313.612 36.5368C313.612 34.9664 312.761 33.6934 311.711 33.6934C310.661 33.6934 309.811 34.9664 309.811 36.5368C309.811 38.1072 310.661 39.3802 311.711 39.3802Z" fill="white"/>
<path d="M289.729 26.6821C292.278 30.4021 296.521 32.8772 301.375 32.9803C306.23 33.0835 310.893 30.601 313.559 26.7484C311.571 22.2623 307.121 19.0947 301.891 18.9842C296.661 18.8737 291.806 22.056 289.722 26.6821H289.729Z" fill="#6EB7FF"/>
<path d="M442.369 28.2939C442.369 28.2939 447.68 29.7967 446.177 35.1078C446.177 35.1078 441.264 34.6364 442.369 28.2939Z" fill="white"/>
</g>
<defs>
<clipPath id="clip0_1162_1283">
<rect width="483.607" height="250" fill="white"/>
</clipPath>
</defs>
</svg>
