<svg width="351" height="203" viewBox="0 0 351 203" fill="none" xmlns="http://www.w3.org/2000/svg">
<g clip-path="url(#clip0_1310_479)">
<path d="M151.114 189.945L146.977 200.053L173.9 178.739L169.773 174.484L151.114 189.945Z" fill="#6EB7FF"/>
<path d="M99.6667 194.583L89.3613 199.733H123.706L123.359 194.583H99.6667Z" fill="#6EB7FF"/>
<path d="M40.0616 24.7577C39.9278 24.7237 39.7917 24.8046 39.7577 24.9384L39.2034 27.1191C39.1694 27.2529 39.2503 27.3889 39.3841 27.4229C39.5179 27.457 39.6539 27.3761 39.688 27.2422L40.1807 25.3039L42.1191 25.7966C42.2529 25.8306 42.3889 25.7497 42.4229 25.6159C42.457 25.4821 42.3761 25.3461 42.2422 25.312L40.0616 24.7577ZM39.7851 25.1278C47.913 38.7965 57.6723 48.1 68.5563 54.1603L68.7995 53.7234C57.9995 47.7099 48.3019 38.4722 40.2149 24.8722L39.7851 25.1278ZM91.851 62.3213C117.215 66.93 145.944 60.7092 173.359 54.0135L173.24 53.5277C145.811 60.227 117.184 66.4161 91.9403 61.8293L91.851 62.3213ZM197.388 48.1743C212.029 44.7867 225.829 42.2054 238.003 42.2054V41.7054C225.768 41.7054 211.92 44.2986 197.276 47.6872L197.388 48.1743ZM238.003 42.2054C254.524 42.2054 265.399 46.333 272.151 52.2956L272.482 51.9208C265.611 45.8531 254.603 41.7054 238.003 41.7054V42.2054ZM281.511 71.2986C282.094 78.8751 279.857 86.2879 276.333 91.2263C274.571 93.6953 272.497 95.5321 270.309 96.4709C268.128 97.4067 265.828 97.454 263.577 96.3388L263.355 96.7868C265.749 97.9729 268.203 97.9186 270.506 96.9304C272.803 95.9453 274.942 94.0358 276.74 91.5167C280.334 86.4791 282.601 78.949 282.01 71.2603L281.511 71.2986ZM263.577 96.3388C261.099 95.1106 260.185 93.796 260.309 92.5595C260.373 91.9284 260.707 91.2706 261.319 90.6016C261.931 89.9332 262.809 89.2671 263.931 88.6233C268.426 86.0434 276.677 83.9077 286.675 83.3039L286.645 82.8048C276.611 83.4108 268.272 85.5549 263.682 88.1896C262.532 88.8494 261.608 89.5454 260.95 90.264C260.293 90.9822 259.89 91.7366 259.812 92.5094C259.654 94.0807 260.841 95.5405 263.355 96.7868L263.577 96.3388ZM307.562 84.3262C318.56 86.0775 329.936 89.9049 339.858 96.7684L340.142 96.3572C330.146 89.442 318.695 85.5927 307.64 83.8324L307.562 84.3262Z" fill="#6EB7FF"/>
<path d="M324.557 103.061C324.589 103.403 324.647 103.792 324.461 104.058C320.548 109.651 320.894 110.813 320.068 112.418C319.647 113.239 320.537 114.097 321.347 113.655C322.435 113.063 323.315 112.066 323.683 110.877C324.018 109.971 323.261 111.986 322.072 115.398C321.47 117.115 322.766 118.064 323.89 116.736C324.653 115.835 326.529 112.812 327.009 111.741C326.945 111.762 326.119 114.545 325.922 116.267C325.714 118.074 326.967 118.005 327.51 117.157C328.705 115.302 329.499 112.172 329.499 112.172C329.51 113.303 329.302 115.11 328.859 116.469C328.513 117.546 329.547 117.818 330.219 116.907C331.114 115.686 331.765 113.281 331.754 112.151C331.754 112.151 332.223 114.177 332.234 115.307C332.245 116.437 333.823 116.198 333.812 115.067C333.801 113.639 333.487 113.697 333.167 109.917C332.053 96.5999 324.797 70.0609 314.481 63.4075C303.658 56.4289 322.067 78.2444 324.552 103.067L324.557 103.061Z" fill="white"/>
<path d="M329.274 112.947C329.274 112.947 328.955 114.994 328.859 116.46C328.784 117.585 329.546 117.809 330.218 116.897C331.114 115.676 331.764 113.272 331.754 112.142" stroke="#0B539B" stroke-width="0.75" stroke-linecap="round" stroke-linejoin="round"/>
<path d="M329.499 112.162C329.499 112.162 328.704 115.297 327.51 117.147C326.961 117.995 325.714 118.069 325.922 116.257C325.996 115.606 326.54 112.637 326.54 112.637" stroke="#0B539B" stroke-width="0.75" stroke-linecap="round" stroke-linejoin="round"/>
<path d="M327.009 111.735C326.529 112.812 324.652 115.835 323.89 116.731C322.765 118.058 321.47 117.109 322.072 115.392C323.266 111.98 324.018 109.965 323.682 110.872C323.314 112.06 322.435 113.057 321.347 113.649C320.537 114.092 319.646 113.239 320.067 112.412C320.894 110.808 320.547 109.645 324.46 104.053C324.647 103.786 324.588 103.397 324.556 103.056C322.072 78.2336 303.663 56.4181 314.486 63.3967C324.802 70.0501 332.058 96.5891 333.172 109.907C333.486 113.686 333.801 113.628 333.817 115.057C333.828 116.187 332.249 116.427 332.239 115.297C332.239 114.897 331.706 112.817 331.706 112.817" stroke="#0B539B" stroke-width="0.75" stroke-linecap="round" stroke-linejoin="round"/>
<path d="M308.253 61.4142C309.586 65.4873 310.572 67.3906 314.197 77.4187C314.261 77.5893 326.15 72.3327 326.081 72.1567C324.354 67.7211 318.718 60.1614 313.254 57.2399C310.455 55.7418 307.261 58.4021 308.253 61.4196V61.4142Z" fill="#6EB7FF"/>
<path d="M313.255 57.234C310.456 55.7359 307.262 58.3962 308.254 61.4137C309.587 65.4868 312.146 71.1379 314.198 77.4181" stroke="#0B539B" stroke-width="0.71" stroke-miterlimit="10"/>
<path d="M326.066 72.1306C325.97 71.992 326.418 71.7628 326.594 71.8587Z" fill="#0B539B"/>
<path d="M326.598 71.8524C324.658 68.2592 322.376 65.0018 319.705 62.4268C322.179 65.1777 324.279 68.5151 326.071 72.1243" fill="#0B539B"/>
<path d="M323.523 192.264L325.719 192.195L317.61 200.586L351 185.584L343.888 176.436L343.259 173.925L323.523 192.264Z" fill="#6EB7FF"/>
<path d="M276.783 194.338L277.567 195.73L267.453 200.432L303.642 200.789L302.352 195.453L302.549 193.565L276.783 194.338Z" fill="#6EB7FF"/>
<path d="M325.527 102.529C329.648 110.771 327.66 120.666 310.759 136.873C299.052 148.096 303.317 194.477 303.317 194.477L274.698 194.568C274.698 194.568 273.254 157.185 282.941 129.319C291.055 105.979 295.32 102.78 295.32 102.78L325.527 102.529Z" fill="white" stroke="#0B539B" stroke-width="0.75" stroke-miterlimit="10"/>
<path d="M310.786 136.899C310.786 136.899 305.455 141.698 302.256 146.496" stroke="#0B539B" stroke-miterlimit="10"/>
<path d="M293.726 102.529C289.461 116.108 288.927 153.427 322.099 193.534C322.371 193.859 350.237 171.02 350.237 171.02C333.177 157.158 324.647 143.83 321.448 127.303C321.448 127.303 322.771 123.278 323.581 121.972C330.512 110.777 325.703 102.705 325.703 102.705C325.703 102.705 293.784 102.348 293.726 102.534V102.529Z" fill="white" stroke="#0B539B" stroke-width="0.75" stroke-miterlimit="10"/>
<path d="M323.582 121.972C323.582 121.972 319.85 128.369 319.85 136.366" stroke="#0B539B" stroke-width="0.75" stroke-miterlimit="10"/>
<path d="M301.456 102.721C301.456 102.721 301.909 107.972 307.32 109.833" stroke="#0B539B" stroke-miterlimit="10"/>
<path d="M310.328 102.54C305.337 122.138 303.781 149.919 331.285 186.422" stroke="#0B539B" stroke-width="0.75" stroke-miterlimit="10"/>
<path d="M308.728 102.529C303.695 122.266 302.149 150.319 330.288 187.216" stroke="#0B539B" stroke-width="0.75" stroke-miterlimit="10"/>
<path d="M187.9 73.7246C186.636 74.1191 188.14 74.8868 189.499 75.8571C190.192 76.3529 193.407 78.5334 193.887 79.3651C202.294 93.9834 212.935 89.2066 218.288 84.3871C224.68 78.6347 231.584 57.6402 227.111 58.2799C222.638 58.9197 216.369 73.3407 214.023 75.8571C209.443 80.7725 196.43 80.1221 196.44 74.2524C196.451 67.1938 191.008 66.2662 191.008 66.2662C191.008 66.2662 188.283 65.1199 189.089 67.5457C189.408 68.5053 191.306 67.7589 191.626 69.998L183.976 66.9112L182.696 67.551L183.976 70.1047L184.616 71.3842L185.895 72.0239L186.535 73.3034L187.9 73.7352V73.7246Z" fill="white"/>
<path d="M191.434 69.5708C188.438 68.4032 185.681 67.5982 184.94 67.225C182.387 65.9455 182.387 69.1443 184.301 69.7787" stroke="#0B539B" stroke-width="0.75" stroke-miterlimit="10"/>
<path d="M188.166 73.4575C187.015 73.82 187.404 74.6517 188.268 75.1635C188.694 75.4141 189.686 76.1125 190.299 76.6563C191.317 77.5626 193.561 78.7514 193.887 79.3645C200.913 92.7833 212.136 90.0057 217.488 85.1863C223.881 79.4338 231.584 57.6397 227.111 58.2794C222.638 58.9192 215.756 73.3242 213.756 76.1231C211.576 79.1726 197.08 81.2785 196.44 74.2519C195.801 67.2253 191.008 66.2656 191.008 66.2656C191.008 66.2656 188.283 65.1194 189.089 67.5451C189.408 68.5048 191.322 67.865 191.642 70.0988C191.701 70.5253 191.386 70.9625 191.776 71.9914" stroke="#0B539B" stroke-width="0.75" stroke-miterlimit="10"/>
<path d="M186.215 72.3375C184.935 71.6977 183.629 70.4342 184.295 69.7838C184.764 69.3253 186.214 69.7838 187.489 71.0633" stroke="#0B539B" stroke-width="0.75" stroke-miterlimit="10"/>
<path d="M186.951 71.7778C186.151 71.5432 185.693 72.4602 186.22 73.0786C186.482 73.3825 187.127 73.5851 187.702 73.713" stroke="#0B539B" stroke-width="0.75" stroke-miterlimit="10"/>
<path d="M182.378 60.063L180.725 61.0993C180.46 61.265 180.38 61.6138 180.546 61.8782L190.236 77.3361C190.401 77.6006 190.75 77.6806 191.014 77.5148L192.668 76.4785C192.932 76.3128 193.012 75.964 192.846 75.6996L183.157 60.2417C182.991 59.9772 182.643 59.8972 182.378 60.063Z" fill="#0B539B"/>
<path d="M199.766 77.6589C199.766 77.6589 198.028 80.6551 193.763 82.7876C189.498 84.9201 206.558 96.6489 211.89 94.5164C217.221 92.3839 230.549 80.6551 231.616 66.2607C232.682 51.8663 208.691 78.5013 208.691 78.5013L199.766 77.6589Z" fill="#6EB7FF"/>
<mask id="mask0_1310_479" style="mask-type:luminance" maskUnits="userSpaceOnUse" x="193" y="61" width="39" height="34">
<path d="M199.954 77.5788C199.954 77.5788 198.216 80.575 193.951 82.7075C189.686 84.84 206.746 96.5688 212.077 94.4363C217.409 92.3038 230.737 80.575 231.803 66.1806C232.869 51.7862 208.878 78.4212 208.878 78.4212L199.954 77.5788Z" fill="white"/>
</mask>
<g mask="url(#mask0_1310_479)">
<path d="M234.815 67.3262L214.289 93.7159" stroke="#0B539B" stroke-width="0.5" stroke-miterlimit="10"/>
<path d="M237.481 56.1309L216.955 82.5206" stroke="#0B539B" stroke-width="0.5" stroke-miterlimit="10"/>
<path d="M230.284 55.8643L211.091 79.3218" stroke="#0B539B" stroke-width="0.5" stroke-miterlimit="10"/>
<path d="M188.699 72.3916L211.624 91.051" stroke="#0B539B" stroke-width="0.5" stroke-miterlimit="10"/>
<path d="M187.1 78.2549L210.024 96.9143" stroke="#0B539B" stroke-width="0.5" stroke-miterlimit="10"/>
<path d="M195.63 71.8574L211.091 82.5199" stroke="#0B539B" stroke-width="0.5" stroke-miterlimit="10"/>
</g>
<path d="M227.485 52.1318H227.218C226.261 52.1318 225.485 52.9076 225.485 53.8645V57.0632C225.485 58.0202 226.261 58.7959 227.218 58.7959H227.485C228.442 58.7959 229.217 58.0202 229.217 57.0632V53.8645C229.217 52.9076 228.442 52.1318 227.485 52.1318Z" fill="white"/>
<path d="M208.691 102.513C208.691 102.513 215.062 65.7537 220.953 59.8627C226.818 53.9983 231.616 55.5977 231.616 55.5977C231.616 55.5977 248.676 71.0583 241.212 101.446L208.691 102.513Z" fill="#0B539B"/>
<path d="M99.9328 73.7246C98.6693 74.1191 100.173 74.8868 101.532 75.8571C102.225 76.3529 105.44 78.5334 105.92 79.3651C114.327 93.9834 124.969 89.2066 130.321 84.3871C136.714 78.6347 143.618 57.6402 139.145 58.2799C134.672 58.9197 128.402 73.3407 126.056 75.8571C121.477 80.7725 108.463 80.1221 108.474 74.2524C108.484 67.1938 103.041 66.2662 103.041 66.2662C103.041 66.2662 100.317 65.1199 101.122 67.5457C101.442 68.5053 103.34 67.7589 103.659 69.998L96.009 66.9112L94.7295 67.551L96.009 70.1047L96.6488 71.3842L97.9283 72.0239L98.568 73.3034L99.9328 73.7352V73.7246Z" fill="white"/>
<path d="M103.468 69.5708C100.472 68.4032 97.7156 67.5982 96.9746 67.225C94.4209 65.9455 94.4209 69.1443 96.3348 69.7787" stroke="#0B539B" stroke-width="0.75" stroke-miterlimit="10"/>
<path d="M100.199 73.4575C99.0479 73.82 99.437 74.6517 100.301 75.1635C100.727 75.4141 101.719 76.1125 102.332 76.6563C103.35 77.5626 105.595 78.7514 105.92 79.3645C112.947 92.7833 124.169 90.0057 129.522 85.1863C135.914 79.4338 143.618 57.6397 139.145 58.2794C134.672 58.9192 127.789 73.3242 125.79 76.1231C123.609 79.1726 109.113 81.2785 108.474 74.2519C107.834 67.2253 103.041 66.2656 103.041 66.2656C103.041 66.2656 100.317 65.1194 101.122 67.5451C101.442 68.5048 103.356 67.865 103.675 70.0988C103.734 70.5253 103.42 70.9625 103.809 71.9914" stroke="#0B539B" stroke-width="0.75" stroke-miterlimit="10"/>
<path d="M98.2487 72.3375C96.9692 71.6977 95.663 70.4342 96.3294 69.7838C96.7986 69.3253 98.2487 69.7838 99.5229 71.0633" stroke="#0B539B" stroke-width="0.75" stroke-miterlimit="10"/>
<path d="M98.9839 71.7778C98.1842 71.5432 97.7257 72.4602 98.2535 73.0786C98.5147 73.3825 99.1598 73.5851 99.7356 73.713" stroke="#0B539B" stroke-width="0.75" stroke-miterlimit="10"/>
<path d="M94.4144 60.0698L92.7611 61.1061C92.4966 61.2719 92.4166 61.6206 92.5824 61.8851L102.272 77.343C102.437 77.6074 102.786 77.6874 103.051 77.5217L104.704 76.4854C104.968 76.3196 105.048 75.9708 104.883 75.7064L95.1933 60.2485C95.0276 59.984 94.6788 59.904 94.4144 60.0698Z" fill="#0B539B"/>
<path d="M118.593 103.045L152.713 102.512L151.114 91.8496L120.725 94.5152L118.593 103.045Z" fill="#0B539B"/>
<path d="M292.927 103.578L327.047 103.045L325.448 92.3828L295.059 95.0484L292.927 103.578Z" fill="#0B539B"/>
<path d="M94.8687 101.979C96.7825 101.979 98.334 100.428 98.334 98.5141C98.334 96.6003 96.7825 95.0488 94.8687 95.0488C92.9548 95.0488 91.4033 96.6003 91.4033 98.5141C91.4033 100.428 92.9548 101.979 94.8687 101.979Z" fill="white"/>
<path d="M1.39453 136.559C1.39453 161.146 21.3229 181.075 45.9109 181.075C70.4989 181.075 90.4273 161.146 90.4273 136.559C90.4273 118.118 79.2156 102.3 63.2376 95.54L45.6443 138.425L1.39453 136.559Z" fill="#6EB7FF"/>
<path d="M45.6445 138.424L63.2378 95.5393C57.9119 93.2895 52.0581 92.042 45.9111 92.042L45.6445 138.424Z" fill="white"/>
<path d="M70.7021 199.2C74.8243 199.2 78.1659 195.858 78.1659 191.736C78.1659 187.614 74.8243 184.272 70.7021 184.272C66.58 184.272 63.2383 187.614 63.2383 191.736C63.2383 195.858 66.58 199.2 70.7021 199.2Z" fill="#6EB7FF"/>
<path d="M16.3222 199.2C20.4444 199.2 23.786 195.858 23.786 191.736C23.786 187.614 20.4444 184.272 16.3222 184.272C12.2001 184.272 8.8584 187.614 8.8584 191.736C8.8584 195.858 12.2001 199.2 16.3222 199.2Z" fill="#6EB7FF"/>
<path d="M16.0556 191.47L1.39453 154.951L51.7753 155.218L94.9589 99.7725L70.968 192.003" stroke="white" stroke-miterlimit="10"/>
<path d="M209.008 102.585L209.008 102.585C209.008 102.586 209.008 102.586 209.008 102.587C209.008 102.586 209.008 102.586 209.008 102.585ZM243.34 185.684C232.211 174.364 203.016 142.95 208.965 102.874C208.973 102.874 208.981 102.873 208.989 102.873C209.202 102.865 209.517 102.859 209.922 102.855C210.732 102.846 211.888 102.844 213.277 102.847C216.054 102.854 219.756 102.882 223.457 102.915C227.158 102.949 230.859 102.989 233.634 103.02C235.022 103.036 236.178 103.049 236.987 103.059L237.927 103.07L238.079 103.072C238.083 103.078 238.087 103.083 238.092 103.089C238.171 103.193 238.288 103.347 238.434 103.55C238.727 103.955 239.14 104.549 239.615 105.303C240.567 106.813 241.768 108.959 242.766 111.508C244.765 116.611 245.932 123.272 242.737 129.663L242.737 129.663C236.412 142.316 239.527 156.211 244.171 166.883C246.497 172.227 249.213 176.783 251.348 180.003C252.416 181.614 253.338 182.891 253.995 183.766C254.323 184.204 254.585 184.541 254.765 184.769C254.771 184.777 254.777 184.785 254.783 184.793L244.051 191.792C244.202 191.43 244.352 191.008 244.466 190.548C244.825 189.1 244.842 187.209 243.34 185.684Z" fill="white" stroke="#0B539B" stroke-width="0.75" stroke-miterlimit="10"/>
<mask id="path-52-inside-1_1310_479" fill="white">
<path d="M238.099 102.529C247.877 134.767 227.085 140.099 213.756 143.831C202.96 146.853 207.892 194.477 207.892 194.477L192.964 195.011C192.964 195.011 198.439 192.75 197.117 189.802C191.887 178.143 180.436 147.408 195.518 129.314C214.407 106.65 212.69 102.529 212.69 102.529H238.104H238.099Z"/>
</mask>
<path d="M238.099 102.529C247.877 134.767 227.085 140.099 213.756 143.831C202.96 146.853 207.892 194.477 207.892 194.477L192.964 195.011C192.964 195.011 198.439 192.75 197.117 189.802C191.887 178.143 180.436 147.408 195.518 129.314C214.407 106.65 212.69 102.529 212.69 102.529H238.104H238.099Z" fill="white"/>
<path d="M238.099 102.529V101.779H237.088L237.381 102.747L238.099 102.529ZM213.756 143.831L213.554 143.108L213.756 143.831ZM207.892 194.477L207.919 195.227L208.721 195.198L208.638 194.4L207.892 194.477ZM192.964 195.011L192.678 194.317L188.823 195.909L192.991 195.76L192.964 195.011ZM197.117 189.802L197.802 189.495L197.802 189.495L197.117 189.802ZM195.518 129.314L196.094 129.794L196.094 129.794L195.518 129.314ZM212.69 102.529V101.779H211.565L211.998 102.818L212.69 102.529ZM237.381 102.747C242.222 118.706 239.442 127.78 234.053 133.348C228.58 139.004 220.27 141.228 213.554 143.108L213.959 144.553C220.571 142.701 229.321 140.394 235.131 134.391C241.026 128.301 243.754 118.59 238.817 102.312L237.381 102.747ZM213.554 143.108C211.937 143.561 210.7 144.826 209.752 146.506C208.801 148.19 208.088 150.381 207.552 152.861C206.48 157.826 206.084 164.122 206.026 170.28C205.967 176.447 206.247 182.515 206.542 187.038C206.689 189.3 206.84 191.177 206.954 192.49C207.011 193.147 207.059 193.662 207.093 194.013C207.109 194.189 207.123 194.324 207.132 194.415C207.136 194.461 207.14 194.495 207.142 194.519C207.143 194.531 207.144 194.539 207.145 194.545C207.145 194.548 207.145 194.551 207.146 194.552C207.146 194.553 207.146 194.554 207.146 194.554C207.146 194.554 207.146 194.555 207.892 194.477C208.638 194.4 208.638 194.4 208.638 194.4C208.638 194.4 208.638 194.399 208.638 194.398C208.638 194.397 208.637 194.395 208.637 194.392C208.636 194.387 208.636 194.378 208.634 194.367C208.632 194.345 208.629 194.311 208.624 194.266C208.615 194.177 208.602 194.044 208.586 193.87C208.552 193.523 208.505 193.012 208.448 192.36C208.335 191.057 208.185 189.19 208.038 186.94C207.745 182.439 207.468 176.412 207.526 170.295C207.584 164.169 207.979 157.993 209.019 153.178C209.539 150.768 210.212 148.742 211.058 147.243C211.906 145.741 212.876 144.856 213.959 144.553L213.554 143.108ZM207.865 193.728L192.937 194.261L192.991 195.76L207.919 195.227L207.865 193.728ZM192.964 195.011C193.25 195.704 193.251 195.704 193.251 195.704C193.251 195.704 193.251 195.704 193.251 195.703C193.252 195.703 193.252 195.703 193.253 195.703C193.254 195.702 193.256 195.702 193.257 195.701C193.261 195.699 193.266 195.697 193.272 195.695C193.285 195.689 193.302 195.682 193.324 195.672C193.368 195.653 193.431 195.625 193.51 195.589C193.667 195.517 193.887 195.412 194.147 195.276C194.663 195.006 195.347 194.608 195.996 194.104C196.637 193.608 197.292 192.97 197.691 192.207C198.105 191.415 198.242 190.478 197.802 189.495L196.433 190.109C196.653 190.6 196.602 191.051 196.361 191.512C196.105 192.002 195.64 192.483 195.077 192.919C194.522 193.35 193.921 193.701 193.451 193.947C193.218 194.069 193.021 194.163 192.884 194.226C192.815 194.258 192.762 194.281 192.727 194.297C192.709 194.304 192.696 194.31 192.688 194.313C192.683 194.315 192.681 194.316 192.679 194.317C192.678 194.317 192.678 194.317 192.678 194.318C192.677 194.318 192.677 194.318 192.678 194.318C192.678 194.318 192.678 194.317 192.678 194.317C192.678 194.317 192.678 194.317 192.964 195.011ZM197.802 189.495C195.199 183.693 191.06 173.168 189.443 161.865C187.823 150.544 188.754 138.6 196.094 129.794L194.942 128.833C187.199 138.122 186.315 150.592 187.958 162.077C189.604 173.58 193.805 184.251 196.433 190.109L197.802 189.495ZM196.094 129.794C205.553 118.444 209.888 111.697 211.858 107.758C212.843 105.788 213.25 104.495 213.401 103.661C213.477 103.242 213.49 102.931 213.475 102.703C213.468 102.588 213.454 102.494 213.437 102.418C213.428 102.38 213.419 102.346 213.41 102.317C213.405 102.302 213.4 102.288 213.396 102.276C213.394 102.269 213.391 102.263 213.389 102.258C213.388 102.255 213.387 102.252 213.386 102.249C213.385 102.248 213.384 102.246 213.384 102.245C213.383 102.243 213.382 102.241 212.69 102.529C211.998 102.818 211.997 102.816 211.996 102.814C211.996 102.813 211.995 102.811 211.995 102.81C211.994 102.807 211.993 102.805 211.992 102.803C211.99 102.798 211.988 102.793 211.987 102.789C211.983 102.781 211.981 102.773 211.979 102.767C211.975 102.754 211.973 102.747 211.973 102.744C211.972 102.739 211.976 102.756 211.978 102.799C211.984 102.884 211.983 103.072 211.925 103.394C211.808 104.041 211.463 105.194 210.516 107.087C208.622 110.875 204.371 117.52 194.942 128.833L196.094 129.794ZM212.69 103.279H238.104V101.779H212.69V103.279ZM238.104 101.779H238.099V103.279H238.104V101.779Z" fill="#0B539B" mask="url(#path-52-inside-1_1310_479)"/>
<path d="M195.363 191.544L180.526 201.332H199.719L204.96 199.008L203.984 201.332H209.006L208.692 192.077L196.43 194.21L195.363 191.544Z" fill="#6EB7FF"/>
<path d="M242.78 187.722L233.594 202.932L250.92 194.695L254.652 190.345L254.775 192.861L259.307 190.708L255.047 182.481L244.891 189.673L242.78 187.722Z" fill="#6EB7FF"/>
<path d="M186.348 148.377H239.554C239.122 142.326 239.997 135.993 243.073 129.835C249.598 116.784 238.264 102.705 238.264 102.705C238.264 102.705 238.232 102.705 238.173 102.705C238.147 102.646 238.12 102.587 238.093 102.534H221.779C214.982 102.475 208.664 102.449 208.638 102.534C207.604 106.506 207.422 110.003 207.774 113.196C205.215 117.083 201.345 122.313 195.512 129.318C190.922 134.825 188.059 141.473 186.348 148.377Z" fill="#6EB7FF"/>
<path d="M333.977 99.3135C333.529 84.0342 326.513 52.9316 310.215 57.1966C297.186 60.6086 289.866 83.2771 288.357 100.38C288.181 102.39 334.046 101.745 333.977 99.3135Z" fill="#6EB7FF"/>
<path d="M5.66016 154.951L51.7759 155.218" stroke="white" stroke-miterlimit="10"/>
<path d="M51.7754 155.218L84.1151 113.698" stroke="white" stroke-miterlimit="10"/>
<path d="M76.2994 182.407L9.3916 182.94" stroke="white" stroke-miterlimit="10"/>
<path d="M119.606 102.528C114.205 123.304 112.456 153.426 145.628 193.533C145.9 193.858 173.766 171.019 173.766 171.019C156.706 157.158 148.176 143.83 144.977 127.303C144.977 127.303 146.299 123.278 147.11 121.971C154.04 110.776 149.232 102.704 149.232 102.704C149.232 102.704 119.654 102.342 119.606 102.534V102.528Z" fill="white" stroke="#0B539B" stroke-width="0.75" stroke-miterlimit="10"/>
<path d="M149.061 102.529C153.182 110.771 151.194 120.666 134.293 136.873C122.586 148.096 126.851 194.477 126.851 194.477L98.2325 194.568C98.2325 194.568 96.7877 157.185 106.475 129.319C114.589 105.979 118.854 102.78 118.854 102.78L149.061 102.529Z" fill="white" stroke="#0B539B" stroke-width="0.75" stroke-miterlimit="10"/>
<path d="M134.319 136.899C134.319 136.899 128.988 141.698 125.789 146.496" stroke="#0B539B" stroke-width="0.75" stroke-miterlimit="10"/>
<path d="M147.115 121.972C147.115 121.972 143.383 128.369 143.383 136.366" stroke="#0B539B" stroke-width="0.75" stroke-miterlimit="10"/>
<path d="M132.72 102.779C132.72 102.779 135.189 112.136 120.458 134.234C107.663 153.426 111.187 182.076 111.395 194.477" stroke="#0B539B" stroke-width="0.75" stroke-miterlimit="10"/>
<path d="M131.654 102.779C131.654 102.779 133.589 112.136 118.859 134.234C106.064 153.426 109.588 182.076 109.796 194.477" stroke="#0B539B" stroke-width="0.75" stroke-miterlimit="10"/>
<path d="M124.99 102.721C124.99 102.721 125.443 107.972 130.855 109.833" stroke="#0B539B" stroke-miterlimit="10"/>
<path d="M114.328 101.447L159.207 99.3143C162.405 84.5627 147.744 50.3307 136.186 57.1973C125.731 63.4083 113.261 85.2184 114.328 101.447Z" fill="#6EB7FF"/>
<path d="M138.985 52.1318H138.718C137.761 52.1318 136.985 52.9076 136.985 53.8645V57.0632C136.985 58.0202 137.761 58.7959 138.718 58.7959H138.985C139.942 58.7959 140.717 58.0202 140.717 57.0632V53.8645C140.717 52.9076 139.942 52.1318 138.985 52.1318Z" fill="white"/>
<path d="M142.018 56.8662C142.578 57.2021 135.12 62.528 132.603 59.8571C132.529 59.7771 134.72 57.8898 137.252 56.6637C138.585 56.0186 139.918 55.5974 142.018 56.8662Z" fill="white"/>
<path fill-rule="evenodd" clip-rule="evenodd" d="M311.082 52.1318H311.349C312.306 52.1318 313.082 52.9076 313.082 53.8645V56.2526C313.483 56.3837 313.914 56.5828 314.383 56.8662C314.943 57.2021 307.484 62.528 304.968 59.8571C304.896 59.7799 306.932 58.0209 309.35 56.7959V53.8645C309.35 52.9076 310.125 52.1318 311.082 52.1318Z" fill="white"/>
<mask id="path-72-inside-2_1310_479" fill="white">
<path fill-rule="evenodd" clip-rule="evenodd" d="M130.348 35.7342C135.157 32.6474 146.145 32.9886 147.861 42.9474H147.867C149.813 54.2443 135.157 59.7729 127.602 51.1895C127.102 50.6202 126.697 50.0131 126.38 49.3802C126.31 49.4383 126.226 49.4867 126.125 49.5236C124.751 50.0272 124.259 48.9266 124.986 47.9819C125.277 47.6038 125.47 47.2684 125.597 47.0021C124.814 42.5988 127.246 37.7289 130.348 35.7342Z"/>
</mask>
<path fill-rule="evenodd" clip-rule="evenodd" d="M130.348 35.7342C135.157 32.6474 146.145 32.9886 147.861 42.9474H147.867C149.813 54.2443 135.157 59.7729 127.602 51.1895C127.102 50.6202 126.697 50.0131 126.38 49.3802C126.31 49.4383 126.226 49.4867 126.125 49.5236C124.751 50.0272 124.259 48.9266 124.986 47.9819C125.277 47.6038 125.47 47.2684 125.597 47.0021C124.814 42.5988 127.246 37.7289 130.348 35.7342Z" fill="white"/>
<path d="M147.861 42.9474L147.122 43.0748L147.229 43.6974H147.861V42.9474ZM130.348 35.7342L129.943 35.1031L129.942 35.1034L130.348 35.7342ZM147.867 42.9474L148.606 42.8201L148.498 42.1974H147.867V42.9474ZM127.602 51.1895L127.039 51.6849L127.039 51.6851L127.602 51.1895ZM126.38 49.3802L127.051 49.0442L126.627 48.1994L125.901 48.8035L126.38 49.3802ZM126.125 49.5236L125.867 48.8194L125.867 48.8194L126.125 49.5236ZM124.986 47.9819L124.392 47.5244L124.392 47.5244L124.986 47.9819ZM125.597 47.0021L126.274 47.3248L126.378 47.1076L126.336 46.8707L125.597 47.0021ZM148.6 42.82C147.686 37.5168 144.267 34.7337 140.456 33.7238C136.706 32.7297 132.537 33.4376 129.943 35.1031L130.753 36.3654C132.967 34.9441 136.697 34.2792 140.072 35.1737C143.387 36.0523 146.32 38.4192 147.122 43.0748L148.6 42.82ZM147.867 42.1974H147.861V43.6974H147.867V42.1974ZM127.039 51.6851C131.047 56.2383 136.944 57.0463 141.572 55.2213C146.217 53.3894 149.648 48.8695 148.606 42.8201L147.127 43.0747C148.031 48.3223 145.107 52.2151 141.022 53.8259C136.92 55.4435 131.712 54.7241 128.165 50.694L127.039 51.6851ZM125.71 49.7163C126.055 50.4061 126.496 51.0669 127.039 51.6849L128.165 50.6942C127.708 50.1736 127.339 49.62 127.051 49.0442L125.71 49.7163ZM126.383 50.2278C126.557 50.1642 126.718 50.0748 126.86 49.9569L125.901 48.8035C125.903 48.8018 125.895 48.8092 125.867 48.8194L126.383 50.2278ZM124.392 47.5244C123.917 48.1415 123.703 48.999 124.129 49.6897C124.601 50.4538 125.531 50.5402 126.383 50.2278L125.867 48.8194C125.614 48.9121 125.471 48.9047 125.417 48.8935C125.376 48.885 125.392 48.8788 125.406 48.9019C125.414 48.915 125.393 48.8913 125.406 48.8048C125.419 48.7191 125.465 48.5894 125.581 48.4394L124.392 47.5244ZM124.92 46.6794C124.815 46.8995 124.65 47.1895 124.392 47.5244L125.581 48.4394C125.905 48.0181 126.125 47.6373 126.274 47.3248L124.92 46.6794ZM129.942 35.1034C128.244 36.1953 126.775 38.038 125.831 40.16C124.884 42.2863 124.436 44.757 124.859 47.1335L126.336 46.8707C125.975 44.8439 126.352 42.6781 127.201 40.7699C128.052 38.8574 129.35 37.2678 130.754 36.365L129.942 35.1034Z" fill="#0B539B" mask="url(#path-72-inside-2_1310_479)"/>
<path d="M128.456 47.0672C128.898 47.0672 129.256 46.7091 129.256 46.2675C129.256 45.8258 128.898 45.4678 128.456 45.4678C128.014 45.4678 127.656 45.8258 127.656 46.2675C127.656 46.7091 128.014 47.0672 128.456 47.0672Z" fill="#0059C5"/>
<path d="M131.654 50.7993C132.685 50.7993 133.52 49.9639 133.52 48.9333C133.52 47.9028 132.685 47.0674 131.654 47.0674C130.624 47.0674 129.788 47.9028 129.788 48.9333C129.788 49.9639 130.624 50.7993 131.654 50.7993Z" fill="#FFE1E1"/>
<path d="M157.132 49.8185C152.803 30.7379 135.498 27.8377 130.348 35.7387L140.008 56.328C139.795 56.2853 157.159 49.9465 157.132 49.8185Z" fill="#6EB7FF"/>
<path d="M137.556 50.5005C138.316 50.5005 138.932 49.5792 138.932 48.4426C138.932 47.3061 138.316 46.3848 137.556 46.3848C136.796 46.3848 136.181 47.3061 136.181 48.4426C136.181 49.5792 136.796 50.5005 137.556 50.5005Z" fill="white"/>
<path d="M121.653 41.3105C123.497 44.0028 126.568 45.7941 130.082 45.8687C133.595 45.9434 136.97 44.1467 138.9 41.3585C137.46 38.1117 134.24 35.8193 130.455 35.7393C126.67 35.6594 123.156 37.9625 121.647 41.3105H121.653Z" fill="#6EB7FF"/>
<path d="M136.719 43.3359C136.719 43.3359 138.852 47.0677 135.653 50.2665L132.987 46.5346C132.987 46.5346 134.587 46.0015 134.054 42.8027L136.719 43.3359Z" fill="#6EB7FF"/>
<path d="M129.1 51.6636C129.489 51.4184 129.926 50.9492 129.926 50.9492" stroke="#0B539B" stroke-miterlimit="10" stroke-linecap="round"/>
<path d="M88.5507 95.8587C88.2468 96.0826 88.1829 96.5731 88.3321 96.9197C88.4814 97.2662 88.9239 97.4208 89.2705 97.2715C93.7967 95.3149 97.0275 97.0263 98.5203 97.2182C100.013 97.4101 102.327 97.4421 103.393 95.8427C103.393 95.8427 125.251 95.8427 135.381 79.849C145.51 63.8552 139.646 57.4577 133.248 64.9214C126.851 72.3852 111.902 90.2129 100.983 89.0294C98.8455 88.8002 96.5797 88.9974 94.7084 90.0637C94.7084 90.0637 92.4639 90.778 91.9308 91.8443C91.3976 92.9105 88.1989 93.9768 88.732 95.043C88.732 95.043 88.8973 95.5922 88.5507 95.8534V95.8587Z" fill="white"/>
<path d="M97.5768 91.3545C95.3803 91.1892 93.1092 91.5518 91.2006 92.6393C90.4755 93.0498 87.7459 94.8625 89.2066 95.3103" stroke="#0B539B" stroke-width="0.75" stroke-miterlimit="10"/>
<path d="M95.2573 93.385C93.0342 93.6303 90.5818 94.366 88.5559 95.8587C88.2467 96.0826 88.188 96.5731 88.3373 96.9197C88.4866 97.2662 88.9291 97.4208 89.2756 97.2715C93.8019 95.3149 97.0326 97.0263 98.5254 97.2182C100.018 97.4101 102.332 97.4421 103.398 95.8427C103.398 95.8427 125.257 95.8427 135.386 79.849C145.516 63.8552 139.651 57.4577 133.254 64.9214C126.856 72.3852 111.907 90.2129 100.988 89.0294C98.8506 88.8002 96.5848 88.9974 94.7135 90.0637" stroke="#0B539B" stroke-width="0.75" stroke-miterlimit="10"/>
<path d="M98.8565 90.1011C96.724 89.8078 94.069 89.1841 91.4033 92.3828" stroke="#0B539B" stroke-width="0.75" stroke-miterlimit="10"/>
<path d="M133.989 84.7594C133.883 84.8553 129.82 79.7853 128.189 77.9887C128.055 77.8394 133.92 86.1028 134.053 85.9856C141.048 79.748 143.218 71.5272 143.239 63.7862C143.239 63.541 143.218 63.3064 143.18 63.0771C142.813 70.4396 140.408 79.0389 133.989 84.7594Z" fill="#0B539B"/>
<path d="M136.02 58.4553C132.869 62.0486 129.249 67.3265 122.98 70.8931C122.799 70.9944 133.701 85.0103 133.984 84.7544C140.978 78.5168 143.212 68.8566 143.233 61.1103C143.244 57.3304 138.51 55.6031 136.02 58.45V58.4553Z" fill="#6EB7FF"/>
<path d="M142.525 58.796C141.112 56.7755 137.919 56.2957 136.021 58.4602C132.87 62.0534 129.25 67.3314 122.98 70.898" stroke="#0B539B" stroke-width="0.75" stroke-miterlimit="10"/>
<mask id="path-88-inside-3_1310_479" fill="white">
<path fill-rule="evenodd" clip-rule="evenodd" d="M219.382 35.7342C224.19 32.6474 235.178 32.9886 236.895 42.9474H236.9C238.846 54.2443 224.19 59.7729 216.636 51.1895C216.131 50.6158 215.725 50.0036 215.406 49.3655C215.326 49.4375 215.226 49.4953 215.103 49.5353C213.711 49.9875 213.26 48.8694 214.022 47.9524C214.306 47.6108 214.504 47.3029 214.64 47.0512C213.829 42.6351 216.269 37.7363 219.382 35.7342Z"/>
</mask>
<path fill-rule="evenodd" clip-rule="evenodd" d="M219.382 35.7342C224.19 32.6474 235.178 32.9886 236.895 42.9474H236.9C238.846 54.2443 224.19 59.7729 216.636 51.1895C216.131 50.6158 215.725 50.0036 215.406 49.3655C215.326 49.4375 215.226 49.4953 215.103 49.5353C213.711 49.9875 213.26 48.8694 214.022 47.9524C214.306 47.6108 214.504 47.3029 214.64 47.0512C213.829 42.6351 216.269 37.7363 219.382 35.7342Z" fill="white"/>
<path d="M236.895 42.9474L236.156 43.0748L236.263 43.6974H236.895V42.9474ZM219.382 35.7342L218.976 35.1031L218.976 35.1034L219.382 35.7342ZM236.9 42.9474L237.639 42.8201L237.532 42.1974H236.9V42.9474ZM216.636 51.1895L216.073 51.6849L216.073 51.6851L216.636 51.1895ZM215.406 49.3655L216.078 49.0308L215.637 48.1477L214.904 48.8084L215.406 49.3655ZM215.103 49.5353L214.871 48.822L214.871 48.822L215.103 49.5353ZM214.022 47.9524L214.599 48.4316L214.599 48.4316L214.022 47.9524ZM214.64 47.0512L215.299 47.4081L215.425 47.1757L215.377 46.9158L214.64 47.0512ZM237.634 42.82C236.72 37.5168 233.3 34.7337 229.49 33.7238C225.739 32.7297 221.571 33.4376 218.976 35.1031L219.787 36.3654C222.001 34.9441 225.731 34.2792 229.106 35.1737C232.421 36.0523 235.353 38.4192 236.156 43.0748L237.634 42.82ZM236.9 42.1974H236.895V43.6974H236.9V42.1974ZM216.073 51.6851C220.08 56.2383 225.978 57.0463 230.606 55.2213C235.251 53.3894 238.681 48.8695 237.639 42.8201L236.161 43.0747C237.065 48.3223 234.14 52.2151 230.056 53.8259C225.953 55.4435 220.746 54.7241 217.199 50.694L216.073 51.6851ZM214.735 49.7002C215.082 50.3958 215.525 51.062 216.073 51.6849L217.199 50.6942C216.738 50.1695 216.367 49.6114 216.078 49.0308L214.735 49.7002ZM215.335 50.2486C215.548 50.1793 215.743 50.0717 215.908 49.9226L214.904 48.8084C214.906 48.8067 214.906 48.8071 214.902 48.8093C214.898 48.8115 214.889 48.8164 214.871 48.822L215.335 50.2486ZM213.445 47.4732C212.948 48.0721 212.702 48.9211 213.103 49.6272C213.545 50.4083 214.471 50.5292 215.335 50.2486L214.871 48.822C214.615 48.9053 214.473 48.8926 214.419 48.8794C214.378 48.8694 214.394 48.8637 214.407 48.8874C214.415 48.9008 214.394 48.8763 214.411 48.7903C214.427 48.7052 214.478 48.5773 214.599 48.4316L213.445 47.4732ZM213.98 46.6942C213.867 46.9038 213.697 47.1705 213.445 47.4732L214.599 48.4316C214.915 48.051 215.14 47.7021 215.299 47.4081L213.98 46.6942ZM218.976 35.1034C217.272 36.1993 215.798 38.0516 214.854 40.1838C213.907 42.3203 213.465 44.8025 213.902 47.1865L215.377 46.9158C215.005 44.8837 215.376 42.7085 216.225 40.7911C217.076 38.8694 218.378 37.2712 219.787 36.365L218.976 35.1034Z" fill="#0B539B" mask="url(#path-88-inside-3_1310_479)"/>
<path d="M217.488 47.0672C217.93 47.0672 218.288 46.7091 218.288 46.2675C218.288 45.8258 217.93 45.4678 217.488 45.4678C217.047 45.4678 216.688 45.8258 216.688 46.2675C216.688 46.7091 217.047 47.0672 217.488 47.0672Z" fill="#0059C5"/>
<path d="M221.432 50.3383C222.463 50.3383 223.298 49.5029 223.298 48.4724C223.298 47.4419 222.463 46.6064 221.432 46.6064C220.402 46.6064 219.566 47.4419 219.566 48.4724C219.566 49.5029 220.402 50.3383 221.432 50.3383Z" fill="#FFE1E1"/>
<path d="M218.118 51.6636C218.507 51.4184 218.945 50.9492 218.945 50.9492" stroke="#0B539B" stroke-miterlimit="10" stroke-linecap="round"/>
<mask id="path-93-inside-4_1310_479" fill="white">
<path fill-rule="evenodd" clip-rule="evenodd" d="M304.208 35.7342C309.017 32.6474 320.004 32.9886 321.721 42.9474H321.726C323.672 54.2443 309.017 59.7729 301.462 51.1895C300.96 50.6187 300.555 50.0098 300.237 49.3752C300.183 49.4192 300.121 49.4583 300.048 49.4919C298.721 50.1082 298.139 49.0524 298.785 48.0504C299.149 47.486 299.326 47.022 299.412 46.7244C298.776 42.3958 301.171 37.6871 304.208 35.7342Z"/>
</mask>
<path fill-rule="evenodd" clip-rule="evenodd" d="M304.208 35.7342C309.017 32.6474 320.004 32.9886 321.721 42.9474H321.726C323.672 54.2443 309.017 59.7729 301.462 51.1895C300.96 50.6187 300.555 50.0098 300.237 49.3752C300.183 49.4192 300.121 49.4583 300.048 49.4919C298.721 50.1082 298.139 49.0524 298.785 48.0504C299.149 47.486 299.326 47.022 299.412 46.7244C298.776 42.3958 301.171 37.6871 304.208 35.7342Z" fill="white"/>
<path d="M321.721 42.9474L320.982 43.0748L321.089 43.6974H321.721V42.9474ZM304.208 35.7342L303.803 35.1031L303.802 35.1034L304.208 35.7342ZM321.726 42.9474L322.466 42.8201L322.358 42.1974H321.726V42.9474ZM301.462 51.1895L300.899 51.6849L300.899 51.6851L301.462 51.1895ZM300.237 49.3752L300.908 49.0396L300.489 48.2025L299.764 48.7937L300.237 49.3752ZM300.048 49.4919L300.364 50.1722L300.364 50.1722L300.048 49.4919ZM298.785 48.0504L298.155 47.644L298.155 47.644L298.785 48.0504ZM299.412 46.7244L300.133 46.932L300.178 46.776L300.154 46.6154L299.412 46.7244ZM322.46 42.82C321.546 37.5168 318.127 34.7337 314.316 33.7238C310.566 32.7297 306.397 33.4376 303.803 35.1031L304.613 36.3654C306.827 34.9441 310.557 34.2792 313.932 35.1737C317.247 36.0523 320.18 38.4192 320.982 43.0748L322.46 42.82ZM321.726 42.1974H321.721V43.6974H321.726V42.1974ZM300.899 51.6851C304.907 56.2383 310.804 57.0463 315.432 55.2213C320.077 53.3894 323.508 48.8695 322.466 42.8201L320.987 43.0747C321.891 48.3223 318.967 52.2151 314.882 53.8259C310.78 55.4435 305.572 54.7241 302.025 50.694L300.899 51.6851ZM299.567 49.7107C299.913 50.4026 300.354 51.0652 300.899 51.6849L302.025 50.6942C301.566 50.1722 301.197 49.6171 300.908 49.0396L299.567 49.7107ZM300.364 50.1722C300.489 50.1145 300.605 50.043 300.711 49.9566L299.764 48.7937C299.762 48.7954 299.753 48.8022 299.733 48.8116L300.364 50.1722ZM298.155 47.644C297.733 48.2985 297.591 49.1708 298.073 49.8237C298.607 50.5458 299.54 50.5545 300.364 50.1722L299.733 48.8116C299.488 48.9251 299.345 48.9296 299.29 48.923C299.249 48.9179 299.264 48.9104 299.28 48.9323C299.289 48.9447 299.266 48.9228 299.271 48.8356C299.277 48.7491 299.313 48.616 299.415 48.4568L298.155 47.644ZM298.691 46.5169C298.625 46.7481 298.477 47.1445 298.155 47.644L299.415 48.4568C299.821 47.8275 300.028 47.296 300.133 46.932L298.691 46.5169ZM303.802 35.1034C302.14 36.1726 300.697 37.9615 299.751 40.0261C298.803 42.0949 298.327 44.5006 298.67 46.8335L300.154 46.6154C299.861 44.6196 300.265 42.5067 301.115 40.6507C301.967 38.7906 303.24 37.2487 304.613 36.365L303.802 35.1034Z" fill="#0B539B" mask="url(#path-93-inside-4_1310_479)"/>
<path d="M302.256 47.0672C302.697 47.0672 303.055 46.7091 303.055 46.2675C303.055 45.8258 302.697 45.4678 302.256 45.4678C301.814 45.4678 301.456 45.8258 301.456 46.2675C301.456 46.7091 301.814 47.0672 302.256 47.0672Z" fill="#0059C5"/>
<path d="M305.455 50.7993C306.485 50.7993 307.321 49.9639 307.321 48.9333C307.321 47.9028 306.485 47.0674 305.455 47.0674C304.424 47.0674 303.589 47.9028 303.589 48.9333C303.589 49.9639 304.424 50.7993 305.455 50.7993Z" fill="#FFE1E1"/>
<path d="M302.795 51.6636C303.184 51.4184 303.621 50.9492 303.621 50.9492" stroke="#0B539B" stroke-miterlimit="10" stroke-linecap="round"/>
<path d="M218.289 61.9953C218.289 61.9953 204.497 88.5449 205.275 100.38L247.909 98.7223C250.639 86.1245 236.948 57.1971 230.561 54.9367C230.524 54.926 227.544 54.8301 225.214 56.664C223.364 58.1248 222.772 61.5208 218.283 61.9953" fill="#6EB7FF"/>
<path d="M205.269 100.379C204.491 88.5438 218.283 61.9941 218.283 61.9941" stroke="#0B539B" stroke-width="0.75" stroke-miterlimit="10"/>
<mask id="mask1_1310_479" style="mask-type:luminance" maskUnits="userSpaceOnUse" x="205" y="54" width="44" height="47">
<path d="M218.289 61.9953C218.289 61.9953 204.497 88.5449 205.275 100.38L247.909 98.7223C250.639 86.1245 236.948 57.1971 230.561 54.9367C230.524 54.926 227.544 54.8301 225.214 56.664C223.364 58.1248 222.772 61.5208 218.283 61.9953" fill="white"/>
</mask>
<g mask="url(#mask1_1310_479)">
<path d="M220.955 59.8633L205.494 104.113" stroke="#0B539B" stroke-width="0.5" stroke-miterlimit="10"/>
<path d="M223.669 55.6201L215.139 106.8" stroke="#0B539B" stroke-width="0.5" stroke-miterlimit="10"/>
<path d="M226.867 53.4873V108.399" stroke="#0B539B" stroke-width="0.5" stroke-miterlimit="10"/>
<path d="M229.532 52.4209L239.662 107.333" stroke="#0B539B" stroke-width="0.5" stroke-miterlimit="10"/>
<path d="M234.33 55.0859L251.39 108.399" stroke="#0B539B" stroke-width="0.5" stroke-miterlimit="10"/>
<path d="M199.145 97.7358L253.524 94.0039" stroke="#0B539B" stroke-width="0.5" stroke-miterlimit="10"/>
<path d="M195.945 95.0712L251.391 81.21" stroke="#0B539B" stroke-width="0.5" stroke-miterlimit="10"/>
<path d="M198.077 83.3424L250.857 67.3486" stroke="#0B539B" stroke-width="0.5" stroke-miterlimit="10"/>
<path d="M208.74 70.0142L245.526 59.8848" stroke="#0B539B" stroke-width="0.5" stroke-miterlimit="10"/>
</g>
<path d="M220.26 99.2342C220.314 99.81 220.356 100.21 220.372 100.343C220.372 100.38 220.383 100.412 220.388 100.45C222.883 116.598 251.992 115.031 252.813 97.7414C252.813 97.6508 252.813 97.5602 252.803 97.4695L252.307 93.0446C252.216 92.2289 251.502 91.6265 250.681 91.6691L225.128 93.1459C224.68 93.1725 224.269 93.3911 223.992 93.743L220.585 98.1359C220.346 98.4505 220.228 98.8397 220.266 99.2342H220.26Z" fill="white" stroke="#0B539B" stroke-width="0.75" stroke-miterlimit="10"/>
<path d="M224.334 103.013C227.618 106.511 239.88 108.643 245.211 102.246C245.211 102.246 245.099 92.5535 248.357 91.8018" stroke="#0B539B" stroke-width="0.75" stroke-miterlimit="10"/>
<path d="M224.515 103.152C226.098 105.088 230.043 106.82 234.335 107.289" stroke="#0B539B" stroke-width="0.84" stroke-miterlimit="10"/>
<path d="M251.608 93.7155L232.458 59.6914L230.858 60.7577L248.334 91.8122L248.942 95.848L251.608 93.7155Z" fill="white" stroke="#0B539B" stroke-width="0.75" stroke-miterlimit="10"/>
<path d="M235.539 105.384L233.401 105.54C233.111 105.561 232.892 105.814 232.913 106.105L232.992 107.179C233.013 107.469 233.266 107.688 233.556 107.667L235.694 107.511C235.985 107.49 236.203 107.237 236.182 106.946L236.104 105.872C236.082 105.581 235.83 105.363 235.539 105.384Z" fill="white" stroke="#0B539B" stroke-width="0.75" stroke-miterlimit="10"/>
<path d="M249.209 93.1832C249.945 93.1832 250.542 92.5865 250.542 91.8504C250.542 91.1143 249.945 90.5176 249.209 90.5176C248.473 90.5176 247.876 91.1143 247.876 91.8504C247.876 92.5865 248.473 93.1832 249.209 93.1832Z" fill="white" stroke="#0B539B" stroke-width="0.75" stroke-miterlimit="10"/>
<path d="M217.627 102.001C214.124 107.871 212.002 109.844 210.371 111.017C209.576 111.587 210.003 112.819 210.978 112.792C212.29 112.76 213.591 112.243 214.508 111.304C213.975 112.728 212.178 113.208 211.304 114.45C210.808 115.154 211.927 116.167 213.047 115.671C214.167 115.175 215.249 114.509 216.219 113.725C215.387 114.679 214.609 115.745 214.305 116.972C214.135 117.659 214.87 117.974 215.078 117.889C216.166 117.435 217.099 116.63 217.712 115.628C217.563 116.529 217.413 117.425 217.264 118.326C217.211 118.651 217.173 119.029 217.408 119.259C217.808 119.653 218.458 119.211 218.799 118.768C219.487 117.883 220.063 116.908 220.505 115.879C220.393 117.259 220.282 118.64 220.175 120.016C220.159 120.186 220.154 120.368 220.25 120.506C220.532 120.911 221.135 120.448 221.364 120.016C222.494 117.91 237.326 90.3473 233.999 77.1684C230.672 63.9896 230.347 80.6924 217.621 102.007L217.627 102.001Z" fill="white" stroke="#0B539B" stroke-width="0.75" stroke-linecap="round" stroke-linejoin="round"/>
<path d="M224.846 58.9994C223.113 70.0298 223.763 93.6473 209.188 104.022L227.954 116.433C227.954 116.433 244.363 75.9315 231.552 57.4747C229.638 54.7184 225.363 55.6887 224.84 58.9994H224.846Z" fill="#6EB7FF"/>
<mask id="mask2_1310_479" style="mask-type:luminance" maskUnits="userSpaceOnUse" x="209" y="55" width="28" height="62">
<path d="M224.738 58.7641C223.005 69.7944 223.656 93.4119 209.08 103.787L227.846 116.198C227.846 116.198 244.256 75.6961 231.445 57.2393C229.531 54.4831 225.255 55.4533 224.733 58.7641H224.738Z" fill="white"/>
</mask>
<g mask="url(#mask2_1310_479)">
<path d="M236.211 53.625L229.813 135.193" stroke="#0B539B" stroke-width="0.5" stroke-miterlimit="10"/>
<path d="M233.012 50.959L215.952 141.057" stroke="#0B539B" stroke-width="0.5" stroke-miterlimit="10"/>
<path d="M202.624 93.0762L243.142 119.732" stroke="#0B539B" stroke-width="0.5" stroke-miterlimit="10"/>
<path d="M207.955 69.6191L254.871 93.0767" stroke="#0B539B" stroke-width="0.5" stroke-miterlimit="10"/>
<path d="M203.69 84.0127L250.606 107.47" stroke="#0B539B" stroke-width="0.5" stroke-miterlimit="10"/>
<path d="M216 50.7031L250.563 80.009" stroke="#0B539B" stroke-width="0.5" stroke-miterlimit="10"/>
</g>
<path d="M231.558 57.4747C229.644 54.7184 225.368 55.6887 224.846 58.9994C223.113 70.0298 223.763 93.6473 209.188 104.022" stroke="#0B539B" stroke-width="0.75" stroke-miterlimit="10"/>
<path d="M235.114 65.4551C240.45 85.5752 227.954 116.427 227.954 116.427L217.185 109.225L228.594 118.533C228.594 118.533 241.996 85.4473 235.119 65.4551H235.114Z" fill="#0B539B"/>
<path d="M296.781 99.3563C296.567 99.6442 296.333 99.9907 296.002 100.065C288.976 101.649 288.416 102.8 286.635 103.467C285.718 103.808 285.809 105.109 286.758 105.338C288.032 105.647 289.423 105.493 290.554 104.831C291.46 104.362 289.973 104.863 286.614 106.681C284.924 107.598 285.26 109.256 287.083 109.017C288.314 108.857 291.396 108.361 292.537 107.865C292.473 107.833 289.85 109.422 288.469 110.627C287.019 111.89 288.048 112.722 289.077 112.45C291.327 111.853 294.174 109.971 294.174 109.971C293.379 110.861 291.929 112.125 290.623 112.871C289.589 113.463 290.202 114.412 291.369 114.183C292.937 113.868 295.155 112.45 295.949 111.56C295.949 111.56 294.872 113.479 294.078 114.364C293.283 115.249 294.685 116.187 295.48 115.297C296.487 114.172 296.199 113.996 298.641 110.818C307.235 99.6335 320.436 73.7609 317.109 61.2378C313.622 48.1016 312.487 78.2125 296.786 99.3563H296.781Z" fill="white"/>
<path d="M293.438 110.43C293.438 110.43 291.738 111.8 290.613 112.877C289.754 113.703 290.192 114.417 291.359 114.188C292.927 113.874 295.144 112.456 295.939 111.565" stroke="#0B539B" stroke-width="0.75" stroke-linecap="round" stroke-linejoin="round"/>
<path d="M294.164 109.976C294.164 109.976 291.317 111.858 289.067 112.455C288.038 112.727 287.009 111.896 288.459 110.632C288.976 110.179 291.514 108.249 291.514 108.249" stroke="#0B539B" stroke-width="0.75" stroke-linecap="round" stroke-linejoin="round"/>
<path d="M292.526 107.871C291.385 108.372 288.309 108.862 287.072 109.022C285.249 109.262 284.913 107.599 286.603 106.687C289.962 104.869 290.522 104.912 290.543 104.837C290.522 104.912 288.016 105.658 286.747 105.344C285.798 105.109 285.713 103.814 286.624 103.473C288.405 102.806 288.965 101.655 295.991 100.071C296.327 99.9966 296.557 99.65 296.77 99.3621C312.471 78.2184 313.606 48.1074 317.093 61.2437C320.419 73.7668 307.219 99.6394 298.625 110.824C296.183 114.002 296.471 114.178 295.464 115.303C294.669 116.193 293.267 115.255 294.062 114.37C294.344 114.055 295.41 112.056 295.41 112.056" stroke="#0B539B" stroke-width="0.75" stroke-linecap="round" stroke-linejoin="round"/>
<path d="M310.984 58.9941C309.128 63.1205 308.547 65.3063 304.25 75.7076C304.176 75.8835 317.195 80.2338 317.269 80.0419C319.071 75.3504 320.047 65.4449 317.861 59.282C316.742 56.1205 312.359 55.9339 310.984 58.9887V58.9941Z" fill="#6EB7FF"/>
<path d="M317.861 59.282C316.741 56.1205 312.359 55.9339 310.983 58.9887C309.128 63.1151 307.113 69.3474 304.25 75.7022" stroke="#0B539B" stroke-width="0.75" stroke-miterlimit="10"/>
<path d="M317.274 80.0152C317.296 79.8393 317.813 79.9779 317.882 80.1752Z" fill="#0B539B"/>
<path d="M317.882 80.1804C318.922 75.9954 319.455 71.8316 319.199 67.9238C319.172 71.8263 318.442 75.9314 317.274 80.0205" fill="#0B539B"/>
<path d="M258.529 63.8991C255.095 64.5868 249.023 58.5251 246.165 49.8192C239.299 28.8727 224.531 27.8384 219.381 35.7394L226.594 50.5069C233.807 84.1632 261.967 63.2113 258.534 63.8991H258.529Z" fill="#6EB7FF"/>
<path d="M226.594 50.5005C227.354 50.5005 227.97 49.5792 227.97 48.4426C227.97 47.3061 227.354 46.3848 226.594 46.3848C225.835 46.3848 225.219 47.3061 225.219 48.4426C225.219 49.5792 225.835 50.5005 226.594 50.5005Z" fill="white"/>
<path d="M210.685 41.3105C212.53 44.0028 215.6 45.7941 219.114 45.8687C222.627 45.9434 226.002 44.1467 227.932 41.3585C226.492 38.1117 223.272 35.8193 219.487 35.7393C215.702 35.6594 212.188 37.9625 210.68 41.3105H210.685Z" fill="#6EB7FF"/>
<path d="M320.676 42.8189C320.676 42.8189 323.693 41.2249 325.287 44.237C325.287 44.237 322.888 46.1243 320.676 42.8189Z" fill="white"/>
<path d="M329.915 36.4593C326.716 32.2262 320.692 31.3892 316.459 34.5826C311.415 30.9254 304.202 35.7342 304.202 35.7342L314.849 54.6228C319.999 52.9062 322.702 48.252 321.715 42.9474C323.283 41.0068 327.548 41.1241 329.115 43.198C330.683 45.2718 329.771 48.2307 329.771 48.2307C332.437 44.8826 332.613 40.0312 329.91 36.4593H329.915Z" fill="#6EB7FF"/>
<path d="M311.415 50.5005C312.174 50.5005 312.79 49.5792 312.79 48.4426C312.79 47.3061 312.174 46.3848 311.415 46.3848C310.655 46.3848 310.039 47.3061 310.039 48.4426C310.039 49.5792 310.655 50.5005 311.415 50.5005Z" fill="white"/>
<path d="M295.512 41.3105C297.357 44.0028 300.428 45.7941 303.941 45.8687C307.454 45.9434 310.829 44.1467 312.759 41.3585C311.32 38.1117 308.099 35.8193 304.314 35.7393C300.529 35.6594 297.016 37.9625 295.507 41.3105H295.512Z" fill="#6EB7FF"/>
<path d="M321.72 42.9465C320.004 31.6123 314.854 26.4623 310.045 22C310.045 22 314.209 29.6237 304.207 35.7387L321.72 42.9518V42.9465Z" fill="white"/>
<path d="M321.155 42.4775C321.155 42.4775 324.999 43.5651 323.912 47.409C323.912 47.409 320.356 47.0678 321.155 42.4775Z" fill="white"/>
<path d="M195.847 145.496L191.987 146.224L193.453 149.868L189.9 148.189L188.947 152L187.063 148.552L184.049 151.073L184.552 147.177L180.633 147.445L183.327 144.588L180 142.501L183.86 141.773L182.393 138.129L185.943 139.811L186.9 136L188.784 139.448L191.798 136.924L191.295 140.82L195.213 140.552L192.519 143.409L195.847 145.496Z" fill="#1AE3B3"/>
<path d="M38.8873 12.1231L35.992 12.6693L37.0919 15.4029L34.4293 14.1415L33.7116 17L32.2982 14.4133L30.0374 16.3068L30.4146 13.3846L27.4752 13.5854L29.496 11.4421L27 9.87691L29.8953 9.33068L28.7955 6.59706L31.4605 7.85854L32.1757 5L33.5891 7.58665L35.85 5.6932L35.4727 8.61543L38.4121 8.41457L36.3913 10.5579L38.8873 12.1231Z" fill="#FACC15"/>
</g>
<defs>
<clipPath id="clip0_1310_479">
<rect width="351" height="203" fill="white"/>
</clipPath>
</defs>
</svg>
