<svg width="350" height="406" viewBox="0 0 350 406" fill="none" xmlns="http://www.w3.org/2000/svg">
<path d="M210.707 361.111L228.393 361.974L315.908 215.734L310.263 201.995L323.735 202.65L332.976 187.213L336.417 181.464L329.387 177.256L325.946 183.005L322.238 180.786L325.678 175.037L318.648 170.83L315.208 176.579L311.507 174.367L314.947 168.611L307.918 164.403L304.477 170.16L300.769 167.94L304.209 162.191L297.179 157.984L293.739 163.733L290.03 161.514L293.471 155.765L286.448 151.557L283.001 157.306L279.3 155.095L282.74 149.338L275.71 145.131L272.27 150.887L268.561 148.668L272.002 142.919L264.972 138.712L261.531 144.461L257.83 142.241L261.271 136.492L254.241 132.285L250.801 138.034L247.092 135.815L250.533 130.066L243.503 125.858L240.062 131.615L236.354 129.396L239.802 123.639L232.772 119.439L229.331 125.188L225.623 122.969L229.063 117.22L222.034 113.013L218.593 118.762L209.337 134.229L216.255 145.734L201.547 147.246L112.975 295.258L119.886 306.764L105.186 308.275L97.374 321.33L93.9336 327.079L100.963 331.286L104.404 325.53L108.105 327.749L104.664 333.505L111.694 337.705L115.135 331.956L118.843 334.175L115.403 339.924L122.433 344.132L125.873 338.383L129.581 340.602L126.134 346.351L133.163 350.558L136.604 344.802L140.312 347.021L136.872 352.778L143.902 356.978L147.342 351.229L151.051 353.448L147.61 359.197L154.633 363.404L158.08 357.655L161.781 359.874L158.341 365.623L165.371 369.831L168.811 364.082L172.52 366.294L169.079 372.05L176.109 376.257L179.55 370.501L183.251 372.72L179.81 378.469L186.84 382.677L190.28 376.928L193.989 379.147L190.548 384.896L197.578 389.103L201.019 383.354L204.727 385.566L201.279 391.322L208.309 395.53L211.757 389.773L214.051 385.938L218.117 379.147L210.707 361.111Z" fill="#F9E8B4"/>
<path d="M219.762 128.416L215.151 136.228L219.487 138.786L224.097 130.975L219.762 128.416Z" fill="#F9F3E4"/>
<path d="M227.565 133.023L222.955 140.834L227.29 143.393L231.901 135.582L227.565 133.023Z" fill="#F9F3E4"/>
<path d="M235.372 137.627L230.762 145.438L235.097 147.997L239.707 140.186L235.372 137.627Z" fill="#F9F3E4"/>
<path d="M243.182 142.246L238.571 150.057L242.907 152.615L247.517 144.804L243.182 142.246Z" fill="#F9F3E4"/>
<path d="M250.987 146.849L246.377 154.66L250.712 157.219L255.323 149.408L250.987 146.849Z" fill="#F9F3E4"/>
<path d="M258.798 151.459L254.188 159.271L258.523 161.829L263.133 154.018L258.798 151.459Z" fill="#F9F3E4"/>
<path d="M266.611 156.063L262.001 163.874L266.336 166.433L270.947 158.622L266.611 156.063Z" fill="#F9F3E4"/>
<path d="M274.414 160.681L269.804 168.492L274.139 171.051L278.749 163.24L274.414 160.681Z" fill="#F9F3E4"/>
<path d="M282.227 165.286L277.617 173.097L281.952 175.655L286.563 167.844L282.227 165.286Z" fill="#F9F3E4"/>
<path d="M290.03 169.896L285.42 177.707L289.755 180.266L294.365 172.455L290.03 169.896Z" fill="#F9F3E4"/>
<path d="M297.838 174.496L293.228 182.307L297.563 184.865L302.173 177.054L297.838 174.496Z" fill="#F9F3E4"/>
<path d="M305.892 179.054L301.281 186.865L305.617 189.424L310.227 181.613L305.892 179.054Z" fill="#F9F3E4"/>
<path d="M313.693 183.664L309.083 191.476L313.418 194.034L318.029 186.223L313.693 183.664Z" fill="#F9F3E4"/>
<path d="M321.508 188.276L316.897 196.087L321.233 198.646L325.843 190.835L321.508 188.276Z" fill="#F9F3E4"/>
<path d="M166.905 243.093L181.694 233.345L165.997 63.64L153.33 55.8879L164.589 48.4634L162.936 30.5464L162.318 23.874L154.156 24.6336L154.774 31.3059L150.477 31.7006L149.859 25.0283L141.698 25.7804L142.316 32.4602L138.019 32.8549L137.401 26.1825L129.247 26.9347L129.857 33.607L125.56 34.0091L124.942 27.3368L116.788 28.0889L117.406 34.7613L113.102 35.1634L112.484 28.4836L104.33 29.2432L104.948 35.9155L100.643 36.3102L100.025 29.6379L91.871 30.39L92.4891 37.0698L88.1849 37.4644L87.5668 30.7921L79.4125 31.5442L80.0306 38.2166L75.7338 38.6187L75.1157 31.9464L66.954 32.6985L67.5721 39.3708L63.2753 39.773L62.6572 33.0932L54.4955 33.8527L55.1136 40.5251L50.8168 40.9198L50.1987 34.2474L42.0444 35.007L42.6551 41.6793L38.3583 42.074L37.7402 35.4017L29.5859 36.1538L30.204 42.8261L31.8647 60.773L44.2338 65.9783L33.2572 75.8825L49.1487 247.636L61.5253 252.841L50.5487 262.745L51.9487 277.892L52.5668 284.564L60.721 283.805L60.103 277.133L64.4072 276.738L65.0253 283.41L73.1796 282.658L72.5615 275.986L76.8657 275.584L77.4764 282.256L85.6381 281.504L85.02 274.831L89.3168 274.429L89.9349 281.109L98.0966 280.35L97.4785 273.677L101.775 273.283L102.393 279.955L110.555 279.195L109.937 272.523L114.234 272.128L114.852 278.801L123.006 278.048L122.388 271.369L126.692 270.974L127.31 277.646L135.465 276.894L134.847 270.222L139.151 269.82L139.769 276.492L147.923 275.74L147.305 269.068L151.609 268.673L152.227 275.345L160.382 274.586L159.764 267.913L164.068 267.519L164.678 274.191L172.84 273.439L172.222 266.759L176.519 266.364L177.137 273.037L185.299 272.285L184.681 265.612L184.264 261.159L183.534 253.273L166.905 243.093Z" fill="#B9E7FC"/>
<path d="M44.0703 80.9092L57.4969 239.787L173.704 229.183C173.704 229.183 162.259 148.623 127.348 118.404C88.6246 84.8932 44.0778 80.9092 44.0778 80.9092H44.0703Z" fill="#D9F3FC"/>
<path d="M39.7602 47.6656L37.3887 47.8994L38.2032 56.1626L40.5747 55.9288L39.7602 47.6656Z" fill="#D9F3FC"/>
<path d="M44.9057 47.1627L42.5342 47.3965L43.3488 55.6596L45.7202 55.4258L44.9057 47.1627Z" fill="#D9F3FC"/>
<path d="M50.0443 46.6539L47.6729 46.8877L48.4874 55.1508L50.8589 54.9171L50.0443 46.6539Z" fill="#D9F3FC"/>
<path d="M55.1898 46.152L52.8184 46.3857L53.6329 54.6489L56.0044 54.4151L55.1898 46.152Z" fill="#D9F3FC"/>
<path d="M60.3285 45.6422L57.957 45.876L58.7716 54.1391L61.1431 53.9053L60.3285 45.6422Z" fill="#D9F3FC"/>
<path d="M65.4662 45.1412L63.0947 45.375L63.9093 53.6381L66.2808 53.4044L65.4662 45.1412Z" fill="#D9F3FC"/>
<path d="M70.6117 44.6315L68.2402 44.8652L69.0548 53.1284L71.4263 52.8946L70.6117 44.6315Z" fill="#D9F3FC"/>
<path d="M75.7494 44.1149L73.3779 44.3486L74.1925 52.6118L76.564 52.378L75.7494 44.1149Z" fill="#D9F3FC"/>
<path d="M80.8959 43.6119L78.5244 43.8457L79.339 52.1088L81.7105 51.8751L80.8959 43.6119Z" fill="#D9F3FC"/>
<path d="M86.0336 43.1031L83.6621 43.3369L84.4767 51.6001L86.8482 51.3663L86.0336 43.1031Z" fill="#D9F3FC"/>
<path d="M91.1723 42.6012L88.8008 42.835L89.6154 51.0981L91.9868 50.8643L91.1723 42.6012Z" fill="#D9F3FC"/>
<path d="M95.2826 42.1998L92.9111 42.4336L93.7257 50.6967L96.0972 50.463L95.2826 42.1998Z" fill="#D9F3FC"/>
<path d="M100.421 41.691L98.0498 41.9248L98.8644 50.1879L101.236 49.9542L100.421 41.691Z" fill="#D9F3FC"/>
<path d="M105.567 41.1813L103.195 41.415L104.01 49.6782L106.381 49.4444L105.567 41.1813Z" fill="#D9F3FC"/>
<path d="M110.705 40.6793L108.334 40.9131L109.149 49.1762L111.52 48.9424L110.705 40.6793Z" fill="#D9F3FC"/>
<path d="M115.85 40.1627L113.479 40.3965L114.293 48.6596L116.665 48.4258L115.85 40.1627Z" fill="#D9F3FC"/>
<path d="M120.989 39.6608L118.617 39.8945L119.432 48.1577L121.803 47.9239L120.989 39.6608Z" fill="#D9F3FC"/>
<path d="M126.127 39.152L123.756 39.3857L124.57 47.6489L126.942 47.4151L126.127 39.152Z" fill="#D9F3FC"/>
<path d="M131.273 38.649L128.901 38.8828L129.716 47.1459L132.087 46.9122L131.273 38.649Z" fill="#D9F3FC"/>
<path d="M136.411 38.1402L134.039 38.374L134.854 46.6372L137.225 46.4034L136.411 38.1402Z" fill="#D9F3FC"/>
<path d="M141.557 37.6305L139.186 37.8643L140 46.1274L142.372 45.8936L141.557 37.6305Z" fill="#D9F3FC"/>
<path d="M146.695 37.1285L144.323 37.3623L145.138 45.6254L147.509 45.3917L146.695 37.1285Z" fill="#D9F3FC"/>
<path d="M152.098 36.6012L149.727 36.835L150.541 45.0981L152.913 44.8643L152.098 36.6012Z" fill="#D9F3FC"/>
<path d="M157.236 36.0846L154.864 36.3184L155.679 44.5815L158.05 44.3477L157.236 36.0846Z" fill="#D9F3FC"/>
<path d="M59.6254 264.344L57.2539 264.578L58.0685 272.841L60.44 272.607L59.6254 264.344Z" fill="#D9F3FC"/>
<path d="M64.7631 263.836L62.3916 264.069L63.2062 272.332L65.5777 272.099L64.7631 263.836Z" fill="#D9F3FC"/>
<path d="M69.9086 263.326L67.5371 263.56L68.3517 271.823L70.7232 271.589L69.9086 263.326Z" fill="#D9F3FC"/>
<path d="M75.0473 262.824L72.6758 263.058L73.4904 271.321L75.8618 271.087L75.0473 262.824Z" fill="#D9F3FC"/>
<path d="M80.1859 262.315L77.8145 262.549L78.629 270.812L81.0005 270.578L80.1859 262.315Z" fill="#D9F3FC"/>
<path d="M85.3314 261.812L82.96 262.046L83.7745 270.309L86.146 270.075L85.3314 261.812Z" fill="#D9F3FC"/>
<path d="M90.4691 261.303L88.0977 261.537L88.9122 269.8L91.2837 269.566L90.4691 261.303Z" fill="#D9F3FC"/>
<path d="M95.6156 260.801L93.2441 261.035L94.0587 269.298L96.4302 269.065L95.6156 260.801Z" fill="#D9F3FC"/>
<path d="M100.753 260.285L98.3818 260.519L99.1964 268.782L101.568 268.548L100.753 260.285Z" fill="#D9F3FC"/>
<path d="M105.891 259.775L103.52 260.009L104.334 268.272L106.706 268.038L105.891 259.775Z" fill="#D9F3FC"/>
<path d="M111.037 259.273L108.665 259.507L109.48 267.77L111.851 267.536L111.037 259.273Z" fill="#D9F3FC"/>
<path d="M115.14 258.873L112.769 259.106L113.583 267.37L115.955 267.136L115.14 258.873Z" fill="#D9F3FC"/>
<path d="M120.287 258.363L117.915 258.597L118.73 266.86L121.101 266.626L120.287 258.363Z" fill="#D9F3FC"/>
<path d="M125.424 257.861L123.053 258.095L123.867 266.358L126.239 266.124L125.424 257.861Z" fill="#D9F3FC"/>
<path d="M130.57 257.351L128.198 257.585L129.013 265.848L131.384 265.614L130.57 257.351Z" fill="#D9F3FC"/>
<path d="M135.708 256.842L133.337 257.076L134.151 265.339L136.523 265.106L135.708 256.842Z" fill="#D9F3FC"/>
<path d="M140.847 256.34L138.476 256.574L139.29 264.837L141.662 264.604L140.847 256.34Z" fill="#D9F3FC"/>
<path d="M145.992 255.823L143.62 256.057L144.435 264.32L146.806 264.086L145.992 255.823Z" fill="#D9F3FC"/>
<path d="M151.13 255.322L148.759 255.556L149.573 263.819L151.945 263.585L151.13 255.322Z" fill="#D9F3FC"/>
<path d="M156.276 254.812L153.904 255.046L154.719 263.309L157.09 263.075L156.276 254.812Z" fill="#D9F3FC"/>
<path d="M161.414 254.31L159.043 254.544L159.858 262.807L162.229 262.573L161.414 254.31Z" fill="#D9F3FC"/>
<path d="M166.552 253.801L164.181 254.035L164.995 262.298L167.367 262.065L166.552 253.801Z" fill="#D9F3FC"/>
<path d="M171.948 253.274L169.576 253.508L170.391 261.771L172.762 261.537L171.948 253.274Z" fill="#D9F3FC"/>
<path d="M177.086 252.765L174.715 252.999L175.529 261.262L177.901 261.028L177.086 252.765Z" fill="#D9F3FC"/>
<path d="M61.8535 343.082C62.6727 338.778 66.828 335.956 71.1322 336.775C74.0737 337.333 76.3301 339.456 77.1939 342.122C77.3727 342.673 78.0727 342.807 78.4376 342.36C80.2248 340.2 83.0918 339.053 86.0408 339.619C89.2503 340.23 91.6407 342.695 92.3035 345.696C92.4376 346.284 93.2344 346.441 93.5695 345.934C95.2897 343.388 98.4173 341.973 101.627 342.591C105.931 343.41 108.754 347.565 107.934 351.869L107.867 352.234C112.172 329.611 134.006 314.762 156.636 319.066C179.029 323.333 193.804 344.765 189.931 367.143C189.894 367.344 189.954 367.538 190.065 367.686C190.289 364.291 192.366 361.141 195.717 359.726C200.446 357.73 205.905 359.942 207.9 364.671C208.317 365.661 208.541 366.681 208.608 367.701C209.583 366.108 211.05 364.782 212.905 364C217.633 362.005 223.092 364.216 225.088 368.945C225.817 370.68 225.981 372.505 225.668 374.225C225.728 374.143 225.765 374.053 225.788 373.949L236.667 316.802L236.548 316.78L282.718 74.2822C281.899 78.5865 277.744 81.4088 273.44 80.5897C270.498 80.0311 268.242 77.9088 267.378 75.2428C267.199 74.6918 266.499 74.5577 266.134 75.0045C264.347 77.1641 261.48 78.3109 258.531 77.745C255.322 77.1343 252.931 74.6694 252.268 71.6684C252.134 71.0801 251.338 70.9237 251.002 71.4301C249.282 73.9769 246.155 75.3918 242.945 74.7737C238.641 73.9545 235.818 69.7992 236.638 65.495L236.705 65.1301C232.4 87.7535 210.566 102.602 187.935 98.2982C165.543 94.0311 150.768 72.5992 154.641 50.2216C154.678 50.0205 154.618 49.8269 154.507 49.6779C154.283 53.0737 152.206 56.2237 148.855 57.6386C144.126 59.6343 138.667 57.4226 136.672 52.6939C136.255 51.7035 136.031 50.6833 135.964 49.6631C134.989 51.2567 133.522 52.5822 131.667 53.3641C126.939 55.3599 121.48 53.1482 119.484 48.4194C118.755 46.6843 118.591 44.8599 118.904 43.1396C118.844 43.2216 118.807 43.3109 118.784 43.4152L71.929 289.83L71.9886 289.845L61.8535 343.082Z" fill="#F0FAFC"/>
<mask id="mask0_1163_2743" style="mask-type:luminance" maskUnits="userSpaceOnUse" x="61" y="43" width="222" height="332">
<path d="M61.8535 343.082C62.6727 338.778 66.828 335.956 71.1322 336.775C74.0737 337.333 76.3301 339.456 77.1939 342.122C77.3727 342.673 78.0727 342.807 78.4376 342.36C80.2248 340.2 83.0918 339.053 86.0408 339.619C89.2503 340.23 91.6407 342.695 92.3035 345.696C92.4376 346.284 93.2344 346.441 93.5695 345.934C95.2897 343.388 98.4173 341.973 101.627 342.591C105.931 343.41 108.754 347.565 107.934 351.869L107.867 352.234C112.172 329.611 134.006 314.762 156.636 319.066C179.029 323.333 193.804 344.765 189.931 367.143C189.894 367.344 189.954 367.538 190.065 367.686C190.289 364.291 192.366 361.141 195.717 359.726C200.446 357.73 205.905 359.942 207.9 364.671C208.317 365.661 208.541 366.681 208.608 367.701C209.583 366.108 211.05 364.782 212.905 364C217.633 362.005 223.092 364.216 225.088 368.945C225.817 370.68 225.981 372.505 225.668 374.225C225.728 374.143 225.765 374.053 225.788 373.949L236.667 316.802L236.548 316.78L282.718 74.2822C281.899 78.5865 277.744 81.4088 273.44 80.5897C270.498 80.0311 268.242 77.9088 267.378 75.2428C267.199 74.6918 266.499 74.5577 266.134 75.0045C264.347 77.1641 261.48 78.3109 258.531 77.745C255.322 77.1343 252.931 74.6694 252.268 71.6684C252.134 71.0801 251.338 70.9237 251.002 71.4301C249.282 73.9769 246.155 75.3918 242.945 74.7737C238.641 73.9545 235.818 69.7992 236.638 65.495L236.705 65.1301C232.4 87.7535 210.566 102.602 187.935 98.2982C165.543 94.0311 150.768 72.5992 154.641 50.2216C154.678 50.0205 154.618 49.8269 154.507 49.6779C154.283 53.0737 152.206 56.2237 148.855 57.6386C144.126 59.6343 138.667 57.4226 136.672 52.6939C136.255 51.7035 136.031 50.6833 135.964 49.6631C134.989 51.2567 133.522 52.5822 131.667 53.3641C126.939 55.3599 121.48 53.1482 119.484 48.4194C118.755 46.6843 118.591 44.8599 118.904 43.1396C118.844 43.2216 118.807 43.3109 118.784 43.4152L71.929 289.83L71.9886 289.845L61.8535 343.082Z" fill="white"/>
</mask>
<g mask="url(#mask0_1163_2743)">
<path d="M226.011 153.405C174.807 153.405 134.043 114.682 133.298 60.6922C133.298 60.3198 84.1494 39.4688 84.1494 39.4688V355.213L231.596 338.823C231.47 338.823 231.35 338.823 231.224 338.823C180.02 338.823 138.511 297.314 138.511 246.11C138.511 194.906 175.179 153.397 226.383 153.397" fill="#D6FAFC"/>
</g>
<mask id="mask1_1163_2743" style="mask-type:luminance" maskUnits="userSpaceOnUse" x="61" y="43" width="222" height="332">
<path d="M61.8535 343.082C62.6727 338.778 66.828 335.956 71.1322 336.775C74.0737 337.333 76.3301 339.456 77.1939 342.122C77.3727 342.673 78.0727 342.807 78.4376 342.36C80.2248 340.2 83.0918 339.053 86.0408 339.619C89.2503 340.23 91.6407 342.695 92.3035 345.696C92.4376 346.284 93.2344 346.441 93.5695 345.934C95.2897 343.388 98.4173 341.973 101.627 342.591C105.931 343.41 108.754 347.565 107.934 351.869L107.867 352.234C112.172 329.611 134.006 314.762 156.636 319.066C179.029 323.333 193.804 344.765 189.931 367.143C189.894 367.344 189.954 367.538 190.065 367.686C190.289 364.291 192.366 361.141 195.717 359.726C200.446 357.73 205.905 359.942 207.9 364.671C208.317 365.661 208.541 366.681 208.608 367.701C209.583 366.108 211.05 364.782 212.905 364C217.633 362.005 223.092 364.216 225.088 368.945C225.817 370.68 225.981 372.505 225.668 374.225C225.728 374.143 225.765 374.053 225.788 373.949L236.667 316.802L236.548 316.78L282.718 74.2822C281.899 78.5865 277.744 81.4088 273.44 80.5896C270.498 80.0311 268.242 77.9088 267.378 75.2428C267.199 74.6918 266.499 74.5577 266.134 75.0045C264.347 77.1641 261.48 78.3109 258.531 77.745C255.322 77.1343 252.931 74.6694 252.268 71.6684C252.134 71.0801 251.338 70.9237 251.002 71.4301C249.282 73.9769 246.155 75.3918 242.945 74.7737C238.641 73.9545 235.818 69.7992 236.638 65.495L236.705 65.1301C232.4 87.7535 210.566 102.602 187.935 98.2982C165.543 94.0311 150.768 72.5992 154.641 50.2216C154.678 50.0205 154.618 49.8269 154.507 49.6779C154.283 53.0737 152.206 56.2237 148.855 57.6386C144.126 59.6343 138.667 57.4226 136.672 52.6939C136.255 51.7035 136.031 50.6833 135.964 49.6631C134.989 51.2567 133.522 52.5822 131.667 53.3641C126.939 55.3599 121.48 53.1482 119.484 48.4194C118.755 46.6843 118.591 44.8599 118.904 43.1396C118.844 43.2216 118.807 43.3109 118.784 43.4152L71.929 289.83L71.9886 289.845L61.8535 343.082Z" fill="white"/>
</mask>
<g mask="url(#mask1_1163_2743)">
<path d="M287.596 142.741L286.316 140.864L302.222 56.708L111.241 20.6133L95.4017 104.412L93.1006 105.984L97.6357 112.619L104.271 108.091L104.174 107.942L104.956 108.091L104.814 108.195L109.342 114.83L115.977 110.303L115.88 110.154L116.662 110.303L116.521 110.407L121.048 117.049L127.356 112.745L131.66 119.053L137.968 114.748L142.272 121.056L148.579 116.752L152.884 123.066L159.191 118.762L163.495 125.07L169.803 120.765L174.107 127.073L180.414 122.776L184.719 129.084L191.034 124.779L195.33 131.087L201.645 126.782L205.942 133.09L212.257 128.793L216.561 135.101L222.869 130.796L227.173 137.104L233.48 132.799L237.785 139.114L244.092 134.81L248.396 141.118L254.704 136.813L259.008 143.121L265.643 138.593L265.546 138.444L265.963 138.526L265.814 138.63L270.35 145.265L276.657 140.961L280.961 147.276L287.596 142.741Z" fill="#B9E7FC"/>
<path d="M63.9686 260.914L65.2494 262.799L49.0303 346.895L239.877 383.69L256.029 299.951L258.33 298.387L253.825 291.737L247.168 296.235L247.264 296.384L246.482 296.235L246.631 296.13L242.126 289.48L235.469 293.978L235.565 294.127L234.783 293.978L234.932 293.882L230.427 287.224L224.105 291.499L219.823 285.176L213.493 289.458L209.219 283.128L202.889 287.41L198.614 281.088L192.285 285.37L188.01 279.04L181.68 283.322L177.398 277L171.076 281.274L166.794 274.952L160.472 279.234L156.19 272.911L149.868 277.186L145.586 270.863L139.263 275.145L134.981 268.816L128.659 273.097L124.377 266.775L118.055 271.057L113.773 264.727L107.45 269.009L103.169 262.687L96.8462 266.961L92.5643 260.639L85.9069 265.144L86.0037 265.293L85.5867 265.211L85.7356 265.115L81.2303 258.457L74.9079 262.732L70.626 256.409L63.9686 260.914Z" fill="#B9E7FC"/>
</g>
<path d="M133.208 60.7286C136.306 63.9233 140.611 65.8148 145.243 65.8148C145.928 65.8148 146.605 65.7701 147.275 65.6882C148.474 72.6435 151.178 79.3159 155.311 85.2808C162.698 95.9595 173.786 103.175 186.543 105.603C189.588 106.184 192.701 106.482 195.784 106.482C213.954 106.482 230.188 96.4659 238.678 81.2446C239.594 81.6095 240.554 81.8925 241.552 82.0861C242.505 82.2648 243.473 82.3616 244.441 82.3616C246.288 82.3616 248.083 82.034 249.766 81.4084C251.806 83.2329 254.338 84.5212 257.146 85.0499C258.099 85.2286 259.067 85.3255 260.028 85.3255C261.733 85.3255 263.401 85.0425 264.98 84.5063C266.975 86.1967 269.396 87.3808 272.054 87.8872C272.211 87.9169 272.374 87.9467 272.538 87.9691L229.243 315.365C229.161 315.804 229.116 316.251 229.108 316.698L221.52 356.553C219.934 356.062 218.251 355.794 216.523 355.794C214.796 355.794 213.031 356.069 211.37 356.613C208.272 353.418 203.968 351.527 199.336 351.527C198.651 351.527 197.973 351.571 197.303 351.653C196.104 344.698 193.401 338.025 189.268 332.061C181.881 321.382 170.793 314.166 158.036 311.738C154.99 311.157 151.878 310.86 148.795 310.86C130.624 310.86 114.39 320.875 105.901 336.097C104.993 335.732 104.032 335.441 103.027 335.255C102.073 335.077 101.105 334.98 100.137 334.98C98.2904 334.98 96.4957 335.307 94.8127 335.933C92.7723 334.108 90.2404 332.82 87.4329 332.291C86.4797 332.113 85.5117 332.016 84.551 332.016C82.8457 332.016 81.1776 332.299 79.5989 332.835C77.6031 331.145 75.1829 329.961 72.5244 329.454C72.368 329.424 72.2042 329.395 72.0404 329.372L79.301 291.237C79.3606 290.924 79.3978 290.604 79.4202 290.291L123.058 60.7882C124.645 61.2797 126.328 61.5478 128.048 61.5478C129.768 61.5478 131.54 61.2723 133.201 60.7286M118.896 43.1318C118.836 43.2138 118.799 43.3031 118.777 43.4074L71.9212 289.822L71.9808 289.837L61.8457 343.074C62.568 339.269 65.8968 336.625 69.6276 336.625C70.1191 336.625 70.618 336.67 71.117 336.767C74.0585 337.325 76.3148 339.448 77.1787 342.114C77.2829 342.441 77.5734 342.62 77.8638 342.62C78.0648 342.62 78.2734 342.531 78.4223 342.352C79.9042 340.565 82.1308 339.47 84.5287 339.47C85.0202 339.47 85.5191 339.515 86.018 339.612C89.2276 340.222 91.618 342.687 92.2808 345.688C92.3553 346.038 92.668 346.232 92.9734 346.232C93.1893 346.232 93.4053 346.135 93.5468 345.927C94.9989 343.782 97.4563 342.441 100.115 342.441C100.606 342.441 101.105 342.486 101.604 342.583C105.908 343.402 108.731 347.557 107.912 351.862L107.852 352.189C111.672 332.217 129.15 318.314 148.765 318.314C151.356 318.314 153.978 318.552 156.614 319.058C179.006 323.325 193.781 344.757 189.908 367.135C189.871 367.336 189.931 367.53 190.043 367.679C190.266 364.283 192.344 361.133 195.695 359.718C196.879 359.219 198.1 358.981 199.306 358.981C202.933 358.981 206.373 361.111 207.878 364.663C208.295 365.653 208.518 366.673 208.585 367.694C209.561 366.1 211.028 364.774 212.882 363.992C214.066 363.494 215.287 363.255 216.494 363.255C220.12 363.255 223.561 365.385 225.065 368.937C225.795 370.672 225.958 372.497 225.646 374.217C225.705 374.135 225.743 374.046 225.765 373.941L236.645 316.795L236.525 316.772L282.696 74.2744C281.973 78.0797 278.645 80.7233 274.914 80.7233C274.422 80.7233 273.923 80.6786 273.424 80.5818C270.483 80.0233 268.227 77.901 267.363 75.235C267.258 74.9074 266.968 74.7286 266.678 74.7286C266.477 74.7286 266.268 74.818 266.119 74.9967C264.637 76.784 262.411 77.8786 260.013 77.8786C259.521 77.8786 259.022 77.834 258.523 77.7372C255.314 77.1265 252.923 74.6616 252.261 71.6606C252.186 71.3106 251.873 71.1169 251.568 71.1169C251.352 71.1169 251.136 71.2138 250.995 71.4223C249.543 73.5669 247.085 74.9074 244.434 74.9074C243.943 74.9074 243.444 74.8627 242.945 74.7659C238.64 73.9467 235.818 69.7914 236.637 65.4872L236.704 65.1223C232.899 85.1095 215.406 99.035 195.784 99.035C193.193 99.035 190.571 98.7967 187.935 98.2904C165.543 94.0233 150.768 72.5914 154.64 50.2138C154.678 50.0127 154.618 49.8191 154.506 49.6701C154.283 53.0659 152.205 56.2159 148.854 57.6308C147.67 58.1297 146.449 58.368 145.243 58.368C141.616 58.368 138.175 56.2382 136.671 52.6861C136.254 51.6957 136.031 50.6755 135.964 49.6552C134.988 51.2489 133.521 52.5744 131.667 53.3563C130.483 53.8552 129.262 54.0935 128.055 54.0935C124.429 54.0935 120.988 51.9638 119.484 48.4116C118.754 46.6765 118.59 44.852 118.903 43.1318H118.896ZM107.867 352.182C107.867 352.182 107.867 352.204 107.867 352.219V352.182Z" fill="white"/>
<path d="M120.318 55.2776C122.508 56.8935 125.204 57.8169 128.056 57.8169C129.798 57.8169 131.504 57.4669 133.119 56.7893C133.536 56.6106 133.946 56.4169 134.341 56.201C136.716 59.8425 140.79 62.0989 145.243 62.0989C146.985 62.0989 148.691 61.7489 150.307 61.0712C150.351 61.0563 150.396 61.034 150.441 61.0116C151.066 68.8903 153.762 76.5084 158.372 83.1733C165.2 93.0404 175.447 99.7127 187.235 101.954C190.058 102.49 192.932 102.766 195.777 102.766C213.88 102.766 229.898 92.0127 237.114 76.0691C238.559 77.2308 240.294 78.0648 242.238 78.4372C242.96 78.5712 243.697 78.6457 244.427 78.6457C246.654 78.6457 248.783 78.0127 250.615 76.8659C252.328 79.1893 254.875 80.8425 257.824 81.4084C258.546 81.5425 259.283 81.6169 260.013 81.6169C262.076 81.6169 264.064 81.0733 265.807 80.0755C267.519 82.2127 269.955 83.7244 272.732 84.2531C273.455 84.3872 274.192 84.4616 274.922 84.4616C275.651 84.4616 276.336 84.3946 277.014 84.2755L232.877 316.095C232.817 316.407 232.795 316.728 232.817 317.04L224.239 362.094C222.049 360.478 219.354 359.554 216.501 359.554C214.759 359.554 213.054 359.904 211.438 360.582C211.021 360.761 210.611 360.954 210.216 361.17C207.841 357.529 203.767 355.272 199.314 355.272C197.572 355.272 195.866 355.622 194.25 356.3C194.206 356.315 194.161 356.337 194.116 356.36C193.491 348.481 190.795 340.863 186.185 334.198C179.357 324.331 169.11 317.658 157.322 315.417C154.499 314.881 151.625 314.605 148.78 314.605C130.684 314.605 114.659 325.366 107.443 341.309C105.998 340.148 104.263 339.314 102.319 338.941C101.597 338.807 100.86 338.733 100.13 338.733C97.9035 338.733 95.7737 339.366 93.9418 340.513C92.229 338.189 89.6822 336.536 86.7333 335.97C86.011 335.836 85.2737 335.762 84.5439 335.762C82.4812 335.762 80.4929 336.305 78.7503 337.303C77.0376 335.166 74.6025 333.654 71.8248 333.125C71.1025 332.991 70.3652 332.917 69.6354 332.917C68.9056 332.917 68.2205 332.984 67.5429 333.103L75.645 290.545C75.6897 290.321 75.712 290.098 75.712 289.874L120.318 55.285M118.904 43.1318C118.844 43.2138 118.807 43.3031 118.784 43.4074L71.929 289.822L71.9886 289.837L61.8535 343.074C62.5759 339.269 65.9046 336.625 69.6354 336.625C70.1269 336.625 70.6259 336.67 71.1248 336.767C74.0663 337.325 76.3227 339.448 77.1865 342.114C77.2908 342.441 77.5812 342.62 77.8716 342.62C78.0727 342.62 78.2812 342.531 78.4301 342.352C79.912 340.565 82.1386 339.47 84.5439 339.47C85.0354 339.47 85.5344 339.515 86.0333 339.612C89.2429 340.222 91.6333 342.687 92.2961 345.688C92.3705 346.038 92.6833 346.232 92.9886 346.232C93.2046 346.232 93.4205 346.135 93.562 345.927C95.0142 343.782 97.4716 342.434 100.13 342.434C100.622 342.434 101.121 342.479 101.619 342.575C105.924 343.395 108.746 347.55 107.927 351.854L107.867 352.182C111.688 332.217 129.165 318.314 148.78 318.314C151.372 318.314 153.993 318.552 156.629 319.058C179.022 323.325 193.796 344.757 189.924 367.135C189.886 367.336 189.946 367.53 190.058 367.679C190.281 364.283 192.359 361.133 195.71 359.718C196.894 359.219 198.115 358.981 199.322 358.981C202.948 358.981 206.389 361.111 207.893 364.663C208.31 365.653 208.533 366.673 208.6 367.694C209.576 366.1 211.043 364.774 212.897 363.992C214.081 363.494 215.302 363.255 216.509 363.255C220.135 363.255 223.576 365.385 225.08 368.937C225.81 370.672 225.974 372.497 225.661 374.217C225.721 374.135 225.758 374.046 225.78 373.941L236.66 316.795L236.541 316.772L282.711 74.2744C281.989 78.0797 278.66 80.7233 274.929 80.7233C274.438 80.7233 273.939 80.6786 273.44 80.5818C270.498 80.0233 268.242 77.901 267.378 75.235C267.274 74.9074 266.983 74.7286 266.693 74.7286C266.492 74.7286 266.283 74.818 266.134 74.9967C264.652 76.784 262.426 77.8786 260.028 77.8786C259.536 77.8786 259.038 77.834 258.539 77.7372C255.329 77.1265 252.939 74.6616 252.276 71.6606C252.201 71.3106 251.889 71.1169 251.583 71.1169C251.367 71.1169 251.151 71.2138 251.01 71.4223C249.558 73.5669 247.1 74.9074 244.449 74.9074C243.958 74.9074 243.459 74.8627 242.96 74.7659C238.656 73.9467 235.833 69.7914 236.652 65.4872L236.719 65.1223C232.914 85.1095 215.422 99.035 195.799 99.035C193.208 99.035 190.586 98.7967 187.95 98.2904C165.558 94.0233 150.783 72.5914 154.656 50.2138C154.693 50.0127 154.633 49.8191 154.522 49.6701C154.298 53.0659 152.221 56.2159 148.869 57.6308C147.685 58.1297 146.464 58.368 145.258 58.368C141.631 58.368 138.191 56.2382 136.686 52.6861C136.269 51.6957 136.046 50.6755 135.979 49.6552C135.004 51.2489 133.536 52.5744 131.682 53.3563C130.498 53.8552 129.277 54.0935 128.071 54.0935C124.444 54.0935 121.004 51.9638 119.499 48.4116C118.769 46.6765 118.606 44.852 118.918 43.1318H118.904ZM107.875 352.174C107.875 352.174 107.875 352.204 107.867 352.212V352.174H107.875Z" fill="#6EB7FF"/>
<path d="M262.962 229.324L254.159 230.985L257.503 239.296L249.401 235.468L247.227 244.158L242.93 236.294L236.056 242.043L237.203 233.159L228.267 233.77L234.411 227.254L226.822 222.496L235.624 220.835L232.281 212.524L240.375 216.359L242.557 207.669L246.854 215.533L253.728 209.776L252.581 218.66L261.517 218.05L255.373 224.566L262.962 229.324Z" fill="#1AE3B3"/>
<path d="M122.783 145.458L113.981 147.119L117.324 155.429L109.23 151.594L107.048 160.285L102.751 152.421L95.8776 158.177L97.0244 149.293L88.0882 149.904L94.2319 143.388L86.6436 138.629L95.4457 136.969L92.1021 128.658L100.204 132.493L102.379 123.803L106.675 131.667L113.549 125.91L112.402 134.794L121.338 134.184L115.195 140.7L122.783 145.458Z" fill="#FACC15"/>
<path d="M146.27 200.565C145.012 200.565 143.723 200.446 142.458 200.2C130.096 197.862 126.492 186.498 127.877 179.178C128.644 175.134 131.578 172.163 135.271 171.485C133.991 169.088 133.581 166.28 134.11 163.473C135.517 156.026 141.75 151.401 150.381 151.401C151.937 151.401 153.523 151.55 155.102 151.848C167.084 154.112 169.839 162.81 168.566 169.572C168.022 172.431 166.742 174.971 164.887 177.033C165.52 179.185 165.714 181.591 165.222 184.19C163.398 193.826 155.616 200.558 146.293 200.558L146.27 200.565Z" fill="#1AE3B3"/>
<path d="M167.851 204.951C166.638 204.951 165.409 204.832 164.21 204.609C159.206 203.663 155.117 200.885 152.69 196.789C150.307 192.753 149.644 187.816 150.716 182.104C153.553 167.084 164.403 156.189 176.512 156.189C177.703 156.189 178.895 156.301 180.049 156.517C185.024 157.455 189.105 160.196 191.525 164.217C193.952 168.253 194.63 173.235 193.535 179.021C192.381 185.128 189.44 191.294 185.47 195.955C180.518 201.756 174.263 204.959 167.844 204.959L167.851 204.951Z" fill="#1AE3B3"/>
<path d="M205.48 209.941C204.594 209.941 203.708 209.859 202.836 209.695C200.729 209.3 198.815 208.451 197.177 207.275C195.538 208.585 193.483 209.322 191.301 209.322C190.698 209.322 190.087 209.263 189.484 209.151C187.987 208.868 186.707 208.488 185.567 207.982C180.146 205.592 178.962 200.848 179.595 197.504C179.952 195.576 180.861 194.228 181.3 193.58C181.315 193.55 181.337 193.528 181.352 193.498C181.918 192.679 183.318 190.594 185.143 187.883C183.72 186.9 182.477 185.649 181.471 184.182C179.327 181.039 178.537 177.256 179.245 173.518C180.511 166.801 186.394 161.931 193.223 161.931C194.109 161.931 194.995 162.013 195.866 162.177C197.743 162.534 199.493 163.242 201.049 164.262C202.821 162.527 205.257 161.499 207.759 161.499C208.332 161.499 208.906 161.551 209.471 161.663C220.88 163.822 219.674 171.992 219.502 172.915C219.13 174.881 218.415 176.273 217.447 177.755C216.471 179.245 215.034 181.397 213.388 183.862C214.885 184.86 216.196 186.155 217.238 187.689C219.383 190.832 220.173 194.615 219.465 198.353C218.199 205.07 212.316 209.941 205.48 209.941Z" fill="#1AE3B3"/>
<path d="M150.604 245.648C149.353 245.648 148.073 245.529 146.799 245.283C137.461 243.518 131.898 235.789 133.581 226.905C135.309 217.775 143.225 211.4 152.839 211.4C154.253 211.4 155.706 211.542 157.15 211.81C165.699 213.426 170.964 220.895 169.393 229.191C167.531 239.035 159.987 245.648 150.612 245.648H150.604Z" fill="#1AE3B3"/>
<path d="M155.958 255.247C155.206 255.247 154.521 255.187 153.851 255.061C151.699 254.658 149.926 253.698 148.579 252.223C146.709 250.175 145.942 247.398 146.471 244.598C147.045 241.545 149.033 239.78 149.882 239.028L149.964 238.953C150.195 238.737 150.545 238.35 151.021 237.359C151.036 237.33 151.043 237.307 151.058 237.278C152.198 234.947 154 230.307 155.221 227.016C154.536 225.407 154.335 223.613 154.663 221.863C155.251 218.75 157.396 216.099 160.129 214.751C164.984 206.411 172.051 205.085 176.057 205.085C177.301 205.085 178.582 205.212 179.877 205.45C188.762 207.133 192.299 213.887 191.204 219.688C190.638 222.667 189.022 225.147 186.781 226.763C186.781 226.785 186.773 226.807 186.766 226.83C185.872 231.573 181.985 235.029 177.487 235.11C176.191 238.305 174.352 242.729 173.012 245.454C169.616 252.581 160.762 255.239 155.951 255.239L155.958 255.247Z" fill="#1AE3B3"/>
<path d="M169.117 257.734C168.364 257.734 167.679 257.675 167.009 257.548C164.864 257.146 163.085 256.185 161.737 254.711C159.868 252.663 159.101 249.885 159.629 247.085C160.203 244.032 162.198 242.26 163.055 241.508L163.129 241.441C163.36 241.217 163.71 240.838 164.179 239.847C164.194 239.817 164.202 239.795 164.217 239.773C165.356 237.442 167.158 232.802 168.379 229.511C167.694 227.902 167.493 226.108 167.821 224.358C168.409 221.245 170.554 218.594 173.287 217.246C178.142 208.906 185.209 207.58 189.215 207.58C190.459 207.58 191.74 207.707 193.036 207.945C196.446 208.585 199.321 210.067 201.361 212.212C203.953 214.945 205.047 218.579 204.362 222.176C203.796 225.155 202.18 227.634 199.939 229.25C199.939 229.273 199.931 229.295 199.924 229.317C199.03 234.053 195.143 237.509 190.645 237.598C189.35 240.793 187.503 245.216 186.17 247.942C182.774 255.068 173.92 257.727 169.109 257.727L169.117 257.734Z" fill="#1AE3B3"/>
<path d="M146.271 197.862C145.183 197.862 144.066 197.757 142.957 197.549C132.434 195.561 129.351 185.902 130.528 179.684C131.168 176.311 133.723 174.039 136.895 174.039C137.282 174.039 137.677 174.077 138.064 174.151C138.34 174.203 138.697 174.293 139.092 174.434C139.092 173.943 139.151 173.503 139.218 173.123C139.256 172.922 139.308 172.706 139.367 172.476C138.868 172.006 138.429 171.47 138.042 170.889C136.746 168.901 136.292 166.451 136.753 163.986C137.9 157.902 143.121 154.119 150.366 154.119C151.759 154.119 153.174 154.253 154.581 154.521C164.59 156.413 166.988 163.286 165.885 169.087C165.334 172.021 163.882 174.508 161.745 176.37C162.661 178.5 163.056 180.98 162.542 183.705C160.963 192.046 154.276 197.869 146.263 197.869L146.271 197.862Z" fill="#0059C5"/>
<path d="M167.851 202.248C166.801 202.248 165.751 202.151 164.716 201.95C160.486 201.153 157.046 198.829 155.02 195.411C152.98 191.956 152.429 187.652 153.382 182.603C155.936 169.079 165.885 158.885 176.519 158.885C177.54 158.885 178.56 158.982 179.558 159.168C183.832 159.972 187.168 162.199 189.224 165.602C191.301 169.05 191.86 173.391 190.899 178.507C188.695 190.169 179.476 202.24 167.866 202.24L167.851 202.248Z" fill="#0059C5"/>
<path d="M205.48 207.237C204.765 207.237 204.043 207.17 203.335 207.036C200.788 206.552 198.599 205.263 196.968 203.484C195.71 205.465 193.602 206.619 191.294 206.619C190.854 206.619 190.415 206.574 189.983 206.492C188.687 206.246 187.6 205.926 186.654 205.509C182.685 203.759 181.799 200.378 182.246 198.01C182.506 196.625 183.177 195.627 183.534 195.091C184.279 194.011 186.416 190.832 189.037 186.907C186.878 186.073 185.023 184.606 183.69 182.655C181.955 180.108 181.315 177.04 181.888 174.017C182.916 168.58 187.682 164.626 193.215 164.626C193.93 164.626 194.652 164.693 195.36 164.827C197.728 165.274 199.843 166.421 201.488 168.119C201.682 167.828 202.077 167.218 202.077 167.218C203.328 165.356 205.502 164.194 207.751 164.194C208.153 164.194 208.563 164.232 208.965 164.306C215.66 165.572 217.425 169.318 216.836 172.401C216.546 173.935 215.98 175.022 215.168 176.273C213.88 178.246 211.78 181.382 209.442 184.867C211.69 185.686 213.619 187.183 214.997 189.201C216.732 191.748 217.372 194.816 216.799 197.839C215.771 203.275 211.013 207.229 205.472 207.229L205.48 207.237Z" fill="#0059C5"/>
<path d="M150.604 242.937C149.517 242.937 148.407 242.833 147.297 242.624C139.374 241.128 134.817 234.865 136.231 227.403C137.713 219.569 144.542 214.096 152.83 214.096C154.074 214.096 155.362 214.222 156.643 214.461C163.68 215.794 168.014 221.907 166.734 228.684C165.125 237.211 158.639 242.937 150.604 242.937Z" fill="#0059C5"/>
<path d="M155.958 252.544C155.377 252.544 154.856 252.499 154.357 252.402C152.793 252.104 151.52 251.434 150.574 250.399C149.286 248.992 148.757 247.055 149.129 245.097C149.531 242.952 150.984 241.664 151.684 241.046L151.81 240.934C152.302 240.465 152.838 239.84 153.471 238.521C154.826 235.744 156.963 230.188 158.185 226.837C157.351 225.527 157.038 223.918 157.336 222.369C157.82 219.808 159.734 217.678 162.064 216.866C166.257 209.025 172.557 207.796 176.072 207.796C177.144 207.796 178.261 207.908 179.386 208.116C184.792 209.136 189.677 213.269 188.56 219.197C188.054 221.878 186.43 224.022 184.234 225.169C184.234 225.549 184.204 225.936 184.129 226.331C183.452 229.913 180.659 232.415 177.33 232.415C176.936 232.415 176.549 232.378 176.161 232.303C176.012 232.274 175.871 232.251 175.752 232.229C174.53 235.275 172.185 241.038 170.599 244.285C167.642 250.526 159.473 252.544 155.973 252.544H155.958Z" fill="#0059C5"/>
<path d="M169.117 255.023C168.536 255.023 168.015 254.978 167.516 254.881C165.952 254.584 164.679 253.913 163.733 252.878C162.445 251.471 161.916 249.535 162.289 247.576C162.691 245.431 164.15 244.136 164.85 243.518L164.969 243.406C165.461 242.937 165.997 242.311 166.623 240.993C167.978 238.223 170.115 232.66 171.329 229.309C170.495 227.998 170.182 226.39 170.48 224.841C170.964 222.279 172.878 220.15 175.209 219.338C179.401 211.496 185.701 210.268 189.216 210.268C190.289 210.268 191.406 210.379 192.53 210.588C195.375 211.124 197.75 212.323 199.396 214.065C201.377 216.158 202.218 218.928 201.705 221.669C201.198 224.35 199.575 226.494 197.378 227.648C197.378 228.036 197.348 228.423 197.274 228.81C196.596 232.392 193.803 234.894 190.475 234.894C190.08 234.894 189.693 234.857 189.306 234.782C189.157 234.753 189.015 234.73 188.896 234.708C187.675 237.754 185.329 243.518 183.743 246.764C180.786 252.997 172.617 255.023 169.117 255.023Z" fill="#0059C5"/>
<path d="M146.255 178.775C145.6 181.814 145.905 182.38 148.616 182.819C145.629 183.832 144.751 184.71 142.427 187.436C143.224 184.42 142.926 183.854 140.23 183.348C143.202 182.409 144.125 181.538 146.255 178.783V178.775Z" fill="white"/>
<path d="M150.262 154.982C151.595 154.982 152.995 155.117 154.417 155.392C159.757 156.397 163.286 158.989 164.634 162.876L165.029 164.008L166.005 163.323C169.303 161.007 172.93 159.786 176.482 159.786C177.45 159.786 178.426 159.875 179.386 160.054C183.445 160.821 186.446 162.779 188.308 165.885L188.695 166.532L189.402 166.257C190.646 165.773 191.934 165.535 193.245 165.535C193.893 165.535 194.548 165.594 195.196 165.721C197.356 166.13 199.314 167.18 200.841 168.759L201.623 169.571L202.241 168.625L202.338 168.484L202.784 167.798C203.894 166.138 205.808 165.11 207.766 165.11C208.116 165.11 208.466 165.14 208.801 165.207C216.405 166.644 216.203 170.963 215.958 172.252C215.697 173.652 215.191 174.612 214.416 175.804C213.292 177.517 211.475 180.242 208.697 184.39L208.057 185.343L209.136 185.738C214.036 187.532 216.896 192.559 215.921 197.69C214.975 202.702 210.581 206.343 205.48 206.343C204.817 206.343 204.155 206.284 203.499 206.157C201.221 205.725 199.195 204.593 197.631 202.88L196.842 202.009L196.209 203C195.122 204.697 193.282 205.718 191.279 205.718C190.907 205.718 190.527 205.68 190.155 205.613C186.811 204.98 184.614 203.655 183.624 201.674C182.849 200.125 183.05 198.613 183.132 198.189C183.363 196.983 183.936 196.126 184.272 195.62C184.972 194.607 186.982 191.613 189.79 187.413L190.415 186.475L189.365 186.065C189.097 185.961 188.836 185.842 188.643 185.745L187.824 185.351L187.436 186.177C185.947 189.379 184.003 192.306 181.807 194.629C177.674 199.015 172.856 201.339 167.866 201.339C166.868 201.339 165.863 201.242 164.873 201.056C160.941 200.311 157.612 198.047 155.728 194.83L155.251 194.019L154.462 194.525C151.997 196.104 149.138 196.938 146.181 196.938C145.168 196.938 144.141 196.841 143.113 196.647C133.194 194.771 130.297 185.686 131.399 179.832C131.958 176.891 134.147 174.918 136.843 174.918C137.185 174.918 137.535 174.947 137.885 175.014C138.183 175.074 138.481 175.156 138.772 175.26L139.978 175.692V174.411C139.978 174.031 140.023 173.644 140.097 173.257C140.134 173.071 140.172 172.885 140.224 172.698L140.365 172.177L139.971 171.805C137.923 169.876 137.074 167.076 137.632 164.12C138.719 158.386 143.433 154.96 150.255 154.96M150.255 154.059C143.143 154.059 137.923 157.738 136.753 163.948C136.121 167.292 137.178 170.405 139.36 172.46C139.3 172.691 139.248 172.9 139.218 173.086C139.144 173.465 139.092 173.912 139.092 174.396C138.697 174.255 138.347 174.165 138.064 174.113C137.655 174.039 137.252 174.002 136.858 174.002C133.782 174.002 131.168 176.258 130.528 179.646C129.351 185.864 132.434 195.523 142.957 197.511C144.051 197.72 145.131 197.817 146.189 197.817C149.398 197.817 152.399 196.901 154.961 195.255C157.21 199.09 161.008 201.212 164.716 201.912C165.774 202.113 166.824 202.21 167.874 202.21C173.072 202.21 178.165 199.797 182.469 195.218C184.793 192.745 186.759 189.752 188.256 186.527C188.516 186.654 188.777 186.765 189.045 186.877C186.416 190.809 184.279 193.989 183.534 195.069C183.177 195.605 182.507 196.595 182.246 197.98C182.03 199.112 181.397 204.839 189.991 206.462C190.423 206.544 190.855 206.581 191.286 206.581C193.565 206.581 195.702 205.442 196.976 203.446C198.599 205.226 200.796 206.522 203.343 206.998C204.065 207.132 204.78 207.2 205.488 207.2C210.916 207.2 215.764 203.335 216.814 197.809C217.879 192.194 214.655 186.743 209.449 184.844C211.788 181.359 213.888 178.224 215.176 176.251C215.995 175 216.553 173.912 216.844 172.378C217.425 169.295 215.667 165.55 208.973 164.284C208.571 164.209 208.168 164.172 207.766 164.172C205.532 164.172 203.35 165.311 202.04 167.255C201.868 167.523 201.682 167.798 201.496 168.096C199.895 166.451 197.795 165.259 195.375 164.797C194.667 164.663 193.952 164.596 193.26 164.596C191.808 164.596 190.4 164.872 189.09 165.378C187.28 162.37 184.249 160.009 179.565 159.123C178.545 158.929 177.517 158.832 176.497 158.832C172.647 158.832 168.872 160.173 165.498 162.534C164.225 158.87 160.948 155.66 154.596 154.454C153.092 154.171 151.647 154.029 150.269 154.029L150.255 154.059Z" fill="white"/>
<path d="M176.08 208.69C177.1 208.69 178.158 208.794 179.223 208.995C181.286 209.382 183.244 210.268 184.748 211.49L185.106 211.78L185.553 211.661C186.744 211.341 188.003 211.177 189.276 211.177C190.281 211.177 191.324 211.274 192.374 211.475C197.341 212.413 201.839 216.159 200.826 221.498C200.379 223.874 198.972 225.825 196.969 226.867L196.484 227.12V227.671C196.484 227.992 196.455 228.319 196.395 228.647C195.799 231.797 193.379 234.001 190.505 234.001C190.162 234.001 189.82 233.971 189.477 233.904C189.313 233.875 189.172 233.852 189.038 233.83L188.33 233.726L188.062 234.388C187.898 234.791 187.727 235.386 187.481 236.205C185.88 241.612 182.142 254.279 170.689 254.279C169.721 254.279 168.708 254.19 167.673 254.003C164.94 253.527 163.86 251.769 163.458 250.771L163.123 249.93L162.281 250.272C160.137 251.144 157.813 251.635 155.922 251.635C155.4 251.635 154.931 251.598 154.529 251.524C151.796 251.01 149.376 248.694 150.016 245.268C150.143 244.613 150.389 244.002 150.776 243.407L151.64 242.074L150.054 242.021C149.1 241.992 148.259 241.902 147.47 241.753C140.067 240.353 135.808 234.53 137.119 227.582C138.265 221.52 143.634 214.997 152.72 214.997C153.941 214.997 155.199 215.116 156.473 215.362C158.364 215.719 160.077 216.449 161.559 217.544L162.393 218.154L162.884 217.246C165.923 211.661 170.488 208.704 176.073 208.704M176.073 207.803C170.205 207.803 165.275 210.961 162.088 216.814C160.554 215.69 158.714 214.87 156.637 214.476C155.274 214.215 153.971 214.096 152.72 214.096C143.612 214.096 137.536 220.5 136.232 227.411C134.825 234.872 139.375 241.135 147.298 242.632C148.222 242.803 149.123 242.885 150.016 242.915C149.629 243.511 149.294 244.233 149.13 245.097C148.557 248.128 150.173 251.613 154.358 252.402C154.82 252.492 155.341 252.536 155.922 252.536C157.813 252.536 160.241 252.067 162.624 251.107C163.339 252.901 164.932 254.443 167.516 254.897C168.633 255.091 169.691 255.18 170.689 255.18C184.584 255.18 187.757 237.561 188.896 234.724C189.023 234.746 189.157 234.768 189.306 234.791C189.708 234.865 190.11 234.902 190.505 234.902C193.744 234.902 196.596 232.422 197.281 228.811C197.356 228.424 197.386 228.044 197.386 227.671C199.567 226.54 201.191 224.417 201.712 221.677C202.829 215.757 197.944 211.616 192.538 210.596C191.421 210.387 190.333 210.283 189.276 210.283C187.898 210.283 186.58 210.454 185.314 210.797C183.661 209.457 181.568 208.526 179.387 208.116C178.255 207.9 177.153 207.796 176.08 207.796L176.073 207.803Z" fill="white"/>
<path d="M139.725 172.356C150.403 178.961 150.783 164.812 150.783 164.812C150.783 164.812 152.533 179.818 139.665 175.097L139.725 172.356Z" fill="white" stroke="white" stroke-width="1.21" stroke-miterlimit="10" stroke-linecap="round"/>
<path d="M198.524 173.682L201.511 168.901" stroke="white" stroke-width="1.21" stroke-miterlimit="10" stroke-linecap="round"/>
<path d="M209.143 184.562L196.789 202.858" stroke="white" stroke-width="1.21" stroke-miterlimit="10" stroke-linecap="round"/>
<path d="M162.914 250.57C161.931 241.21 170.591 242.431 171.425 244.844" stroke="white" stroke-width="1.21" stroke-linecap="round" stroke-linejoin="round"/>
<path d="M150.82 242.491C153.017 239.504 157.582 240.607 158.178 242.342L159.488 237.546" stroke="white" stroke-width="1.21" stroke-linecap="round" stroke-linejoin="round"/>
<path d="M185.999 211.176C185.932 210.938 185.687 210.789 185.448 210.856C185.314 210.893 182.499 211.66 180.027 214.378C175.916 218.638 175.462 225.891 166.519 230.687C171.232 231.58 171.798 232.884 170.13 239.913C170.086 240.092 170.048 240.271 170.004 240.457C174.561 233.472 176.266 231.208 181.829 228.356C178.21 227.812 177.406 225.347 177.279 223.419C177.361 220.753 178.515 217.811 180.131 215.771C182.485 212.8 185.657 211.735 185.679 211.727C185.917 211.668 186.066 211.414 185.999 211.176Z" fill="white"/>
<path d="M196.715 227.522C196.715 227.522 192.82 228.713 188.561 226.993" stroke="white" stroke-width="1.21" stroke-miterlimit="10" stroke-linecap="round"/>
<path d="M155.676 226.271C155.676 226.271 154.886 235.297 146.367 231.849" stroke="white" stroke-width="1.21" stroke-linecap="round" stroke-linejoin="round"/>
<path d="M147.544 228.863C151.409 225.534 152.571 227.716 148.467 230.442C151.513 233.309 148.117 236.697 146.047 232.251C142.242 235.595 141.08 233.406 145.183 230.65C142.13 227.806 145.712 224.455 147.544 228.863Z" fill="#B9F9E8"/>
<path d="M149.979 222.443C149.592 224.484 152.682 227.537 157.612 225.72" stroke="white" stroke-width="1.21" stroke-linecap="round" stroke-linejoin="round"/>
<path d="M163.13 178.157L165.989 179.215C169.393 177.778 172.275 178.291 174.121 178.999L176.795 177.889L173.675 176.735L175.41 173.898L172.208 174.799L171.947 171.478L169.884 174.091L167.725 171.559L167.598 174.888L164.359 174.114L166.205 176.884L163.13 178.157Z" fill="#FACC15"/>
<path d="M170.093 169.385C170.093 169.385 174.568 174.813 182.492 171.731" stroke="white" stroke-width="1.21" stroke-miterlimit="10" stroke-linecap="round"/>
<path d="M155.199 194.816C149.703 180.205 168.588 177.353 175.67 178.693" stroke="white" stroke-width="1.21" stroke-miterlimit="10" stroke-linecap="round"/>
</svg>
