<svg width="350" height="350" viewBox="0 0 350 350" fill="none" xmlns="http://www.w3.org/2000/svg">
<path d="M296.264 324.831L93.7275 294.36L141.106 94.3711L315.489 120.621L296.264 324.831Z" fill="#00376D"/>
<path d="M141.106 94.3711C141.106 94.3711 106.75 169.75 42.0254 217.514L220.036 296.084C220.036 296.084 301.103 216.253 315.489 120.621L141.106 94.3711Z" fill="white" stroke="#6EB7FF" stroke-width="5" stroke-miterlimit="10"/>
<path d="M165.301 86.5199L161.068 114.641L172.317 116.334L176.549 88.213L165.301 86.5199Z" fill="#FACC15"/>
<path d="M272.16 102.613L267.927 130.733L279.175 132.427L283.408 104.306L272.16 102.613Z" fill="#FACC15"/>
<path d="M143.037 124.79L137.684 133.823L232.904 146.691L237.845 137.889L143.037 124.79Z" fill="#B9E7FC"/>
<path d="M135.316 140.231L129.963 149.265L225.183 162.132L230.125 153.331L135.316 140.231Z" fill="#B9E7FC"/>
<path d="M253.492 141.544L235.478 172.426L276.654 182.72L296.11 145.25L253.492 141.544Z" fill="#B9E7FC"/>
<path d="M122.397 158.144L103.302 181.408L138.173 191.728L159.816 168.978L122.397 158.144Z" fill="#B9E7FC"/>
<path d="M169.982 170.496L147.952 195.82L187.533 209.588L209.948 181.717L169.982 170.496Z" fill="#B9E7FC"/>
<path d="M227.757 184.394L202.408 214.427L249.993 226.78L273.18 193.838L227.757 184.394Z" fill="#B9E7FC"/>
<path d="M93.3676 195.408L69.5625 215.25L109.143 228.993L128.239 205.857L93.3676 195.408Z" fill="#B9E7FC"/>
<path d="M140.566 210.309L118.923 233.084L160.666 249.787L183.081 221.915L140.566 210.309Z" fill="#B9E7FC"/>
<path d="M195.795 223.846L170.445 253.853L217.284 271.302L243.379 236.199L195.795 223.846Z" fill="#B9E7FC"/>
<path d="M267.364 283.577C290.815 283.577 309.827 264.565 309.827 241.114C309.827 217.662 290.815 198.65 267.364 198.65C243.912 198.65 224.9 217.662 224.9 241.114C224.9 264.565 243.912 283.577 267.364 283.577Z" fill="#FACC15"/>
<path d="M242.272 234.835L255.423 253.622L296.471 237.949" stroke="white" stroke-width="3" stroke-miterlimit="10"/>
<path d="M108.191 87.4486C82.4557 102.993 79.5734 109.118 84.0256 138.868C68.4814 113.132 62.3564 110.25 32.6064 114.702C58.3417 99.1582 61.2241 93.0332 56.7719 63.2832C72.316 89.0185 78.441 91.9009 108.191 87.4486Z" fill="#B9E7FC"/>
<path d="M112.489 36.8783C101.268 43.6467 100.033 46.3231 101.963 59.268C95.1946 48.0474 92.5181 46.8121 79.5732 48.7422C90.7938 41.9739 92.0291 39.2974 90.099 26.3525C96.8674 37.5731 99.5438 38.8084 112.489 36.8783Z" fill="#B9E7FC"/>
<path d="M151.453 211.158L142.677 211.287L140.618 216.923L134.261 214.195L128.034 219.265L125.795 214.452L117.07 217.592L119.515 211.93L110.636 212.316L117.173 207.375L110.508 204.879L119.335 201.945L116.659 197.261L125.434 197.133L127.493 191.497L133.875 194.225L140.078 189.129L142.342 193.967L151.067 190.827L148.596 196.463L157.475 196.103L150.964 201.044L157.629 203.541L148.802 206.475L151.453 211.158Z" fill="#1AE3B3"/>
<path d="M150.294 145.791C157.423 146.666 164.423 148.544 171.037 151.375C174.717 152.945 178.345 154.875 181.073 157.809C183.801 160.743 185.526 164.835 184.779 168.772C184.625 169.544 184.342 170.368 183.673 170.754C181.897 171.757 180.378 169.004 180.404 166.945C180.404 161.669 182.206 156.419 185.397 152.224C186.401 150.912 187.765 149.599 189.412 149.677C191.625 149.779 192.886 152.199 193.658 154.283C195.897 160.228 194.456 178.5 193.401 172.246C191.702 162.107 198.728 150.963 207.375 144.632C210.077 142.651 213.345 141.029 216.64 141.596C219.367 142.059 221.632 143.989 223.537 145.996C227.629 150.32 230.82 155.467 232.878 161.052" stroke="#00376D" stroke-width="0.25" stroke-miterlimit="10"/>
</svg>
