<svg width="350" height="350" viewBox="0 0 350 350" fill="none" xmlns="http://www.w3.org/2000/svg">
<path d="M297.658 324.478L95.1211 294.008L142.5 94.0186L316.882 120.269L297.658 324.478Z" fill="#00376D"/>
<path d="M142.5 94.0186C142.5 94.0186 108.143 169.397 43.4189 217.162L221.43 295.732C221.43 295.732 302.496 215.901 316.882 120.269L142.5 94.0186Z" fill="white" stroke="#6EB7FF" stroke-width="5" stroke-miterlimit="10"/>
<path d="M166.695 86.1674L162.462 114.288L173.71 115.981L177.943 87.8605L166.695 86.1674Z" fill="#FACC15"/>
<path d="M273.553 102.26L269.32 130.381L280.569 132.074L284.801 103.953L273.553 102.26Z" fill="#FACC15"/>
<path d="M144.43 124.438L139.077 133.471L234.298 146.338L239.239 137.537L144.43 124.438Z" fill="#B9E7FC"/>
<path d="M136.709 139.879L131.356 148.912L226.577 161.78L231.518 152.978L136.709 139.879Z" fill="#B9E7FC"/>
<path d="M254.886 141.191L236.871 172.074L278.048 182.368L297.503 144.897L254.886 141.191Z" fill="#B9E7FC"/>
<path d="M123.791 157.791L104.695 181.056L139.567 191.376L161.21 168.626L123.791 157.791Z" fill="#B9E7FC"/>
<path d="M171.375 170.144L149.346 195.467L188.927 209.235L211.342 181.364L171.375 170.144Z" fill="#B9E7FC"/>
<path d="M229.151 184.041L203.802 214.074L251.386 226.427L274.574 193.486L229.151 184.041Z" fill="#B9E7FC"/>
<path d="M94.7612 195.056L70.9561 214.898L110.537 228.64L129.633 205.504L94.7612 195.056Z" fill="#B9E7FC"/>
<path d="M141.96 209.956L120.316 232.732L162.059 249.434L184.474 221.563L141.96 209.956Z" fill="#B9E7FC"/>
<path d="M197.188 223.493L171.839 253.501L218.677 270.949L244.773 235.846L197.188 223.493Z" fill="#B9E7FC"/>
<path d="M268.757 283.224C292.209 283.224 311.22 264.213 311.22 240.761C311.22 217.309 292.209 198.298 268.757 198.298C245.305 198.298 226.294 217.309 226.294 240.761C226.294 264.213 245.305 283.224 268.757 283.224Z" fill="#FACC15"/>
<path d="M243.666 234.482L256.817 253.269L297.865 237.596" stroke="white" stroke-width="3" stroke-miterlimit="10"/>
<path d="M109.585 87.0961C83.8493 102.64 80.9669 108.765 85.4191 138.515C69.875 112.78 63.75 109.898 34 114.35C59.7353 98.8057 62.6176 92.6807 58.1654 62.9307C73.7096 88.666 79.8346 91.5483 109.585 87.0961Z" fill="#B9E7FC"/>
<path d="M113.882 36.5257C102.662 43.2941 101.426 45.9706 103.357 58.9154C96.5881 47.6949 93.9117 46.4596 80.9668 48.3897C92.1874 41.6213 93.4227 38.9449 91.4925 26C98.2609 37.2206 100.937 38.4559 113.882 36.5257Z" fill="#B9E7FC"/>
<path d="M152.846 210.806L144.07 210.934L142.012 216.57L135.655 213.843L129.427 218.912L127.188 214.1L118.464 217.24L120.909 211.578L112.03 211.964L118.567 207.023L111.901 204.526L120.729 201.593L118.052 196.909L126.828 196.78L128.887 191.144L135.269 193.872L141.471 188.776L143.736 193.615L152.46 190.475L149.99 196.111L158.868 195.751L152.357 200.692L159.023 203.188L150.195 206.122L152.846 210.806Z" fill="#1AE3B3"/>
<path d="M151.688 145.438C158.816 146.313 165.816 148.192 172.43 151.023C176.11 152.592 179.739 154.523 182.467 157.456C185.195 160.39 186.919 164.482 186.173 168.42C186.018 169.192 185.735 170.015 185.066 170.401C183.29 171.405 181.772 168.651 181.798 166.592C181.798 161.317 183.599 156.067 186.79 151.872C187.794 150.559 189.158 149.247 190.805 149.324C193.018 149.427 194.279 151.846 195.051 153.931C197.29 159.875 195.849 178.148 194.794 171.894C193.096 161.754 200.121 150.611 208.768 144.28C211.471 142.298 214.739 140.677 218.033 141.243C220.761 141.706 223.026 143.637 224.93 145.644C229.022 149.967 232.213 155.114 234.272 160.699" stroke="#00376D" stroke-width="0.25" stroke-miterlimit="10"/>
</svg>
